SplineFontDB: 3.0
FontName: AGaramond-Italic
FullName: Adobe Garamond Italic
FamilyName: Adobe Garamond
Weight: Regular
Copyright: Copyright (c) 1989, 1992, 1996, 1998, 1999 Adobe Systems Incorporated.  All Rights Reserved.Adobe Garamond is a registered trademark of Adobe Systems Incorporated.
Version: 001.003
ItalicAngle: -18.5
UnderlinePosition: -100
UnderlineWidth: 50
Ascent: 715
Descent: 285
InvalidEm: 0
sfntRevision: 0x00010000
LayerCount: 2
Layer: 0 1 "Back" 1
Layer: 1 1 "Fore" 0
XUID: [1021 471 -421050302 4796930]
UniqueID: 44301
StyleMap: 0x0001
FSType: 4
OS2Version: 2
OS2_WeightWidthSlopeOnly: 0
OS2_UseTypoMetrics: 0
CreationTime: 939399295
ModificationTime: 1542646309
PfmFamily: 17
TTFWeight: 400
TTFWidth: 5
LineGap: 152
VLineGap: 0
Panose: 2 2 5 0 0 0 0 0 0 0
OS2TypoAscent: 715
OS2TypoAOffset: 0
OS2TypoDescent: -285
OS2TypoDOffset: 0
OS2TypoLinegap: 136
OS2WinAscent: 851
OS2WinAOffset: 0
OS2WinDescent: 285
OS2WinDOffset: 0
HheadAscent: 715
HheadAOffset: 0
HheadDescent: -269
HheadDOffset: 0
OS2SubXSize: 500
OS2SubYSize: 500
OS2SubXOff: -84
OS2SubYOff: 250
OS2SupXSize: 500
OS2SupYSize: 500
OS2SupXOff: 167
OS2SupYOff: 500
OS2StrikeYSize: 50
OS2StrikeYPos: 306
OS2CapHeight: 663
OS2XHeight: 408
OS2Vendor: 'ADBE'
OS2CodePages: 00000001.00000000
OS2UnicodeRanges: 800000af.4000004a.00000000.00000000
Lookup: 258 0 0 "'kern' Horizontal Kerning in Latin lookup 0" { "'kern' Horizontal Kerning in Latin lookup 0 subtable"  } ['kern' ('latn' <'dflt' > ) ]
DEI: 91125
ShortTable: maxp 3
  0
  20480
  230
EndShort
LangName: 1033 "" "AGaramond" "" "1.0;ADBE;AGaramond-Italic" "AGaramond-Italic" "OTF 1.0;PS 001.003;Core 1.0.22" "" "Please refer to the Copyright section for the font trademark attribution notices." "" "" "" "" "" "" "" "" "Adobe Garamond" "" "AGaramond Italic"
Encoding: Custom
UnicodeInterp: none
NameList: AGL For New Fonts
DisplaySize: -48
AntiAlias: 1
FitToEm: 0
WinInfo: 156 26 10
BeginPrivate: 7
BlueValues 39 [-16 0 660 676 394 408 626 640 715 715]

StartChar: exclam
Encoding: 33 33 2
Width: 206
Flags: MW
HStem: -14 21G<58 86.5> -14 109<70.5 86.5>
VStem: 28 101<30 51>
LayerCount: 2
Fore
SplineSet
251 646 m 0,0,0
 279 646 279 646 288 637.5 c 0,1,2
 297 629 297 629 292 614 c 0,0,0
 290 609 290 609 286.5 600 c 0,1,2
 283 591 283 591 275 570.5 c 0,3,4
 267 550 267 550 259 530 c 2,0,0
 135 205 l 2,0,0
 132 199 132 199 122.5 199 c 0,1,2
 113 199 113 199 109 205 c 1,0,0
 178 528 l 2,0,0
 192 596 192 596 198 615 c 0,0,0
 204 635 204 635 214.5 640.5 c 0,1,2
 225 646 225 646 251 646 c 0,0,0
85 95 m 0,0,0
 106 95 106 95 117.5 81.5 c 0,1,2
 129 68 129 68 129 50 c 0,0,0
 129 21 129 21 112 3.5 c 0,1,2
 95 -14 95 -14 72 -14 c 0,0,0
 51 -14 51 -14 39.5 -1.5 c 0,1,2
 28 11 28 11 28 33 c 0,0,0
 28 59 28 59 45.5 77 c 0,1,2
 63 95 63 95 85 95 c 0,0,0
EndSplineSet
EndChar

StartChar: quotedbl
Encoding: 34 34 3
Width: 380
Flags: MW
HStem: 456 230
VStem: 206 261
LayerCount: 2
Fore
SplineSet
276 686 m 0,0,0
 297 686 297 686 303.5 680 c 0,1,2
 310 674 310 674 308 662 c 0,3,4
 306 650 306 650 295 623 c 2,0,0
 229 462 l 2,0,0
 226 456 226 456 217.5 456 c 0,1,2
 209 456 209 456 206 462 c 2,0,0
 224 623 l 2,0,0
 229 666 229 666 236.5 676 c 0,1,2
 244 686 244 686 276 686 c 0,0,0
434 686 m 0,0,0
 455 686 455 686 461.5 680 c 0,1,2
 468 674 468 674 466 662 c 0,3,4
 464 650 464 650 453 623 c 2,0,0
 387 462 l 2,0,0
 384 456 384 456 375.5 456 c 0,1,2
 367 456 367 456 364 462 c 2,0,0
 382 623 l 2,0,0
 387 666 387 666 394.5 676 c 0,1,2
 402 686 402 686 434 686 c 0,0,0
EndSplineSet
EndChar

StartChar: numbersign
Encoding: 35 35 4
Width: 500
Flags: MW
HStem: 194 48<72 160 51 178 222 318 72 204 381 458> 404 48<158 244 135 264 310 403 158 290 469 549>
VStem: 51 518<194 452>
LayerCount: 2
Fore
SplineSet
403 404 m 1,0,0
 290 404 l 1,0,0
 222 242 l 1,0,0
 336 242 l 1,0,0
 403 404 l 1,0,0
549 404 m 1,0,0
 449 404 l 1,0,0
 381 242 l 1,0,0
 479 242 l 1,0,0
 458 194 l 1,0,0
 363 194 l 1,0,0
 284 3 l 1,0,0
 241 3 l 1,0,0
 318 194 l 1,0,0
 204 194 l 1,0,0
 125 3 l 1,0,0
 83 3 l 1,0,0
 160 194 l 1,0,0
 51 194 l 1,0,0
 72 242 l 1,0,0
 178 242 l 1,0,0
 244 404 l 1,0,0
 135 404 l 1,0,0
 158 452 l 1,0,0
 264 452 l 1,0,0
 334 624 l 1,0,0
 381 624 l 1,0,0
 310 452 l 1,0,0
 423 452 l 1,0,0
 492 624 l 1,0,0
 540 624 l 1,0,0
 469 452 l 1,0,0
 569 452 l 1,0,0
 549 404 l 1,0,0
EndSplineSet
EndChar

StartChar: dollar
Encoding: 36 36 5
Width: 500
Flags: MW
HStem: 0 30<236 236 236 286.5> 609 29 609 113 618 20G<413 413>
VStem: 39 33 171 67<464.5 514.5> 384 73<130.5 193.5> 495 23
LayerCount: 2
Fore
SplineSet
301 386 m 1,0,0
 366 609 l 1,0,0
 314 607 314 607 276 574 c 0,1,2
 238 541 238 541 238 489 c 0,0,0
 238 427 238 427 301 386 c 1,0,0
311 289 m 1,0,0
 236 30 l 1,0,0
 303 31 303 31 343.5 67 c 0,1,2
 384 103 384 103 384 160 c 0,0,0
 384 243 384 243 311 289 c 1,0,0
436 717 m 1,0,0
 413 638 l 1,0,0
 479 632 479 632 534 604 c 1,0,0
 537 564 537 564 518 496 c 0,0,0
 516 492 516 492 507 491 c 0,1,2
 498 490 498 490 495 493 c 0,0,0
 498 529 498 529 477 564.5 c 0,1,2
 456 600 456 600 403 608 c 1,0,0
 333 366 l 1,0,0
 372 342 372 342 395.5 322 c 0,1,2
 419 302 419 302 438 269 c 0,3,4
 457 236 457 236 457 195 c 0,0,0
 457 103 457 103 390 51.5 c 0,1,2
 323 0 323 0 226 0 c 1,0,0
 198 -94 l 1,0,0
 192 -100 192 -100 178 -100 c 0,1,2
 164 -100 164 -100 160 -94 c 1,0,0
 188 2 l 1,0,0
 93 12 93 12 44 58 c 1,0,0
 29 96 29 96 49 186 c 0,0,0
 52 190 52 190 59.5 190 c 0,1,2
 67 190 67 190 72 187 c 1,0,0
 72 159 72 159 83 129 c 0,1,2
 94 99 94 99 124 70.5 c 0,3,4
 154 42 154 42 198 34 c 1,0,0
 279 310 l 1,0,0
 171 371 171 371 171 459 c 0,0,0
 171 539 171 539 229.5 587.5 c 0,1,2
 288 636 288 636 375 639 c 1,0,0
 398 717 l 1,0,0
 405 722 405 722 417 722 c 0,1,2
 429 722 429 722 436 717 c 1,0,0
EndSplineSet
EndChar

StartChar: percent
Encoding: 37 37 6
Width: 863
Flags: MW
HStem: -12 30<620 680.5 620 691.5> 252 30<235 295.5 235 306.5> 346 30<678.5 737.5> 610 30<293.5 352.5>
VStem: 134 66<345.5 390 332 446> 386 66<506 545.5 445.5 560.5> 519 66<81.5 126 68 182> 771 66<242 281.5 181.5 296.5>
LayerCount: 2
Fore
SplineSet
339 640 m 0,0,0
 393 640 393 640 422.5 603.5 c 0,1,2
 452 567 452 567 452 505 c 0,0,0
 452 413 452 413 391.5 332.5 c 0,1,2
 331 252 331 252 254 252 c 0,0,0
 195 252 195 252 164.5 288 c 0,1,2
 134 324 134 324 134 385 c 0,0,0
 134 481 134 481 194 560.5 c 0,1,2
 254 640 254 640 339 640 c 0,0,0
200 357 m 0,0,0
 200 282 200 282 251 282 c 0,0,0
 282 282 282 282 309 312.5 c 0,1,2
 336 343 336 343 352 386 c 0,3,4
 368 429 368 429 377 470.5 c 0,5,6
 386 512 386 512 386 539 c 0,0,0
 386 572 386 572 373 591 c 0,1,2
 360 610 360 610 337 610 c 0,0,0
 297 610 297 610 263.5 559.5 c 0,1,2
 230 509 230 509 215 452 c 0,3,4
 200 395 200 395 200 357 c 0,0,0
724 376 m 0,0,0
 778 376 778 376 807.5 339.5 c 0,1,2
 837 303 837 303 837 241 c 0,0,0
 837 149 837 149 776.5 68.5 c 0,1,2
 716 -12 716 -12 639 -12 c 0,0,0
 580 -12 580 -12 549.5 24 c 0,1,2
 519 60 519 60 519 121 c 0,0,0
 519 217 519 217 579 296.5 c 0,1,2
 639 376 639 376 724 376 c 0,0,0
585 93 m 0,0,0
 585 18 585 18 636 18 c 0,0,0
 667 18 667 18 694 48.5 c 0,1,2
 721 79 721 79 737 122 c 0,3,4
 753 165 753 165 762 206.5 c 0,5,6
 771 248 771 248 771 275 c 0,0,0
 771 308 771 308 758 327 c 0,1,2
 745 346 745 346 722 346 c 0,0,0
 682 346 682 346 648.5 295.5 c 0,1,2
 615 245 615 245 600 188 c 0,3,4
 585 131 585 131 585 93 c 0,0,0
186 -14 m 1,0,0
 460 311 460 311 743 654 c 1,0,0
 753 654 753 654 762.5 647 c 0,1,2
 772 640 772 640 772 629 c 1,0,0
 521 332 521 332 213 -40 c 1,0,0
 186 -40 186 -40 186 -14 c 1,0,0
EndSplineSet
EndChar

StartChar: ampersand
Encoding: 38 38 7
Width: 770
Flags: MW
HStem: -14 57<284.5 335> 316 45 425 40<552.5 628.5> 437 42<272 346>
VStem: 79 67<134.5 222> 434 61<298.5 378> 564 63<654 726.5> 620 26 798 61<389.5 397.5>
LayerCount: 2
Fore
SplineSet
300 -14 m 0,0,0
 189 -14 189 -14 134 43.5 c 0,1,2
 79 101 79 101 79 186 c 0,0,0
 79 303 79 303 175 401 c 0,0,0
 250 479 250 479 324 479 c 0,0,0
 335 479 335 479 343.5 477 c 0,1,2
 352 475 352 475 357.5 472 c 0,3,4
 363 469 363 469 368.5 464 c 0,5,6
 374 459 374 459 376 456 c 0,7,8
 378 453 378 453 382 447 c 0,9,10
 386 441 386 441 387 440 c 0,0,0
 420 467 420 467 463.5 511 c 0,1,2
 507 555 507 555 528 583 c 0,0,0
 564 629 564 629 564 667 c 0,0,0
 564 685 564 685 552 697 c 0,0,0
 541 708 541 708 541 719 c 0,0,0
 541 738 541 738 553 749 c 0,1,2
 565 760 565 760 581 760 c 0,0,0
 600 760 600 760 613.5 747 c 0,1,2
 627 734 627 734 627 707 c 0,0,0
 627 625 627 625 501 502 c 0,0,0
 443 445 443 445 338.5 363.5 c 0,1,2
 234 282 234 282 146 222 c 1,0,0
 146 214 l 2,0,0
 145 127 145 127 199.5 85 c 0,1,2
 254 43 254 43 323 43 c 0,0,0
 389 43 389 43 456.5 86 c 0,1,2
 524 129 524 129 566 206 c 0,0,0
 594 258 594 258 606 302 c 0,1,2
 618 346 618 346 620 408 c 1,0,0
 601 425 601 425 568 425 c 0,0,0
 543 425 543 425 519 405 c 0,1,2
 495 385 495 385 495 361 c 0,0,0
 495 357 495 357 503 328 c 0,0,0
 510 302 510 302 510 300 c 0,0,0
 510 295 510 295 508 289.5 c 0,1,2
 506 284 506 284 498 278 c 0,3,4
 490 272 490 272 477 272 c 0,0,0
 460 272 460 272 447 282.5 c 0,1,2
 434 293 434 293 434 312 c 0,0,0
 434 368 434 368 502 424 c 0,0,0
 552 465 552 465 601 465 c 0,0,0
 614 465 614 465 627 461.5 c 0,1,2
 640 458 640 458 648 455 c 0,3,4
 656 452 656 452 670.5 441.5 c 0,5,6
 685 431 685 431 689.5 427.5 c 0,7,8
 694 424 694 424 712 407.5 c 0,9,10
 730 391 730 391 734 387 c 0,0,0
 737 385 737 385 741 381 c 0,1,2
 745 377 745 377 747 375.5 c 0,3,4
 749 374 749 374 752 371 c 0,5,6
 755 368 755 368 756 367.5 c 0,7,8
 757 367 757 367 759.5 365 c 0,9,10
 762 363 762 363 763.5 363 c 0,11,12
 765 363 765 363 767.5 362 c 0,13,14
 770 361 770 361 772.5 361 c 0,15,16
 775 361 775 361 778 361 c 0,0,0
 786 361 786 361 792 370.5 c 0,1,2
 798 380 798 380 798 392 c 0,0,0
 798 405 798 405 794 417 c 0,0,0
 790 431 790 431 790 432 c 0,0,0
 790 441 790 441 799.5 449 c 0,1,2
 809 457 809 457 822 457 c 0,0,0
 841 457 841 457 850 440 c 0,1,2
 859 423 859 423 859 401 c 0,0,0
 859 373 859 373 840 354 c 0,0,0
 835 348 835 348 814 344 c 0,0,0
 772 339 772 339 739 319 c 0,0,0
 725 310 725 310 715 325 c 0,0,0
 710 333 710 333 688.5 356 c 0,1,2
 667 379 667 379 646 396 c 1,0,0
 646 349 646 349 642 311 c 0,0,0
 638 274 638 274 614 213 c 0,1,2
 590 152 590 152 540 95 c 0,0,0
 491 40 491 40 425 13 c 0,1,2
 359 -14 359 -14 300 -14 c 0,0,0
148 260 m 1,0,0
 261 338 261 338 311 382 c 1,0,0
 312 391 312 391 312 406 c 0,0,0
 312 420 312 420 302.5 428.5 c 0,1,2
 293 437 293 437 279 437 c 0,0,0
 266 437 266 437 244 423 c 0,1,2
 222 409 222 409 202 383 c 0,0,0
 159 326 159 326 148 260 c 1,0,0
EndSplineSet
EndChar

StartChar: quoteright
Encoding: 8217 8217 8
Width: 208
Flags: MW
HStem: 470 216
VStem: 258 64<574 599>
LayerCount: 2
Fore
SplineSet
253 686 m 0,0,0
 285 686 285 686 303.5 662.5 c 0,1,2
 322 639 322 639 322 609 c 0,0,0
 322 561 322 561 276.5 523.5 c 0,1,2
 231 486 231 486 175 470 c 1,0,0
 163 476 163 476 169 489 c 1,0,0
 258 531 258 531 258 590 c 0,0,0
 258 617 258 617 226 628 c 0,0,0
 211 634 211 634 211 649 c 0,0,0
 211 664 211 664 223.5 675 c 0,1,2
 236 686 236 686 253 686 c 0,0,0
EndSplineSet
EndChar

StartChar: parenleft
Encoding: 40 40 9
Width: 320
Flags: MW
HStem: -163 866
VStem: 90 54<92.5 208 92.5 232.5>
LayerCount: 2
Fore
SplineSet
144 140 m 0,0,0
 144 -46 144 -46 208 -152 c 1,0,0
 208 -165 208 -165 192 -163 c 1,0,0
 90 -57 90 -57 90 149 c 0,0,0
 90 389 90 389 286 585 c 0,0,0
 354 654 354 654 448 703 c 1,0,0
 461 703 461 703 461 689 c 1,0,0
 354 615 354 615 290 526 c 0,0,0
 144 322 144 322 144 140 c 0,0,0
EndSplineSet
EndChar

StartChar: parenright
Encoding: 41 41 10
Width: 320
Flags: MW
HStem: -163 866
VStem: 250 54<332 447.5>
LayerCount: 2
Fore
SplineSet
250 400 m 0,0,0
 250 586 250 586 186 692 c 1,0,0
 186 705 186 705 202 703 c 1,0,0
 304 597 304 597 304 391 c 0,0,0
 304 151 304 151 108 -45 c 0,0,0
 40 -113 40 -113 -54 -163 c 1,0,0
 -67 -163 -67 -163 -67 -149 c 1,0,0
 40 -75 40 -75 104 14 c 0,0,0
 250 218 250 218 250 400 c 0,0,0
EndSplineSet
EndChar

StartChar: asterisk
Encoding: 42 42 11
Width: 400
Flags: MW
HStem: 620 20G<191 191> 650 20G<362 362> 655 20G<338 338>
VStem: 138 349
LayerCount: 2
Fore
SplineSet
362 670 m 1,0,0
 342 541 l 1,0,0
 478 574 l 2,0,0
 485 572 485 572 487 564.5 c 0,1,2
 489 557 489 557 485 551 c 1,0,0
 355 499 l 1,0,0
 448 396 l 2,0,0
 449 389 449 389 444 382.5 c 0,1,2
 439 376 439 376 432 377 c 2,0,0
 326 469 l 1,0,0
 287 344 l 1,0,0
 271 337 271 337 263 350 c 1,0,0
 282 479 l 1,0,0
 146 443 l 2,0,0
 140 445 140 445 138 453 c 0,1,2
 136 461 136 461 140 467 c 1,0,0
 268 519 l 1,0,0
 174 623 l 2,0,0
 173 630 173 630 178.5 635.5 c 0,1,2
 184 641 184 641 191 640 c 2,0,0
 298 551 l 1,0,0
 338 675 l 1,0,0
 351 681 351 681 362 670 c 1,0,0
EndSplineSet
EndChar

StartChar: plus
Encoding: 43 43 12
Width: 560
Flags: MW
HStem: 0 21G<281 340 281 281> 181 49<118 281 118 281 340 503> 374 20G<281 340 340 340>
VStem: 281 59<0 181 230 394>
LayerCount: 2
Fore
SplineSet
340 0 m 1,0,0
 281 0 l 1,0,0
 281 181 l 1,0,0
 118 181 l 1,0,0
 118 230 l 1,0,0
 281 230 l 1,0,0
 281 394 l 1,0,0
 340 394 l 1,0,0
 340 230 l 1,0,0
 503 230 l 1,0,0
 503 181 l 1,0,0
 340 181 l 1,0,0
 340 0 l 1,0,0
EndSplineSet
EndChar

StartChar: comma
Encoding: 44 44 13
Width: 250
Flags: MW
HStem: -106 223
VStem: 94 66<2 27.5>
LayerCount: 2
Fore
SplineSet
89 117 m 0,0,0
 122 117 122 117 141 93 c 0,1,2
 160 69 160 69 160 38 c 0,0,0
 160 -12 160 -12 113.5 -50.5 c 0,1,2
 67 -89 67 -89 9 -106 c 1,0,0
 -4 -100 -4 -100 2 -86 c 1,0,0
 94 -44 94 -44 94 18 c 0,0,0
 94 49 94 49 61 57 c 0,0,0
 46 61 46 61 46 79 c 0,0,0
 46 95 46 95 58.5 106 c 0,1,2
 71 117 71 117 89 117 c 0,0,0
EndSplineSet
EndChar

StartChar: hyphen
Encoding: 173 45 14
AltUni2: 0000ad.ffffffff.0
Width: 320
Flags: MW
HStem: 173 79
VStem: 54 261
LayerCount: 2
Fore
SplineSet
67 230 m 1,0,0
 310 252 l 1,0,0
 318 242 318 242 315 223 c 0,1,2
 312 204 312 204 302 195 c 1,0,0
 59 173 l 1,0,0
 52 183 52 183 54.5 202 c 0,1,2
 57 221 57 221 67 230 c 1,0,0
EndSplineSet
EndChar

StartChar: period
Encoding: 46 46 15
Width: 250
Flags: MW
HStem: -14 21G<76 104.5> -14 109<88.5 104.5>
VStem: 46 101<30 51>
LayerCount: 2
Fore
SplineSet
103 95 m 0,0,0
 124 95 124 95 135.5 81.5 c 0,1,2
 147 68 147 68 147 50 c 0,0,0
 147 21 147 21 130 3.5 c 0,1,2
 113 -14 113 -14 90 -14 c 0,0,0
 69 -14 69 -14 57.5 -1.5 c 0,1,2
 46 11 46 11 46 33 c 0,0,0
 46 59 46 59 63.5 77 c 0,1,2
 81 95 81 95 103 95 c 0,0,0
EndSplineSet
EndChar

StartChar: slash
Encoding: 47 47 16
Width: 250
Flags: MW
HStem: -16 21G<-7 51 -7 -7> 656 20G<299 357 357 357>
VStem: -7 364
LayerCount: 2
Fore
SplineSet
357 676 m 1,0,0
 51 -16 l 1,0,0
 -7 -16 l 1,0,0
 299 676 l 1,0,0
 357 676 l 1,0,0
EndSplineSet
EndChar

StartChar: zero
Encoding: 48 48 17
Width: 500
Flags: MW
HStem: -14 30<199 258> 610 30<366 415.5>
VStem: 74 77<138 177 90.5 241> 457 77<455.5 489 390 528>
LayerCount: 2
Fore
SplineSet
391 640 m 0,0,0
 534 640 534 640 534 448 c 0,0,0
 534 361 534 361 496.5 259 c 0,1,2
 459 157 459 157 400 86 c 0,0,0
 318 -14 318 -14 223 -14 c 0,0,0
 179 -14 179 -14 147.5 4 c 0,1,2
 116 22 116 22 101 52.5 c 0,3,4
 86 83 86 83 80 113.5 c 0,5,6
 74 144 74 144 74 179 c 0,0,0
 74 271 74 271 110.5 369 c 0,1,2
 147 467 147 467 206 537 c 0,0,0
 293 640 293 640 391 640 c 0,0,0
388 610 m 0,0,0
 356 610 356 610 322.5 581 c 0,1,2
 289 552 289 552 260 502 c 0,0,0
 215 423 215 423 183 313.5 c 0,1,2
 151 204 151 204 151 122 c 0,0,0
 151 16 151 16 227 16 c 0,0,0
 315 16 315 16 394 226 c 0,0,0
 457 396 457 396 457 498 c 0,0,0
 457 610 457 610 388 610 c 0,0,0
EndSplineSet
EndChar

StartChar: one
Encoding: 49 49 18
Width: 500
Flags: MW
HStem: -3 26.5 563.5 22.5 620 20G
VStem: 91 183 91 356
LayerCount: 2
Fore
SplineSet
405 514 m 2,0,0
 287 121 l 2,0,0
 270 61 270 61 276.5 45.5 c 0,1,2
 283 30 283 30 323 25 c 2,0,0
 349 22 l 2,0,0
 354 18 354 18 353.5 9 c 0,1,2
 353 -0 353 -0 348 -3 c 0,0,0
 272 0 272 0 219 0 c 0,0,0
 164 0 164 0 97 -3 c 1,0,0
 91 1 91 1 91 10.5 c 0,1,2
 91 20 91 20 97 22 c 2,0,0
 122 25 l 2,0,0
 168 31 168 31 184 49 c 0,1,2
 200 67 200 67 218 128 c 2,0,0
 318 465 l 2,0,0
 335 524 335 524 332 541 c 0,1,2
 329 558 329 558 300 561 c 2,0,0
 254 566 l 2,0,0
 250 570 250 570 250.5 577 c 0,1,2
 251 584 251 584 256 586 c 0,0,0
 367 605 367 605 434 640 c 0,0,0
 444 641 444 641 447 635 c 1,0,0
 421 566 421 566 405 514 c 2,0,0
EndSplineSet
EndChar

StartChar: two
Encoding: 50 50 19
Width: 500
Flags: MW
HStem: -1 21G<319 331> 0 60<173 246> 593 47<324.5 362>
VStem: 438 87<442.5 515>
LayerCount: 2
Fore
SplineSet
358 253 m 2,0,0
 273 187 l 2,0,0
 139 83 139 83 139 69 c 0,0,0
 139 60 139 60 173 60 c 2,0,0
 290 60 l 2,0,0
 356 60 356 60 376.5 68.5 c 0,1,2
 397 77 397 77 429 120 c 1,0,0
 443 125 443 125 450 114 c 1,0,0
 440 83 440 83 422.5 47 c 0,1,2
 405 11 405 11 393 -3 c 1,0,0
 343 -1 343 -1 319 -1 c 0,0,0
 295 0 295 0 246 0 c 2,0,0
 102 0 l 2,0,0
 24 0 24 0 -3 -3 c 0,0,0
 -9 0 -9 0 -9 8 c 0,0,0
 -9 11 -9 11 -8 13 c 0,0,0
 92 80 92 80 197 168 c 0,0,0
 199 170 199 170 228 193.5 c 0,1,2
 257 217 257 217 264.5 223.5 c 0,3,4
 272 230 272 230 298.5 253.5 c 0,5,6
 325 277 325 277 335 288.5 c 0,7,8
 345 300 345 300 366 322.5 c 0,9,10
 387 345 387 345 396 361 c 0,11,12
 405 377 405 377 417 397.5 c 0,13,14
 429 418 429 418 433.5 438 c 0,15,16
 438 458 438 458 438 477 c 0,0,0
 438 532 438 532 408.5 562.5 c 0,1,2
 379 593 379 593 332 593 c 0,0,0
 250 593 250 593 182 501 c 1,0,0
 174 497 174 497 167 501.5 c 0,1,2
 160 506 160 506 161 516 c 1,0,0
 194 573 194 573 249.5 606.5 c 0,1,2
 305 640 305 640 363 640 c 0,0,0
 440 640 440 640 482.5 600 c 0,1,2
 525 560 525 560 525 491 c 0,0,0
 525 426 525 426 479.5 369 c 0,1,2
 434 312 434 312 358 253 c 2,0,0
EndSplineSet
EndChar

StartChar: three
Encoding: 51 51 20
Width: 500
Flags: MW
HStem: -56 36<65.5 156.5> 600 40<321 355>
VStem: 136 18 383 88<192 260.5> 412 82<503 552.5>
LayerCount: 2
Fore
SplineSet
366 640 m 0,0,0
 428 640 428 640 461 611 c 0,1,2
 494 582 494 582 494 534 c 0,0,0
 494 458 494 458 350 396 c 0,0,0
 339 391 339 391 342 384.5 c 0,1,2
 345 378 345 378 358 376 c 0,0,0
 405 367 405 367 438 331 c 0,1,2
 471 295 471 295 471 239 c 0,0,0
 471 173 471 173 427 111 c 0,1,2
 383 49 383 49 324 12 c 0,0,0
 214 -56 214 -56 95 -56 c 0,0,0
 50 -56 50 -56 22.5 -40 c 0,1,2
 -5 -24 -5 -24 -5 3 c 0,0,0
 -5 20 -5 20 6.5 32 c 0,1,2
 18 44 18 44 37 44 c 0,0,0
 48 44 48 44 58.5 36.5 c 0,1,2
 69 29 69 29 71 26 c 0,3,4
 73 23 73 23 84 7 c 0,0,0
 102 -20 102 -20 141 -20 c 0,0,0
 205 -20 205 -20 271 23 c 0,0,0
 325 58 325 58 354 111.5 c 0,1,2
 383 165 383 165 383 228 c 0,0,0
 383 278 383 278 354 308.5 c 0,1,2
 325 339 325 339 272 339 c 0,0,0
 213 339 213 339 154 288 c 1,0,0
 142 290 142 290 137.5 303 c 0,1,2
 133 316 133 316 141 327 c 1,0,0
 264 376 264 376 320 409 c 0,0,0
 412 464 412 464 412 525 c 0,0,0
 412 563 412 563 390 581.5 c 0,1,2
 368 600 368 600 336 600 c 0,0,0
 263 600 263 600 187 512 c 1,0,0
 178 511 178 511 173 515.5 c 0,1,2
 168 520 168 520 169 529 c 1,0,0
 200 577 200 577 251 608.5 c 0,1,2
 302 640 302 640 366 640 c 0,0,0
EndSplineSet
EndChar

StartChar: four
Encoding: 52 52 21
Width: 510
Flags: MW
HStem: -3 26.5 191 38<147 292 424 475>
VStem: 41 75 317 37
LayerCount: 2
Fore
SplineSet
475 191 m 1,0,0
 422 191 l 2,0,0
 403 191 403 191 396.5 187 c 0,1,2
 390 183 390 183 385 167 c 2,0,0
 366 106 l 2,0,0
 351 60 351 60 354 44.5 c 0,1,2
 357 29 357 29 385 25 c 2,0,0
 410 22 l 2,0,0
 415 18 415 18 413.5 8.5 c 0,1,2
 412 -1 412 -1 407 -3 c 0,0,0
 347 0 347 0 299 0 c 0,0,0
 242 0 242 0 181 -3 c 0,0,0
 175 -1 175 -1 175.5 9 c 0,1,2
 176 19 176 19 182 22 c 2,0,0
 222 25 l 2,0,0
 257 28 257 28 269.5 43 c 0,1,2
 282 58 282 58 296 106 c 2,0,0
 313 164 l 2,0,0
 318 184 318 184 315 187.5 c 0,1,2
 312 191 312 191 292 191 c 2,0,0
 51 191 l 2,0,0
 41 191 41 191 41 206 c 0,0,0
 41 215 41 215 70 244 c 2,0,0
 524 693 l 2,0,0
 537 706 537 706 549 706 c 2,0,0
 568 706 l 2,0,0
 581 706 581 706 581 698 c 0,0,0
 581 695 581 695 573 687 c 2,0,0
 123 248 l 2,0,0
 106.652960526 231.652960526 106.652960526 231.652960526 129.046875 229.578125 c 0,1,2
 135.286637931 229 135.286637931 229 147 229 c 2,0,0
 304 229 l 2,0,0
 322 229 322 229 328.5 233.5 c 0,1,2
 335 238 335 238 340 255 c 2,0,0
 395 441 l 2,0,0
 399 456 399 456 409 461 c 0,0,0
 441 478 441 478 464 478 c 0,0,0
 469 478 469 478 471 476 c 0,1,2
 473 474 473 474 473 469.5 c 0,3,4
 473 465 473 465 472 460.5 c 0,5,6
 471 456 471 456 468 447 c 2,0,0
 411 255 l 2,0,0
 406 241 406 241 409 235 c 0,1,2
 412 229 412 229 424 229 c 2,0,0
 487 229 l 1,0,0
 491 220 491 220 487 208 c 0,1,2
 483 196 483 196 475 191 c 1,0,0
EndSplineSet
EndChar

StartChar: five
Encoding: 53 53 22
Width: 500
Flags: MW
HStem: -68 34 388 57
VStem: 142 66 382 77<185.5 289.5>
LayerCount: 2
Fore
SplineSet
240 532 m 2,0,0
 212 469 l 2,0,0
 208 460 208 460 208 455.5 c 0,1,2
 208 451 208 451 210.5 449.5 c 0,3,4
 213 448 213 448 220 447 c 2,0,0
 247 443 l 2,0,0
 289 437 289 437 321.5 426.5 c 0,1,2
 354 416 354 416 388 395 c 0,3,4
 422 374 422 374 440.5 336 c 0,5,6
 459 298 459 298 459 246 c 0,0,0
 459 161 459 161 399.5 90 c 0,1,2
 340 19 340 19 256 -17 c 0,0,0
 152 -62 152 -62 22 -68 c 0,0,0
 12 -65 12 -65 10.5 -53 c 0,1,2
 9 -41 9 -41 17 -34 c 1,0,0
 181 -33 181 -33 281.5 42 c 0,1,2
 382 117 382 117 382 221 c 0,0,0
 382 270 382 270 363.5 304.5 c 0,1,2
 345 339 345 339 310.5 356 c 0,3,4
 276 373 276 373 238.5 380.5 c 0,5,6
 201 388 201 388 153 388 c 0,0,0
 135 388 135 388 149 419 c 2,0,0
 231 593 l 2,0,0
 241 615 241 615 275 620 c 2,0,0
 526 654 l 2,0,0
 533 653 533 653 537 645 c 1,0,0
 521 606 521 606 494 586 c 1,0,0
 288 558 l 2,0,0
 264 555 264 555 255 550.5 c 0,1,2
 246 546 246 546 240 532 c 2,0,0
EndSplineSet
EndChar

StartChar: six
Encoding: 54 54 23
Width: 500
Flags: MW
HStem: -14 30<222 308 222 321> 336 40<336 343.5>
VStem: 68 84<121.5 227.5 118 252> 406 86<179 257.5>
LayerCount: 2
Fore
SplineSet
315 336 m 0,0,0
 286 336 286 336 263 327 c 1,0,0
 254 339 254 339 260 345 c 0,0,0
 276 358 276 358 302.5 367 c 0,1,2
 329 376 329 376 347 376 c 0,0,0
 413 376 413 376 452.5 334.5 c 0,1,2
 492 293 492 293 492 210 c 0,0,0
 492 125 492 125 422 55.5 c 0,1,2
 352 -14 352 -14 253 -14 c 0,0,0
 163 -14 163 -14 115.5 38 c 0,1,2
 68 90 68 90 68 181 c 0,0,0
 68 284 68 284 128.5 389 c 0,1,2
 189 494 189 494 276 558 c 0,0,0
 431 673 431 673 628 693 c 0,0,0
 634 692 634 692 634.5 683 c 0,1,2
 635 674 635 674 630 671 c 0,0,0
 575 657 575 657 548 649 c 0,1,2
 521 641 521 641 466.5 617 c 0,3,4
 412 593 412 593 367 560 c 0,0,0
 268 487 268 487 210 375.5 c 0,1,2
 152 264 152 264 152 161 c 0,0,0
 152 16 152 16 261 16 c 0,0,0
 326 16 326 16 366 82 c 0,1,2
 406 148 406 148 406 223 c 0,0,0
 406 275 406 275 381.5 305.5 c 0,1,2
 357 336 357 336 315 336 c 0,0,0
EndSplineSet
EndChar

StartChar: seven
Encoding: 55 55 24
Width: 500
Flags: MW
HStem: 566 60<240.5 469 300 469 300 469> 609 20G
VStem: 60 551
LayerCount: 2
Fore
SplineSet
472 451 m 2,0,0
 91 -64 l 1,0,0
 79 -66 79 -66 69 -59 c 0,1,2
 59 -52 59 -52 60 -43 c 1,0,0
 484 527 l 2,0,0
 500 551 500 551 496 558.5 c 0,1,2
 492 566 492 566 469 566 c 2,0,0
 278 566 l 2,0,0
 224 566 224 566 207.5 558.5 c 0,1,2
 191 551 191 551 165 520 c 0,0,0
 161 516 161 516 153 519 c 0,1,2
 145 522 145 522 143 527 c 1,0,0
 175 575 175 575 195 629 c 1,0,0
 225 627 225 627 238 627 c 0,0,0
 254 626 254 626 300 626 c 2,0,0
 469 626 l 2,0,0
 591 626 591 626 604 629 c 1,0,0
 613 626 613 626 611 617 c 1,0,0
 557 567 557 567 472 451 c 2,0,0
EndSplineSet
EndChar

StartChar: eight
Encoding: 56 56 25
Width: 500
Flags: MW
HStem: -14 30<217 280 217 298> 610 30<322.5 383>
VStem: 55 76<96.5 183.5 96.5 196> 167 70<457.5 510.5> 383 79<118.5 198.5> 447 71<467 534 452 534.5>
LayerCount: 2
Fore
SplineSet
242 -14 m 0,0,0
 161 -14 161 -14 108 26.5 c 0,1,2
 55 67 55 67 55 137 c 0,0,0
 55 171 55 171 68.5 200.5 c 0,1,2
 82 230 82 230 97 247.5 c 0,3,4
 112 265 112 265 144 285.5 c 0,5,6
 176 306 176 306 191.5 313.5 c 0,7,8
 207 321 207 321 244 338 c 1,0,0
 209 361 209 361 188 394 c 0,1,2
 167 427 167 427 167 461 c 0,0,0
 167 535 167 535 223.5 587.5 c 0,1,2
 280 640 280 640 358 640 c 0,0,0
 431 640 431 640 474.5 598 c 0,1,2
 518 556 518 556 518 493 c 0,0,0
 518 394 518 394 363 338 c 1,0,0
 462 268 462 268 462 179 c 0,0,0
 462 92 462 92 396.5 39 c 0,1,2
 331 -14 331 -14 242 -14 c 0,0,0
246 16 m 0,0,0
 302 16 302 16 342.5 53.5 c 0,1,2
 383 91 383 91 383 160 c 0,0,0
 383 250 383 250 271 316 c 1,0,0
 131 256 131 256 131 140 c 0,0,0
 131 79 131 79 164.5 47.5 c 0,1,2
 198 16 198 16 246 16 c 0,0,0
447 504 m 0,0,0
 447 551 447 551 422 580.5 c 0,1,2
 397 610 397 610 353 610 c 0,0,0
 306 610 306 610 271.5 576 c 0,1,2
 237 542 237 542 237 487 c 0,0,0
 237 447 237 447 261.5 418.5 c 0,1,2
 286 390 286 390 336 358 c 1,0,0
 383 378 383 378 415 415.5 c 0,1,2
 447 453 447 453 447 504 c 0,0,0
EndSplineSet
EndChar

StartChar: nine
Encoding: 57 57 26
Width: 500
Flags: MW
HStem: 265 39<266.5 273.5> 610 30<321 399>
VStem: 128 85<390.5 462> 459 81<439 504 416 517.5>
LayerCount: 2
Fore
SplineSet
366 640 m 0,0,0
 455 640 455 640 497.5 588 c 0,1,2
 540 536 540 536 540 451 c 0,0,0
 540 338 540 338 454 208 c 0,0,0
 378 96 378 96 264 28.5 c 0,1,2
 150 -39 150 -39 12 -60 c 0,0,0
 6 -58 6 -58 4.5 -49.5 c 0,1,2
 3 -41 3 -41 7 -37 c 0,0,0
 222 18 222 18 337 164 c 0,0,0
 392 234 392 234 425.5 324 c 0,1,2
 459 414 459 414 459 485 c 0,0,0
 459 539 459 539 436 574.5 c 0,1,2
 413 610 413 610 364 610 c 0,0,0
 301 610 301 610 257 551.5 c 0,1,2
 213 493 213 493 213 419 c 0,0,0
 213 370 213 370 233.5 337 c 0,1,2
 254 304 254 304 300 304 c 0,0,0
 320 304 320 304 338 308 c 1,0,0
 350 302 350 302 342 289 c 1,0,0
 308 265 308 265 262 265 c 0,0,0
 203 265 203 265 165.5 305 c 0,1,2
 128 345 128 345 128 409 c 0,0,0
 128 493 128 493 198 566.5 c 0,1,2
 268 640 268 640 366 640 c 0,0,0
EndSplineSet
EndChar

StartChar: colon
Encoding: 58 58 27
Width: 250
Flags: MW
HStem: -14 21G<76 104.5> -14 109<88.5 104.5> 285 109<176.5 192.5> 374 20G<176.5 205.5>
VStem: 46 101<30 51> 134 101<329 350>
LayerCount: 2
Fore
SplineSet
191 394 m 0,0,0
 212 394 212 394 223.5 380.5 c 0,1,2
 235 367 235 367 235 349 c 0,0,0
 235 320 235 320 218 302.5 c 0,1,2
 201 285 201 285 178 285 c 0,0,0
 157 285 157 285 145.5 297.5 c 0,1,2
 134 310 134 310 134 332 c 0,0,0
 134 358 134 358 151.5 376 c 0,1,2
 169 394 169 394 191 394 c 0,0,0
103 95 m 0,0,0
 124 95 124 95 135.5 81.5 c 0,1,2
 147 68 147 68 147 50 c 0,0,0
 147 21 147 21 130 3.5 c 0,1,2
 113 -14 113 -14 90 -14 c 0,0,0
 69 -14 69 -14 57.5 -1.5 c 0,1,2
 46 11 46 11 46 33 c 0,0,0
 46 59 46 59 63.5 77 c 0,1,2
 81 95 81 95 103 95 c 0,0,0
EndSplineSet
EndChar

StartChar: semicolon
Encoding: 59 59 28
Width: 250
Flags: MW
HStem: 285 109<176.5 192.5> 374 20G<176.5 205.5>
VStem: 94 66<2 27.5> 134 101<329 350>
LayerCount: 2
Fore
SplineSet
89 117 m 0,0,0
 122 117 122 117 141 93 c 0,1,2
 160 69 160 69 160 38 c 0,0,0
 160 -12 160 -12 113.5 -50.5 c 0,1,2
 67 -89 67 -89 9 -106 c 1,0,0
 -4 -100 -4 -100 2 -86 c 1,0,0
 94 -44 94 -44 94 18 c 0,0,0
 94 49 94 49 61 57 c 0,0,0
 46 61 46 61 46 79 c 0,0,0
 46 95 46 95 58.5 106 c 0,1,2
 71 117 71 117 89 117 c 0,0,0
191 394 m 0,0,0
 212 394 212 394 223.5 380.5 c 0,1,2
 235 367 235 367 235 349 c 0,0,0
 235 320 235 320 218 302.5 c 0,1,2
 201 285 201 285 178 285 c 0,0,0
 157 285 157 285 145.5 297.5 c 0,1,2
 134 310 134 310 134 332 c 0,0,0
 134 358 134 358 151.5 376 c 0,1,2
 169 394 169 394 191 394 c 0,0,0
EndSplineSet
EndChar

StartChar: less
Encoding: 60 60 29
Width: 560
Flags: MW
HStem: -2 21G<507 507>
VStem: 118 72<204 206 204 227 204 227> 118 389<-2 227 -2 227>
LayerCount: 2
Fore
SplineSet
118 227 m 1,0,0
 507 412 l 1,0,0
 507 354 l 1,0,0
 190 206 l 1,0,0
 190 204 l 1,0,0
 507 55 l 1,0,0
 507 -2 l 1,0,0
 118 182 l 1,0,0
 118 227 l 1,0,0
EndSplineSet
EndChar

StartChar: equal
Encoding: 61 61 30
Width: 560
Flags: MW
HStem: 106 49<118 503 118 503> 256 49<118 503 118 503>
VStem: 118 385<106 155 106 155 256 305 106 305>
LayerCount: 2
Fore
SplineSet
503 305 m 1,0,0
 503 256 l 1,0,0
 118 256 l 1,0,0
 118 305 l 1,0,0
 503 305 l 1,0,0
503 155 m 1,0,0
 503 106 l 1,0,0
 118 106 l 1,0,0
 118 155 l 1,0,0
 503 155 l 1,0,0
EndSplineSet
EndChar

StartChar: greater
Encoding: 62 62 31
Width: 560
Flags: MW
HStem: -2 21G<118 118>
VStem: 118 389<-2 227 55 227 182 412 182 412> 435 72<204 206 206 206>
LayerCount: 2
Fore
SplineSet
118 412 m 1,0,0
 507 227 l 1,0,0
 507 182 l 1,0,0
 118 -2 l 1,0,0
 118 55 l 1,0,0
 435 204 l 1,0,0
 435 206 l 1,0,0
 118 354 l 1,0,0
 118 412 l 1,0,0
EndSplineSet
EndChar

StartChar: question
Encoding: 63 63 32
Width: 300
Flags: MW
HStem: -14 21G<96 124.5> -14 109<108.5 124.5> 587 59<249.5 275 225 277.5>
VStem: 66 101<30 51> 106 41 330 33<497 538>
LayerCount: 2
Fore
SplineSet
187 390 m 1,0,0
 249 425 l 2,0,0
 290 448 290 448 310 468.5 c 0,1,2
 330 489 330 489 330 516 c 0,0,0
 330 548 330 548 309 567.5 c 0,1,2
 288 587 288 587 260 587 c 0,0,0
 237 587 237 587 215 576 c 2,0,0
 193 565 l 2,0,0
 186 565 186 565 180 572.5 c 0,1,2
 174 580 174 580 174 593 c 0,0,0
 174 614 174 614 194.5 630 c 0,1,2
 215 646 215 646 246 646 c 0,0,0
 290 646 290 646 326.5 602 c 0,1,2
 363 558 363 558 363 504 c 0,0,0
 363 415 363 415 260 358 c 2,0,0
 193 321 l 2,0,0
 147 295 147 295 147 256 c 0,0,0
 147 233 147 233 156 208 c 1,0,0
 150 197 150 197 140 203 c 1,0,0
 96 260 96 260 109 309 c 0,0,0
 121 354 121 354 187 390 c 1,0,0
123 95 m 0,0,0
 144 95 144 95 155.5 81.5 c 0,1,2
 167 68 167 68 167 50 c 0,0,0
 167 21 167 21 150 3.5 c 0,1,2
 133 -14 133 -14 110 -14 c 0,0,0
 89 -14 89 -14 77.5 -1.5 c 0,1,2
 66 11 66 11 66 33 c 0,0,0
 66 59 66 59 83.5 77 c 0,1,2
 101 95 101 95 123 95 c 0,0,0
EndSplineSet
EndChar

StartChar: at
Encoding: 64 64 33
Width: 770
Flags: MW
HStem: -16 35<369.5 480> 175 33 175 46<302 369> 465 35<511.5 533> 642 34<407 574.5>
VStem: 115 69<235 386 235 410.5> 275 79<208.5 261> 474 66 762 43<352 482.5>
LayerCount: 2
Fore
SplineSet
522 465 m 0,0,0
 498 465 498 465 459 435 c 0,0,0
 418 401 418 401 386 338.5 c 0,1,2
 354 276 354 276 354 234 c 0,0,0
 354 221 354 221 366 221 c 0,0,0
 388 221 388 221 446 273 c 0,0,0
 480 303 480 303 517.5 356 c 0,1,2
 555 409 555 409 565 436 c 1,0,0
 555 465 555 465 522 465 c 0,0,0
588 478 m 1,0,0
 613 529 l 1,0,0
 624 533 624 533 639 529 c 0,1,2
 654 525 654 525 661 517 c 1,0,0
 562 290 562 290 544 240 c 0,0,0
 537 223 537 223 542.5 215 c 0,1,2
 548 207 548 207 567 208 c 0,0,0
 650 211 650 211 706 266 c 0,1,2
 762 321 762 321 762 412 c 0,0,0
 762 516 762 516 688 579 c 0,1,2
 614 642 614 642 501 642 c 0,0,0
 358 642 358 642 271 540 c 0,1,2
 184 438 184 438 184 294 c 0,0,0
 184 246 184 246 199 200.5 c 0,1,2
 214 155 214 155 246.5 113 c 0,3,4
 279 71 279 71 339.5 45 c 0,5,6
 400 19 400 19 482 19 c 0,0,0
 554 19 554 19 637 54 c 1,0,0
 650 48 650 48 645 35 c 1,0,0
 564 -16 564 -16 452 -16 c 0,0,0
 388 -16 388 -16 329.5 3 c 0,1,2
 271 22 271 22 222 59 c 0,3,4
 173 96 173 96 144 156.5 c 0,5,6
 115 217 115 217 115 293 c 0,0,0
 115 463 115 463 232 569.5 c 0,1,2
 349 676 349 676 510 676 c 0,0,0
 647 676 647 676 726 599.5 c 0,1,2
 805 523 805 523 805 416 c 0,0,0
 805 316 805 316 734 245.5 c 0,1,2
 663 175 663 175 546 175 c 0,0,0
 474 175 474 175 474 197 c 0,0,0
 474 207 474 207 482 228 c 2,0,0
 507 291 l 1,0,0
 505 292 l 1,0,0
 460 245 460 245 403.5 210 c 0,1,2
 347 175 347 175 316 175 c 0,0,0
 296 175 296 175 285.5 188 c 0,1,2
 275 201 275 201 275 220 c 0,0,0
 275 240 275 240 293.5 283.5 c 0,1,2
 312 327 312 327 351 374 c 0,0,0
 454 500 454 500 551 500 c 0,0,0
 562 500 562 500 573 494 c 0,1,2
 584 488 584 488 588 478 c 1,0,0
EndSplineSet
EndChar

StartChar: A
Encoding: 65 65 34
Width: 596
Flags: MW
HStem: -3 26.5 263 40<255 419 293 414> 656 20G<520 523.5>
VStem: 430.5 72.5 455 58
LayerCount: 2
Fore
SplineSet
552 25 m 2,0,0
 578 22 l 1,0,0
 582 17 582 17 580.5 8.5 c 0,1,2
 579 0 579 0 574 -3 c 0,0,0
 528 0 528 0 461 0 c 0,0,0
 391 0 391 0 346 -3 c 0,0,0
 339 -0 339 -0 338.5 9.5 c 0,1,2
 338 19 338 19 345 22 c 2,0,0
 376 25 l 2,0,0
 406 28 406 28 415 41 c 0,0,0
 423 54 423 54 426 103 c 2,0,0
 435 237 l 2,0,0
 436 255 436 255 432.5 259 c 0,1,2
 429 263 429 263 414 263 c 2,0,0
 270 263 l 2,0,0
 247 263 247 263 240 258.5 c 0,1,2
 233 254 233 254 219 232 c 2,0,0
 146 118 l 2,0,0
 101 47 101 47 101 43 c 0,0,0
 101 32 101 32 124 28 c 2,0,0
 161 22 l 2,0,0
 167 17 167 17 166 8.5 c 0,1,2
 165 0 165 0 159 -3 c 0,0,0
 112 0 112 0 57 0 c 0,0,0
 0 0 0 0 -54 -3 c 1,0,0
 -64 10 -64 10 -52 22 c 1,0,0
 -25 25 l 2,0,0
 17 31 17 31 47 67 c 0,0,0
 104 138 104 138 212 292 c 2,0,0
 388 540 l 2,0,0
 441 614 441 614 448 643 c 1,0,0
 463 645 463 645 480.5 653.5 c 0,1,2
 498 662 498 662 509.5 669 c 2,3,-1
 521 676 l 1,0,0
 533 676 533 676 533 668 c 0,0,0
 533 661 533 661 531.5 643.5 c 0,1,2
 530 626 530 626 527.5 592 c 0,3,4
 525 558 525 558 523 521 c 2,0,0
 503 143 l 2,0,0
 501 110 501 110 500.5 95.5 c 0,1,2
 500 81 500 81 501.5 65 c 0,3,4
 503 49 503 49 504.5 44.5 c 0,5,6
 506 40 506 40 514 34.5 c 0,7,8
 522 29 522 29 529 28 c 0,9,10
 536 27 536 27 552 25 c 2,0,0
293 303 m 2,0,0
 419 303 l 2,0,0
 432 303 432 303 435 306.5 c 0,1,2
 438 310 438 310 439 323 c 2,0,0
 455 542 l 2,0,0
 455 568 455 568 453 568 c 0,0,0
 448 568 448 568 415 519 c 2,0,0
 276 318 l 2,0,0
 270 309 270 309 273.5 306 c 0,1,2
 277 303 277 303 293 303 c 2,0,0
EndSplineSet
EndChar

StartChar: B
Encoding: 66 66 35
Width: 581
Flags: MW
HStem: -3 26.5 -3 31<244 322 244 323> 341 30<303.5 358.5> 632 31<380 386.5 323 440>
VStem: 19 175 469 86<184.5 239 184.5 257.5> 525 82<469 546.5 462.5 561>
LayerCount: 2
Fore
SplineSet
134 144 m 2,0,0
 255 537 l 2,0,0
 272 595 272 595 266 609.5 c 0,1,2
 260 624 260 624 225 626 c 2,0,0
 192 627 l 2,0,0
 187 631 187 631 187.5 639 c 0,1,2
 188 647 188 647 192 651 c 0,0,0
 278 663 278 663 360 663 c 0,0,0
 464 663 464 663 522 639 c 0,0,0
 607 603 607 603 607 513 c 0,0,0
 607 445 607 445 555 405 c 0,1,2
 503 365 503 365 451 361 c 0,0,0
 444 361 444 361 442 358.5 c 0,1,2
 440 356 440 356 443 354 c 0,3,4
 446 352 446 352 451 350 c 0,0,0
 496 335 496 335 525.5 295 c 0,1,2
 555 255 555 255 555 203 c 0,0,0
 555 126 555 126 501 73 c 0,0,0
 425 -3 425 -3 261 -3 c 0,0,0
 233 -3 233 -3 190.5 -1.5 c 0,1,2
 148 0 148 0 128 0 c 0,0,0
 68 0 68 0 25 -3 c 1,0,0
 19 1 19 1 19 9.5 c 0,1,2
 19 18 19 18 24 22 c 2,0,0
 44 25 l 2,0,0
 81 30 81 30 95.5 49.5 c 0,1,2
 110 69 110 69 134 144 c 2,0,0
259 307 m 2,0,0
 200 115 l 2,0,0
 185 67 185 67 204.5 47.5 c 0,1,2
 224 28 224 28 280 28 c 0,0,0
 353 28 353 28 411 75 c 0,1,2
 469 122 469 122 469 215 c 0,0,0
 469 275 469 275 425.5 308 c 0,1,2
 382 341 382 341 321 341 c 0,0,0
 284 341 284 341 275 336 c 0,1,2
 266 331 266 331 259 307 c 2,0,0
350 600 m 2,0,0
 288 400 l 2,0,0
 282 382 282 382 288 376.5 c 0,1,2
 294 371 294 371 325 371 c 0,0,0
 355 371 355 371 387 379 c 0,1,2
 419 387 419 387 451.5 404 c 0,3,4
 484 421 484 421 504.5 454 c 0,5,6
 525 487 525 487 525 532 c 0,0,0
 525 577 525 577 492 604.5 c 0,1,2
 459 632 459 632 399 632 c 0,0,0
 370 632 370 632 363.5 628 c 0,1,2
 357 624 357 624 350 600 c 2,0,0
EndSplineSet
EndChar

StartChar: C
Encoding: 67 67 36
Width: 646
Flags: MW
HStem: -16 31<320.5 399.5> 645 31<528.5 615.5>
VStem: 102 88<163 300 163 311>
LayerCount: 2
Fore
SplineSet
581 676 m 4,0,0
 665 676 665 676 745 644 c 5,0,0
 715 570 715 570 700 510 c 4,0,0
 697 504 697 504 686 504.5 c 132,-1,2
 675 505 675 505 673 511 c 4,0,0
 688 579 688 579 663.5 612 c 132,-1,2
 639 645 639 645 564 645 c 4,0,0
 422 645 422 645 308 533 c 4,0,0
 263 488 263 488 226.5 406 c 132,-1,2
 190 324 190 324 190 234 c 4,0,0
 190 127 190 127 239.5 71 c 132,-1,2
 289 15 289 15 384 15 c 4,0,0
 514 15 514 15 599 155 c 5,0,0
 618 163 618 163 623 148 c 5,0,0
 603 87 603 87 558 7 c 5,0,0
 545 7 545 7 479 -4 c 4,0,0
 409 -16 409 -16 382 -16 c 4,0,0
 329 -16 329 -16 282.5 -3 c 132,-1,2
 236 10 236 10 194 39 c 132,-1,4
 152 68 152 68 127 123 c 132,-1,6
 102 178 102 178 102 253 c 4,0,0
 102 337 102 337 141.5 416.5 c 132,-1,2
 181 496 181 496 245 554 c 132,-1,0
 309 612 309 612 396.5 644 c 132,-1,2
 484 676 484 676 581 676 c 4,0,0
EndSplineSet
EndChar

StartChar: D
Encoding: 68 68 37
Width: 739
Flags: MW
HStem: -3 26.5 -3 35<245 300.5> 632 31<378.5 518.5>
VStem: 14 178 658 89<329 430.5>
LayerCount: 2
Fore
SplineSet
133 144 m 6,0,0
 258 549 l 6,0,0
 271 596 271 596 267.5 608.5 c 132,-1,2
 264 621 264 621 241 624 c 6,0,0
 201 629 l 6,0,0
 196 632 196 632 196 640.5 c 132,-1,2
 196 649 196 649 201 653 c 4,0,0
 276 663 276 663 387 663 c 4,0,0
 470 663 470 663 534.5 646.5 c 132,-1,2
 599 630 599 630 638.5 603.5 c 132,-1,4
 678 577 678 577 703 540.5 c 132,-1,6
 728 504 728 504 737.5 467.5 c 132,-1,8
 747 431 747 431 747 390 c 4,0,0
 747 295 747 295 704.5 216 c 132,-1,2
 662 137 662 137 589 87 c 4,0,0
 457 -3 457 -3 255 -3 c 4,0,0
 244 -3 244 -3 203.5 -1.5 c 132,-1,2
 163 0 163 0 130 0 c 4,0,0
 72 0 72 0 20 -3 c 5,0,0
 14 1 14 1 14 9.5 c 132,-1,2
 14 18 14 18 19 22 c 6,0,0
 45 25 l 6,0,0
 80 29 80 29 95 49 c 132,-1,2
 110 69 110 69 133 144 c 6,0,0
347 593 m 6,0,0
 198 114 l 6,0,0
 184 69 184 69 204 50.5 c 132,-1,2
 224 32 224 32 289 32 c 4,0,0
 371 32 371 32 437.5 58.5 c 132,-1,2
 504 85 504 85 544 124.5 c 132,-1,4
 584 164 584 164 611 213 c 132,-1,6
 638 262 638 262 648 304.5 c 132,-1,8
 658 347 658 347 658 383 c 132,-1,0
 658 419 658 419 655 446.5 c 132,-1,2
 652 474 652 474 636.5 511 c 132,-1,4
 621 548 621 548 594.5 572.5 c 132,-1,6
 568 597 568 597 516.5 614.5 c 132,-1,8
 465 632 465 632 394 632 c 4,0,0
 371 632 371 632 363 625 c 132,-1,2
 355 618 355 618 347 593 c 6,0,0
EndSplineSet
EndChar

StartChar: E
Encoding: 69 69 38
Width: 566
Flags: MW
HStem: -1 21G<363 383> 0 23.5 0 31<127 362> 326 35<279 352 302 343> 629 31<374 387 387 446> 643 20G
VStem: 2 190 446 25<245 245>
LayerCount: 2
Fore
SplineSet
132 144 m 6,0,0
 248 516 l 6,0,0
 271 586 271 586 268 606.5 c 132,-1,2
 265 627 265 627 226 634 c 6,0,0
 206 638 l 5,0,0
 201 644 201 644 202.5 652 c 132,-1,2
 204 660 204 660 212 663 c 4,0,0
 248 661 248 661 265 661 c 4,0,0
 283 660 283 660 323 660 c 6,0,0
 512 660 l 6,0,0
 623 660 623 660 653 663 c 5,0,0
 641 633 641 633 612 530 c 4,0,0
 609 524 609 524 599 524.5 c 132,-1,2
 589 525 589 525 587 531 c 4,0,0
 594 569 594 569 588 590.5 c 132,-1,2
 582 612 582 612 552 620 c 4,0,0
 518 629 518 629 446 629 c 6,0,0
 387 629 l 6,0,0
 368 629 368 629 361.5 623.5 c 132,-1,2
 355 618 355 618 348 595 c 6,0,0
 284 390 l 6,0,0
 277 369 277 369 279 365 c 132,-1,2
 281 361 281 361 302 361 c 6,0,0
 352 361 l 6,0,0
 424 361 424 361 448.5 369.5 c 132,-1,2
 473 378 473 378 490 410 c 6,0,0
 506 440 l 6,0,0
 509 445 509 445 519.5 444.5 c 132,-1,2
 530 444 530 444 531 438 c 4,0,0
 519 409 519 409 497 341 c 4,0,0
 479 277 479 277 471 244 c 4,0,0
 466 238 466 238 457.5 238.5 c 132,-1,2
 449 239 449 239 446 245 c 6,0,0
 446 273 l 6,0,0
 446 310 446 310 426.5 318 c 132,-1,2
 407 326 407 326 343 326 c 6,0,0
 293 326 l 6,0,0
 272 326 272 326 266.5 322 c 132,-1,2
 261 318 261 318 254 297 c 6,0,0
 213 162 l 6,0,0
 198 112 198 112 194.5 93.5 c 132,-1,2
 191 75 191 75 196 52 c 5,0,0
 206 31 206 31 307 31 c 4,0,0
 396 31 396 31 435.5 48 c 132,-1,2
 475 65 475 65 520 135 c 5,0,0
 536 145 536 145 543 129 c 5,0,0
 535 102 535 102 513.5 58.5 c 132,-1,2
 492 15 492 15 474 -3 c 5,0,0
 408 -1 408 -1 363 -1 c 4,0,0
 324 0 324 0 245 0 c 6,0,0
 127 0 l 6,0,0
 74 0 74 0 8 -3 c 5,0,0
 2 1 2 1 2 9.5 c 132,-1,2
 2 18 2 18 7 22 c 6,0,0
 42 25 l 6,0,0
 78 28 78 28 93 48 c 132,-1,2
 108 68 108 68 132 144 c 6,0,0
EndSplineSet
EndChar

StartChar: F
Encoding: 70 70 39
Width: 533
Flags: MW
HStem: -3 26.5 316 35<273 366 297 358> 629 31<374 388 388 443> 643 20G
VStem: 7 181 460.5 25.5
LayerCount: 2
Fore
SplineSet
133 144 m 2,0,0
 250 516 l 2,0,0
 273 586 273 586 270 606.5 c 0,1,2
 267 627 267 627 227 634 c 2,0,0
 209 638 l 1,0,0
 204 644 204 644 205.5 652 c 0,1,2
 207 660 207 660 215 663 c 0,0,0
 249 661 249 661 266 661 c 0,0,0
 283 660 283 660 323 660 c 2,0,0
 509 660 l 2,0,0
 621 660 621 660 650 663 c 1,0,0
 638 633 638 633 609 530 c 0,0,0
 606 524 606 524 596 524.5 c 0,1,2
 586 525 586 525 584 531 c 0,0,0
 591 569 591 569 585 590.5 c 0,1,2
 579 612 579 612 549 620 c 0,0,0
 514 629 514 629 443 629 c 2,0,0
 388 629 l 2,0,0
 368 629 368 629 362.5 624 c 0,1,2
 357 619 357 619 350 595 c 2,0,0
 281 376 l 2,0,0
 276 360 276 360 278.5 355.5 c 0,1,2
 281 351 281 351 297 351 c 2,0,0
 366 351 l 2,0,0
 437 351 437 351 462 360 c 0,1,2
 487 369 487 369 503 400 c 2,0,0
 520 431 l 2,0,0
 524 436 524 436 534.5 435 c 0,1,2
 545 434 545 434 546 429 c 0,0,0
 527 380 527 380 512 334 c 0,0,0
 492 273 492 273 486 234 c 1,0,0
 481 229 481 229 473 229 c 0,1,2
 465 229 465 229 460 234 c 1,0,0
 461 272 l 2,0,0
 462 297 462 297 440.5 306.5 c 0,1,2
 419 316 419 316 358 316 c 2,0,0
 284 316 l 2,0,0
 268 316 268 316 263 311.5 c 0,1,2
 258 307 258 307 252 288 c 2,0,0
 208 144 l 2,0,0
 185 74 185 74 187.5 51 c 0,1,2
 190 28 190 28 227 25 c 2,0,0
 266 22 l 1,0,0
 270 17 270 17 268.5 8.5 c 0,1,2
 267 0 267 0 262 -3 c 0,0,0
 175 0 175 0 126 0 c 0,0,0
 72 0 72 0 13 -3 c 1,0,0
 7 1 7 1 7 9.5 c 0,1,2
 7 18 7 18 12 22 c 2,0,0
 43 25 l 2,0,0
 79 29 79 29 94 48.5 c 0,1,2
 109 68 109 68 133 144 c 2,0,0
EndSplineSet
EndChar

StartChar: G
Encoding: 71 71 40
Width: 703
Flags: MW
HStem: -16 31<337 409.5> 269.5 27.5 645 31<523.5 629.5>
VStem: 101 88<162.5 280 143.5 292.5> 559 152
LayerCount: 2
Fore
SplineSet
-348 837 m 1054,0,-1
518 90 m 6,1,-1
 544 172 l 6,2,3
 563 227 563 227 557.5 244.5 c 132,-1,4
 552 262 552 262 508 267 c 6,5,-1
 469 272 l 6,6,7
 464 276 464 276 464.5 285 c 132,-1,8
 465 294 465 294 471 297 c 4,9,10
 537 294 537 294 591 294 c 4,11,12
 669 294 669 294 705 297 c 4,13,14
 710 294 710 294 710 285 c 132,-1,15
 710 276 710 276 704 272 c 6,16,-1
 687 267 l 6,17,18
 658 259 658 259 648 245 c 132,-1,19
 638 231 638 231 620 172 c 6,20,-1
 589 73 l 6,21,22
 582 52 582 52 597 43 c 5,23,24
 599 35 599 35 593 29 c 4,25,26
 464 -16 464 -16 383 -16 c 4,27,28
 250 -16 250 -16 175.5 53 c 132,-1,29
 101 122 101 122 101 244 c 4,30,31
 101 323 101 323 136.5 405 c 132,-1,32
 172 487 172 487 245 551 c 4,33,34
 388 676 388 676 593 676 c 4,35,36
 690 676 690 676 764 644 c 5,37,38
 736 584 736 584 717 511 c 4,39,40
 714 505 714 505 704 505.5 c 132,-1,41
 694 506 694 506 692 512 c 4,42,43
 706 581 706 581 679.5 613 c 132,-1,44
 653 645 653 645 581 645 c 4,45,46
 433 645 433 645 319 538 c 4,47,48
 264 487 264 487 226.5 397 c 132,-1,49
 189 307 189 307 189 223 c 4,50,51
 189 113 189 113 245.5 64 c 132,-1,52
 302 15 302 15 387 15 c 4,53,54
 444 15 444 15 473.5 29.5 c 132,-1,55
 503 44 503 44 518 90 c 6,1,-1
EndSplineSet
EndChar

StartChar: H
Encoding: 72 72 41
Width: 761
Flags: MW
HStem: -3 26.5 323 40<279 577 313 567> 636 27
VStem: 15 172 270 177 428 182 691 178
LayerCount: 2
Fore
SplineSet
313 363 m 6,0,0
 577 363 l 6,0,0
 611 363 611 363 618 366 c 132,-1,2
 625 369 625 369 630 385 c 6,0,0
 671 516 l 6,0,0
 681 549 681 549 685 564.5 c 132,-1,2
 689 580 689 580 691 595.5 c 132,-1,4
 693 611 693 611 688 617 c 132,-1,6
 683 623 683 623 674.5 627 c 132,-1,8
 666 631 666 631 649 634 c 6,0,0
 624 638 l 5,0,0
 620 643 620 643 621.5 651.5 c 132,-1,2
 623 660 623 660 630 663 c 4,0,0
 692 660 692 660 747 660 c 4,0,0
 797 660 797 660 863 663 c 4,0,0
 869 660 869 660 869 651.5 c 132,-1,2
 869 643 869 643 863 638 c 6,0,0
 839 634 l 6,0,0
 797 627 797 627 783.5 609 c 132,-1,2
 770 591 770 591 746 516 c 6,0,0
 630 144 l 6,0,0
 607 74 607 74 609.5 51.5 c 132,-1,2
 612 29 612 29 649 25 c 6,0,0
 676 22 l 5,0,0
 686 5 686 5 672 -3 c 5,0,0
 602 0 602 0 550 0 c 4,0,0
 496 0 496 0 434 -3 c 5,0,0
 428 1 428 1 428 9 c 132,-1,2
 428 17 428 17 433 22 c 5,0,0
 465 25 l 6,0,0
 500 29 500 29 515 48.5 c 132,-1,2
 530 68 530 68 555 144 c 6,0,0
 603 296 l 6,0,0
 610 316 610 316 604.5 319.5 c 132,-1,2
 599 323 599 323 567 323 c 6,0,0
 295 323 l 6,0,0
 272 323 272 323 267.5 319.5 c 132,-1,2
 263 316 263 316 257 299 c 6,0,0
 208 144 l 6,0,0
 184 74 184 74 187 51.5 c 132,-1,2
 190 29 190 29 227 25 c 6,0,0
 258 22 l 5,0,0
 262 16 262 16 260.5 8 c 132,-1,2
 259 0 259 0 254 -3 c 4,0,0
 180 0 180 0 128 0 c 4,0,0
 69 0 69 0 21 -3 c 5,0,0
 15 1 15 1 15 9 c 132,-1,2
 15 17 15 17 20 22 c 5,0,0
 43 25 l 6,0,0
 79 30 79 30 94 49 c 132,-1,2
 109 68 109 68 133 144 c 6,0,0
 250 516 l 6,0,0
 274 586 274 586 270.5 607 c 132,-1,2
 267 628 267 628 227 634 c 6,0,0
 203 638 l 5,0,0
 191 656 191 656 209 663 c 5,0,0
 269 660 269 660 325 660 c 4,0,0
 378 660 378 660 441 663 c 4,0,0
 447 660 447 660 447 652 c 132,-1,2
 447 644 447 644 441 638 c 5,0,0
 418 634 l 6,0,0
 376 627 376 627 363 609.5 c 132,-1,2
 350 592 350 592 325 516 c 6,0,0
 284 387 l 6,0,0
 278 370 278 370 282 366.5 c 132,-1,2
 286 363 286 363 313 363 c 6,0,0
EndSplineSet
EndChar

StartChar: I
Encoding: 73 73 42
Width: 341
Flags: MW
HStem: -3 26.5 636 27
VStem: 7 180 270 181
LayerCount: 2
Fore
SplineSet
133 144 m 2,0,0
 250 516 l 2,0,0
 274 586 274 586 270.5 607 c 0,1,2
 267 628 267 628 227 634 c 2,0,0
 203 638 l 1,0,0
 198 644 198 644 199.5 652 c 0,1,2
 201 660 201 660 209 663 c 0,0,0
 269 660 269 660 325 660 c 0,0,0
 373 660 373 660 445 663 c 0,0,0
 451 660 451 660 451 651 c 0,1,2
 451 642 451 642 445 638 c 2,0,0
 418 634 l 2,0,0
 376 628 376 628 362.5 610.5 c 0,1,2
 349 593 349 593 325 516 c 2,0,0
 208 144 l 2,0,0
 184 74 184 74 187 51.5 c 0,1,2
 190 29 190 29 227 25 c 2,0,0
 258 22 l 1,0,0
 262 17 262 17 260.5 8.5 c 0,1,2
 259 0 259 0 254 -3 c 0,0,0
 180 0 180 0 128 0 c 0,0,0
 73 0 73 0 13 -3 c 1,0,0
 7 1 7 1 7 9.5 c 0,1,2
 7 18 7 18 12 22 c 2,0,0
 43 25 l 2,0,0
 79 29 79 29 94 48.5 c 0,1,2
 109 68 109 68 133 144 c 2,0,0
EndSplineSet
EndChar

StartChar: J
Encoding: 74 74 43
Width: 340
Flags: MW
HStem: -201 43<-68 21.5> 637 26
VStem: 279 174
LayerCount: 2
Fore
SplineSet
139 125 m 2,0,0
 260 516 l 2,0,0
 272 557 272 557 276 574 c 0,1,2
 280 591 280 591 278.5 606.5 c 0,3,4
 277 622 277 622 267.5 626.5 c 0,5,6
 258 631 258 631 237 635 c 2,0,0
 212 639 l 1,0,0
 207 645 207 645 208.5 652.5 c 0,1,2
 210 660 210 660 218 663 c 0,0,0
 279 660 279 660 335 660 c 0,0,0
 387 660 387 660 447 663 c 0,0,0
 453 660 453 660 453 651.5 c 0,1,2
 453 643 453 643 447 639 c 2,0,0
 420 635 l 2,0,0
 384 630 384 630 371 611 c 0,1,2
 358 592 358 592 335 516 c 2,0,0
 193 59 l 2,0,0
 165 -30 165 -30 130 -90 c 0,0,0
 64 -201 64 -201 -53 -201 c 0,0,0
 -116 -201 -116 -201 -116 -172 c 0,0,0
 -116 -159 -116 -159 -104 -144 c 0,1,2
 -92 -129 -92 -129 -77 -129 c 0,0,0
 -64 -129 -64 -129 -40 -143 c 0,0,0
 -14 -158 -14 -158 8 -158 c 0,0,0
 40 -158 40 -158 73 -71 c 0,0,0
 96 -14 96 -14 139 125 c 2,0,0
EndSplineSet
EndChar

StartChar: K
Encoding: 75 75 44
Width: 623
Flags: MW
HStem: -3 26.5 330 26<289 294.5> 636 27
VStem: 7 181 271 177 450 172
LayerCount: 2
Fore
SplineSet
133 144 m 2,0,0
 250 516 l 2,0,0
 263 555 263 555 267.5 573.5 c 0,1,2
 272 592 272 592 271 606.5 c 0,3,4
 270 621 270 621 261 626 c 0,5,6
 252 631 252 631 233 634 c 2,0,0
 210 638 l 1,0,0
 205 644 205 644 206.5 652 c 0,1,2
 208 660 208 660 216 663 c 0,0,0
 264 660 264 660 324 660 c 0,0,0
 376 660 376 660 443 663 c 0,0,0
 449 660 449 660 448.5 651 c 0,1,2
 448 642 448 642 440 638 c 2,0,0
 420 634 l 2,0,0
 377 627 377 627 363.5 609.5 c 0,1,2
 350 592 350 592 325 516 c 2,0,0
 283 384 l 2,0,0
 277 368 277 368 280.5 362 c 0,1,2
 284 356 284 356 301 356 c 0,0,0
 324 356 324 356 344 366 c 0,0,0
 378 386 378 386 449 453 c 2,0,0
 549 548 l 2,0,0
 614 611 614 611 614 622 c 0,0,0
 614 630 614 630 590 634 c 2,0,0
 571 638 l 2,0,0
 566 642 566 642 567 651.5 c 0,1,2
 568 661 568 661 575 663 c 0,0,0
 625 660 625 660 685 660 c 0,0,0
 706 660 706 660 793 663 c 1,0,0
 800 659 800 659 799.5 650 c 0,1,2
 799 641 799 641 792 638 c 2,0,0
 771 634 l 2,0,0
 731 627 731 627 704 616 c 0,0,0
 651 594 651 594 527 482 c 2,0,0
 399 365 l 2,0,0
 386 353 386 353 384.5 348.5 c 0,1,2
 383 344 383 344 391 327 c 2,0,0
 501 107 l 2,0,0
 523 63 523 63 540.5 46 c 0,1,2
 558 29 558 29 592 25 c 2,0,0
 618 22 l 1,0,0
 623 17 623 17 622 8 c 0,1,2
 621 -1 621 -1 615 -3 c 0,0,0
 567 0 567 0 509 0 c 0,0,0
 453 0 453 0 396 -3 c 1,0,0
 387 16 387 16 399 22 c 1,0,0
 425 25 l 2,0,0
 442 27 442 27 447 32.5 c 0,1,2
 452 38 452 38 449 47 c 0,3,4
 446 56 446 56 435 79 c 2,0,0
 330 285 l 2,0,0
 307 330 307 330 290 330 c 0,0,0
 266 330 266 330 257 302 c 2,0,0
 208 144 l 2,0,0
 185 74 185 74 187.5 51.5 c 0,1,2
 190 29 190 29 227 25 c 2,0,0
 255 22 l 1,0,0
 259 17 259 17 257.5 8.5 c 0,1,2
 256 0 256 0 251 -3 c 0,0,0
 182 0 182 0 127 0 c 0,0,0
 73 0 73 0 13 -3 c 1,0,0
 7 1 7 1 7 9.5 c 0,1,2
 7 18 7 18 12 22 c 2,0,0
 43 25 l 2,0,0
 79 29 79 29 94 48.5 c 0,1,2
 109 68 109 68 133 144 c 2,0,0
EndSplineSet
EndChar

StartChar: L
Encoding: 76 76 45
Width: 546
Flags: MW
HStem: -1 21G<355 375> 0 23.5 0 31<234 241> 636 27
VStem: 13 179 269 185
LayerCount: 2
Fore
SplineSet
324 516 m 2,0,-1
 214 162 l 2,1,2
 206 136 206 136 202.5 124.5 c 128,-1,3
 199 113 199 113 195 95.5 c 128,-1,4
 191 78 191 78 192 71.5 c 128,-1,5
 193 65 193 65 196 55.5 c 128,-1,6
 199 46 199 46 206.5 43 c 128,-1,7
 214 40 214 40 226.5 36.5 c 128,-1,8
 239 33 239 33 255 32 c 128,-1,9
 271 31 271 31 295 31 c 0,10,11
 389 31 389 31 430 48 c 128,-1,12
 471 65 471 65 514 135 c 1,13,14
 533 141 533 141 536 129 c 1,15,16
 528 104 528 104 507 61 c 128,-1,17
 486 18 486 18 472 -3 c 1,18,19
 398 -1 398 -1 355 -1 c 0,20,21
 315 0 315 0 241 0 c 2,22,-1
 125 0 l 2,23,24
 108.60025 0 108.60025 0 93 -0.239850000059 c 4,25,26
 53.4277931034 -0.84826293104 53.4277931034 -0.84826293104 19 -3 c 1,27,28
 13 1 13 1 13 9.5 c 128,-1,29
 13 18 13 18 18 22 c 2,30,-1
 42 25 l 2,31,32
 79 30 79 30 93.5 49.5 c 128,-1,33
 108 69 108 69 132 144 c 2,34,-1
 249 516 l 2,35,36
 273 586 273 586 269.5 607 c 128,-1,37
 266 628 266 628 226 634 c 2,38,-1
 202 638 l 1,39,40
 197 644 197 644 198.5 652 c 128,-1,41
 200 660 200 660 208 663 c 0,42,43
 221 663 221 663 243.5 662 c 128,-1,44
 266 661 266 661 285 660.5 c 128,-1,45
 304 660 304 660 322 660 c 0,46,47
 346 660 346 660 387.5 661.5 c 128,-1,48
 429 663 429 663 448 663 c 0,49,50
 454 660 454 660 454 651 c 128,-1,51
 454 642 454 642 448 638 c 2,52,-1
 417 634 l 2,53,54
 375 629 375 629 361.5 611 c 128,-1,55
 348 593 348 593 324 516 c 2,0,-1
EndSplineSet
EndChar

StartChar: M
Encoding: 77 77 46
Width: 874
Flags: MW
HStem: -3 26.5 634.5 28.5
VStem: 286 100 355 81<156 224>
LayerCount: 2
Fore
SplineSet
192 339 m 1,0,0
 244 474 l 2,0,0
 286 586 286 586 286 608 c 0,0,0
 286 627 286 627 258 631 c 2,0,0
 211 638 l 2,0,0
 206 642 206 642 207.5 651 c 0,1,2
 209 660 209 660 216 663 c 0,0,0
 286 660 286 660 326 660 c 0,0,0
 361 660 361 660 393 663 c 1,0,0
 386 640 386 640 386 607.5 c 0,1,2
 386 575 386 575 388.5 549 c 0,3,4
 391 523 391 523 398 468 c 2,0,0
 414 339 l 2,0,0
 425 255 425 255 436 156 c 1,0,0
 438 156 l 1,0,0
 453 174 453 174 553 303 c 2,0,0
 712 508 l 2,0,0
 796 616 796 616 809 663 c 1,0,0
 834 660 834 660 871 660 c 0,0,0
 926 660 926 660 972 663 c 1,0,0
 977 659 977 659 976.5 651 c 0,1,2
 976 643 976 643 972 638 c 1,0,0
 949 634 l 2,0,0
 903 626 903 626 889 611 c 0,0,0
 873 593 873 593 843 487 c 2,0,0
 756 177 l 2,0,0
 729 81 729 81 727 52 c 0,0,0
 725 28 725 28 767 25 c 2,0,0
 801 22 l 1,0,0
 806 17 806 17 804.5 8.5 c 0,1,2
 803 0 803 0 797 -3 c 0,0,0
 742 0 742 0 669 0 c 0,0,0
 604 0 604 0 548 -3 c 1,0,0
 543 2 543 2 543 10.5 c 0,1,2
 543 19 543 19 548 22 c 2,0,0
 574 25 l 2,0,0
 614 30 614 30 629 44 c 0,0,0
 647 62 647 62 680 171 c 2,0,0
 760 433 l 2,0,0
 789 527 789 527 798 559 c 1,0,0
 795 560 l 1,0,0
 771 530 771 530 702 438 c 2,0,0
 550 241 l 2,0,0
 433 88 433 88 390 16 c 1,0,0
 380 9 380 9 371 20 c 1,0,0
 372 60 372 60 355 224 c 2,0,0
 321 560 l 1,0,0
 319 560 l 1,0,0
 305 529 305 529 273 441 c 2,0,0
 198 239 l 2,0,0
 138 74 138 74 138 52 c 0,0,0
 138 34 138 34 168 29 c 2,0,0
 211 22 l 1,0,0
 214 17 214 17 213 9 c 0,1,2
 212 1 212 1 208 -3 c 1,0,0
 166 0 166 0 93 0 c 0,0,0
 34 0 34 0 -14 -3 c 1,0,0
 -19 1 -19 1 -18.5 10.5 c 0,1,2
 -18 20 -18 20 -13 22 c 2,0,0
 14 25 l 2,0,0
 54 29 54 29 71 52 c 0,0,0
 94 81 94 81 192 339 c 1,0,0
EndSplineSet
EndChar

StartChar: N
Encoding: 78 78 47
Width: 739
Flags: MW
HStem: -3 26.5 635 28 641 20G<244.5 253>
VStem: 1 867 197 173 713 155
LayerCount: 2
Fore
SplineSet
155 233 m 2,0,0
 234 489 l 2,0,0
 267 595 267 595 267 608 c 0,0,0
 267 625 267 625 241 630 c 2,0,0
 201 638 l 2,0,0
 195 643 195 643 196.5 652 c 0,1,2
 198 661 198 661 206 663 c 0,0,0
 236 661 236 661 253 661 c 0,0,0
 269 660 269 660 308 660 c 2,0,0
 370 660 l 1,0,0
 370 646 l 2,0,0
 370 623 370 623 419 501 c 2,0,0
 520 252 l 2,0,0
 561 154 561 154 569 139 c 1,0,0
 577 139 577 139 586 167 c 2,0,0
 665 418 l 2,0,0
 713 570 713 570 713 603 c 0,0,0
 713 618 713 618 708.5 624 c 0,1,2
 704 630 704 630 688 632 c 2,0,0
 649 638 l 1,0,0
 645 645 645 645 647 652.5 c 0,1,2
 649 660 649 660 655 663 c 0,0,0
 708 660 708 660 768 660 c 0,0,0
 820 660 820 660 863 663 c 0,0,0
 867 660 867 660 867.5 651.5 c 0,1,2
 868 643 868 643 864 638 c 1,0,0
 841 634 l 2,0,0
 800 627 800 627 789 616 c 0,0,0
 763 590 763 590 707 415 c 2,0,0
 635 191 l 2,0,0
 601 86 601 86 572 -15 c 1,0,0
 564 -23 564 -23 548 -21 c 1,0,0
 524 54 524 54 455 223 c 2,0,0
 376 415 l 2,0,0
 366 439 366 439 351.5 477 c 128,-1,2
 337 515 337 515 326.5 540 c 128,-1,4
 316 565 316 565 309 580 c 1,0,0
 304 580 304 580 277 492 c 2,0,0
 199 232 l 2,0,0
 188 197 188 197 157 66 c 0,0,0
 153 50 153 50 159.5 41.5 c 128,-1,2
 166 33 166 33 175.5 30 c 128,-1,4
 185 27 185 27 206 25 c 2,0,0
 229 22 l 1,0,0
 233 17 233 17 232 9 c 128,-1,2
 231 1 231 1 226 -3 c 1,0,0
 181 0 181 0 112 0 c 0,0,0
 54 0 54 0 7 -3 c 0,0,0
 2 0 2 0 1 8 c 128,-1,2
 -0 16 -0 16 5 22 c 1,0,0
 30 25 l 2,0,0
 59 27 59 27 79 42 c 0,0,0
 102 61 102 61 155 233 c 2,0,0
EndSplineSet
EndChar

StartChar: O
Encoding: 79 79 48
Width: 730
Flags: MW
HStem: -16 31<287 377.5 287 404.5> 645 31<470 552>
VStem: 102 84 659 84
LayerCount: 2
Fore
SplineSet
506 676 m 0,0,0
 611 676 611 676 680 605 c 0,1,2
 749 534 749 534 743 402 c 0,0,0
 739 317 739 317 702.5 232.5 c 0,1,2
 666 148 666 148 608 93 c 0,0,0
 493 -16 493 -16 346 -16 c 0,0,0
 226 -16 226 -16 163 62 c 0,1,2
 100 140 100 140 102 245 c 0,0,0
 105 342 105 342 145 431 c 0,1,2
 185 520 185 520 262 585 c 0,0,0
 369 676 369 676 506 676 c 0,0,0
502 645 m 0,0,0
 422 645 422 645 352 585 c 0,0,0
 290 533 290 533 240 430 c 0,1,2
 190 327 190 327 186 207 c 0,0,0
 183 126 183 126 222.5 70.5 c 0,1,2
 262 15 262 15 353 15 c 0,0,0
 445 15 445 15 520 95 c 0,0,0
 584 164 584 164 619.5 260.5 c 0,1,2
 655 357 655 357 659 446 c 0,0,0
 662 540 662 540 620 592.5 c 0,1,2
 578 645 578 645 502 645 c 0,0,0
EndSplineSet
EndChar

StartChar: P
Encoding: 80 80 49
Width: 552
Flags: MW
HStem: -3 26.5 286 21<343 371.5> 632 31<378 409.5 327 433.5>
VStem: 8 181 529 84<456.5 514 456.5 549.5>
LayerCount: 2
Fore
SplineSet
237 623 m 2,0,0
 189 627 l 1,0,0
 184 632 184 632 185 639 c 0,1,2
 186 646 186 646 192 651 c 0,0,0
 266 663 266 663 360 663 c 0,0,0
 499 663 499 663 558 614 c 0,0,0
 613 567 613 567 613 490 c 0,0,0
 613 397 613 397 528 337 c 0,0,0
 454 286 454 286 343 286 c 0,0,0
 337 288 337 288 336 295 c 0,1,2
 335 302 335 302 340 307 c 1,0,0
 371 311 371 311 401.5 323.5 c 0,1,2
 432 336 432 336 462 358.5 c 0,3,4
 492 381 492 381 510.5 419.5 c 0,5,6
 529 458 529 458 529 506 c 0,0,0
 529 569 529 569 492.5 600.5 c 0,1,2
 456 632 456 632 394 632 c 0,0,0
 371 632 371 632 364.5 626.5 c 0,1,2
 358 621 358 621 350 597 c 2,0,0
 209 144 l 2,0,0
 186 74 186 74 188.5 51 c 0,1,2
 191 28 191 28 228 25 c 2,0,0
 264 22 l 1,0,0
 268 17 268 17 266.5 8.5 c 0,1,2
 265 0 265 0 260 -3 c 0,0,0
 188 0 188 0 129 0 c 0,0,0
 74 0 74 0 14 -3 c 1,0,0
 8 1 8 1 8 9.5 c 0,1,2
 8 18 8 18 13 22 c 2,0,0
 44 25 l 2,0,0
 80 29 80 29 95 48.5 c 0,1,2
 110 68 110 68 134 144 c 2,0,0
 263 558 l 2,0,0
 275 594 275 594 269.5 607 c 0,1,2
 264 620 264 620 237 623 c 2,0,0
EndSplineSet
EndChar

StartChar: Q
Encoding: 81 81 50
Width: 730
Flags: MW
HStem: -219 33<627 754> 645 31<470 552>
VStem: 102 84 659 84
LayerCount: 2
Fore
SplineSet
506 676 m 0,0,0
 611 676 611 676 680 605 c 0,1,2
 749 534 749 534 743 402 c 0,0,0
 739 317 739 317 702.5 232.5 c 0,1,2
 666 148 666 148 608 93 c 0,0,0
 529 18 529 18 444 -2 c 0,0,0
 434 -8 434 -8 443 -17 c 0,0,0
 567 -141 567 -141 657 -173 c 0,0,0
 693 -186 693 -186 743 -186 c 0,0,0
 778 -186 778 -186 800 -176 c 1,0,0
 809 -181 809 -181 805 -191 c 1,0,0
 766 -219 766 -219 693 -219 c 0,0,0
 600 -219 600 -219 510.5 -166.5 c 0,1,2
 421 -114 421 -114 360 -37 c 0,0,0
 343 -15 343 -15 314 -14 c 0,0,0
 284 -12 284 -12 250 2 c 0,1,2
 216 16 216 16 181 43.5 c 0,3,4
 146 71 146 71 123.5 124 c 0,5,6
 101 177 101 177 102 245 c 0,0,0
 105 342 105 342 145 431 c 0,1,2
 185 520 185 520 262 585 c 0,0,0
 369 676 369 676 506 676 c 0,0,0
502 645 m 0,0,0
 422 645 422 645 352 585 c 0,0,0
 290 533 290 533 240 430 c 0,1,2
 190 327 190 327 186 207 c 0,0,0
 183 126 183 126 222.5 70.5 c 0,1,2
 262 15 262 15 353 15 c 0,0,0
 445 15 445 15 520 95 c 0,0,0
 584 164 584 164 619.5 260.5 c 0,1,2
 655 357 655 357 659 446 c 0,0,0
 662 540 662 540 620 592.5 c 0,1,2
 578 645 578 645 502 645 c 0,0,0
EndSplineSet
EndChar

StartChar: R
Encoding: 82 82 51
Width: 574
Flags: MW
HStem: -3 26.5 300 29<293.5 328> 632 31<379.5 425 349 442>
VStem: 15 171 530 82
LayerCount: 2
Fore
SplineSet
132 144 m 6,0,0
 249 518 l 6,0,0
 264 566 264 566 267 588 c 132,-1,2
 270 610 270 610 264 617.5 c 132,-1,4
 258 625 258 625 240 626 c 6,0,0
 202 630 l 5,0,0
 198 636 198 636 199.5 644 c 132,-1,2
 201 652 201 652 207 655 c 4,0,0
 272 663 272 663 377 663 c 4,0,0
 509 663 509 663 566 611 c 4,0,0
 612 570 612 570 612 497 c 4,0,0
 612 427 612 427 558.5 379 c 132,-1,2
 505 331 505 331 440 320 c 4,0,0
 430 319 430 319 427.5 314 c 132,-1,2
 425 309 425 309 428 296 c 4,0,0
 449 207 449 207 478 123 c 4,0,0
 492 83 492 83 500 66 c 132,-1,2
 508 49 508 49 526.5 35.5 c 132,-1,4
 545 22 545 22 577 19 c 5,0,0
 586 14 586 14 577 0 c 5,0,0
 553 -3 553 -3 514 -3 c 132,-1,0
 475 -3 475 -3 454 9 c 132,-1,2
 433 21 433 21 421 56 c 4,0,0
 383 168 383 168 362 250 c 4,0,0
 353 284 353 284 344.5 292 c 132,-1,2
 336 300 336 300 312 300 c 4,0,0
 273 300 273 300 263 295 c 132,-1,2
 253 290 253 290 246 268 c 6,0,0
 207 144 l 6,0,0
 195 105 195 105 190 86.5 c 132,-1,2
 185 68 185 68 186.5 53 c 132,-1,4
 188 38 188 38 197.5 33 c 132,-1,6
 207 28 207 28 227 25 c 6,0,0
 251 22 l 5,0,0
 255 17 255 17 253.5 8.5 c 132,-1,2
 252 0 252 0 247 -3 c 4,0,0
 184 0 184 0 127 0 c 4,0,0
 68 0 68 0 21 -3 c 5,0,0
 15 1 15 1 15 9.5 c 132,-1,2
 15 18 15 18 20 22 c 6,0,0
 42 25 l 6,0,0
 78 30 78 30 93 49 c 132,-1,2
 108 68 108 68 132 144 c 6,0,0
349 600 m 6,0,0
 279 371 l 6,0,0
 271 340 271 340 276 334.5 c 132,-1,2
 281 329 281 329 319 329 c 4,0,0
 401 329 401 329 465 380 c 132,-1,2
 529 431 529 431 530 510 c 4,0,0
 532 568 532 568 498 600 c 132,-1,2
 464 632 464 632 399 632 c 4,0,0
 371 632 371 632 363 626.5 c 132,-1,2
 355 621 355 621 349 600 c 6,0,0
EndSplineSet
EndChar

StartChar: S
Encoding: 83 83 52
Width: 471
Flags: MW
HStem: -16 31<175 255 173 280.5> 616 20G 645 31<325.5 415.5>
VStem: 165 71<483.5 541.5> 369 72<131.5 193>
LayerCount: 2
Fore
SplineSet
211 -16 m 4,0,0
 86 -16 86 -16 36 54 c 5,0,0
 31 116 31 116 54 170 c 5,0,0
 66 180 66 180 75 168 c 5,0,0
 87 15 87 15 223 15 c 4,0,0
 279 15 279 15 324 51 c 132,-1,2
 369 87 369 87 369 156 c 4,0,0
 369 206 369 206 344 240 c 132,-1,2
 319 274 319 274 269 313 c 4,0,0
 165 397 165 397 165 487 c 4,0,0
 165 570 165 570 225 623 c 132,-1,2
 285 676 285 676 384 676 c 4,0,0
 428 676 428 676 468 663 c 132,-1,2
 508 650 508 650 529 636 c 5,0,0
 521 622 521 622 492 520 c 4,0,0
 487 516 487 516 478.5 516 c 132,-1,2
 470 516 470 516 465 521 c 5,0,0
 476 577 476 577 455 611 c 132,-1,2
 434 645 434 645 371 645 c 4,0,0
 306 645 306 645 271 608.5 c 132,-1,2
 236 572 236 572 236 517 c 4,0,0
 236 448 236 448 333 373 c 4,0,0
 385 333 385 333 413 290.5 c 132,-1,2
 441 248 441 248 441 191 c 4,0,0
 441 101 441 101 377.5 42.5 c 132,-1,2
 314 -16 314 -16 211 -16 c 4,0,0
EndSplineSet
EndChar

StartChar: T
Encoding: 84 84 53
Width: 634
Flags: MW
HStem: -3 26.5 629 31<306 334 334 400 526 542 542 603>
VStem: 149 188 698 23<536 536>
LayerCount: 2
Fore
SplineSet
306 660 m 6,0,0
 676 660 l 6,0,0
 715 660 715 660 730.5 664 c 132,-1,2
 746 668 746 668 761 683 c 5,0,0
 774 688 774 688 778 678 c 5,0,0
 764 654 764 654 745 606 c 132,-1,2
 726 558 726 558 721 536 c 4,0,0
 718 531 718 531 710 531 c 132,-1,2
 702 531 702 531 698 536 c 5,0,0
 702 598 702 598 687.5 613.5 c 132,-1,2
 673 629 673 629 603 629 c 6,0,0
 542 629 l 6,0,0
 518 629 518 629 511.5 623 c 132,-1,2
 505 617 505 617 496 585 c 6,0,0
 358 144 l 6,0,0
 335 74 335 74 337.5 51 c 132,-1,2
 340 28 340 28 376 25 c 6,0,0
 413 22 l 5,0,0
 419 17 419 17 418 8.5 c 132,-1,2
 417 -0 417 -0 409 -3 c 4,0,0
 328 0 328 0 277 0 c 4,0,0
 225 0 225 0 155 -3 c 5,0,0
 149 1 149 1 149 9.5 c 132,-1,2
 149 18 149 18 154 22 c 6,0,0
 193 25 l 6,0,0
 227 27 227 27 243.5 48 c 132,-1,2
 260 69 260 69 283 144 c 6,0,0
 421 585 l 6,0,0
 431 618 431 618 428 623.5 c 132,-1,2
 425 629 425 629 400 629 c 6,0,0
 334 629 l 6,0,0
 264 629 264 629 235 611.5 c 132,-1,2
 206 594 206 594 166 539 c 4,0,0
 159 536 159 536 152 539 c 132,-1,2
 145 542 145 542 143 549 c 5,0,0
 188 620 188 620 215 683 c 4,0,0
 218 687 218 687 224.5 687 c 132,-1,2
 231 687 231 687 234 683 c 4,0,0
 232 669 232 669 246.5 664.5 c 132,-1,2
 261 660 261 660 306 660 c 6,0,0
EndSplineSet
EndChar

StartChar: U
Encoding: 85 85 54
Width: 734
Flags: MW
HStem: -16 36<288.5 384.5> 637 26
VStem: 140 76 257 182 707 155
LayerCount: 2
Fore
SplineSet
159 266 m 2,0,0
 237 516 l 2,0,0
 253 568 253 568 256 588.5 c 0,1,2
 259 609 259 609 250.5 619.5 c 0,3,4
 242 630 242 630 214 635 c 2,0,0
 189 639 l 2,0,0
 184 643 184 643 185 651.5 c 0,1,2
 186 660 186 660 193 663 c 0,0,0
 256 660 256 660 310 660 c 0,0,0
 360 660 360 660 433 663 c 0,0,0
 438 660 438 660 438 651.5 c 0,1,2
 438 643 438 643 432 639 c 2,0,0
 404 635 l 2,0,0
 362 629 362 629 348.5 610.5 c 0,1,2
 335 592 335 592 312 516 c 2,0,0
 240 285 l 2,0,0
 156 20 156 20 370 20 c 0,0,0
 539 20 539 20 617 268 c 2,0,0
 663 409 l 2,0,0
 695 512 695 512 703 564 c 0,0,0
 711 597 711 597 705 613.5 c 0,1,2
 699 630 699 630 665 635 c 2,0,0
 637 639 l 1,0,0
 632 644 632 644 633.5 652 c 0,1,2
 635 660 635 660 641 663 c 0,0,0
 714 660 714 660 748 660 c 0,0,0
 797.5 660 797.5 660 856 663 c 1,0,0
 862 659 862 659 862 651 c 0,1,2
 862 643 862 643 856 639 c 2,0,0
 833 635 l 2,0,0
 797 629 797 629 783.5 615.5 c 0,1,2
 770 602 770 602 754 561 c 0,0,0
 750 551 750 551 743 528.5 c 0,1,2
 736 506 736 506 724.5 469.5 c 0,3,4
 713 433 713 433 705 409 c 2,0,0
 659 262 l 2,0,0
 612 114 612 114 542 53 c 0,0,0
 464 -16 464 -16 353 -16 c 0,0,0
 216 -16 216 -16 166 56 c 0,1,2
 116 128 116 128 159 266 c 2,0,0
EndSplineSet
EndChar

StartChar: V
Encoding: 86 86 55
Width: 622
Flags: MW
HStem: -13 21G 637 26
VStem: 131 146 645 154
LayerCount: 2
Fore
SplineSet
249 95 m 2,0,0
 208 524 l 2,0,0
 202 590 202 590 193.5 610.5 c 0,1,2
 185 631 185 631 160 635 c 2,0,0
 135 639 l 1,0,0
 130 645 130 645 131.5 652.5 c 0,1,2
 133 660 133 660 140 663 c 0,0,0
 186 660 186 660 237 660 c 0,0,0
 298 660 298 660 346 663 c 0,0,0
 353 660 353 660 353 651.5 c 0,1,2
 353 643 353 643 347 639 c 2,0,0
 319 635 l 2,0,0
 287 630 287 630 280 618.5 c 0,1,2
 273 607 273 607 277 562 c 2,0,0
 312 186 l 2,0,0
 318 129 318 129 322 126 c 1,0,0
 330 129 330 129 367 185 c 2,0,0
 481 355 l 2,0,0
 604 537 604 537 629 579 c 0,0,0
 641 598 641 598 644 609 c 0,1,2
 647 620 647 620 642.5 625.5 c 0,3,4
 638 631 638 631 626 633 c 2,0,0
 589 639 l 2,0,0
 584 643 584 643 585 652 c 0,1,2
 586 661 586 661 592 663 c 0,0,0
 651 660 651 660 704 660 c 0,0,0
 754 660 754 660 793 663 c 0,0,0
 798 660 798 660 798 652 c 0,1,2
 798 644 798 644 795 639 c 1,0,0
 766 635 l 2,0,0
 733 631 733 631 707 601 c 0,0,0
 662 552 662 552 537 372 c 2,0,0
 452 248 l 2,0,0
 422 204 422 204 356 103 c 0,1,2
 290 2 290 2 281 -13 c 0,0,0
 276.5 -16 276.5 -16 269 -16 c 0,0,0
 262 -16 262 -16 256 -13 c 1,0,0
 255 25 255 25 249 95 c 2,0,0
EndSplineSet
EndChar

StartChar: W
Encoding: 87 87 56
Width: 878
Flags: MW
HStem: -13 21G 373 20G<546 546> 637 26
VStem: 125 143 378 143 485 73<329 347> 640 186 916 137
LayerCount: 2
Fore
SplineSet
254 171 m 1,0,0
 197 565 l 2,0,0
 190.187701598 610.739717842 190.187701598 610.739717842 182.886676385 619.675233236 c 0,1,2
 174.227760488 630.2726321 174.227760488 630.2726321 150 635 c 2,0,0
 129 639 l 2,0,0
 124 643 124 643 124.5 651.5 c 0,1,2
 125 660 125 660 132 663 c 0,0,0
 180 660 180 660 229 660 c 0,0,0
 281 660 281 660 332 663 c 0,0,0
 337 661 337 661 337.5 651.5 c 0,1,2
 338 642 338 642 333 639 c 2,0,0
 296 635 l 2,0,0
 276 633 276 633 270 620.5 c 0,1,2
 264 608 264 608 268 578 c 2,0,0
 322 200 l 2,0,0
 332 119 332 119 338 116 c 1,0,0
 346 121 346 121 402 199 c 2,0,0
 469 291 l 2,0,0
 481 306 481 306 484.5 317 c 0,1,2
 488 328 488 328 485 347 c 2,0,0
 451 575 l 2,0,0
 446 608 446 608 437 619.5 c 0,1,2
 428 631 428 631 405 635 c 2,0,0
 382 639 l 2,0,0
 377 643 377 643 378 652 c 0,1,2
 379 661 379 661 386 663 c 0,0,0
 427 660 427 660 484 660 c 0,0,0
 548 660 548 660 582 663 c 0,0,0
 587 661 587 661 587 652 c 0,1,2
 587 643 587 643 582 639 c 2,0,0
 549 635 l 2,0,0
 529 633 529 633 523 622.5 c 0,1,2
 517 612 517 612 521 582 c 2,0,0
 546 393 l 1,0,0
 564 420 l 1,0,0
 598 470 l 2,0,0
 681 596 681 596 690 612 c 0,0,0
 700 629 700 629 669 635 c 2,0,0
 644 639 l 2,0,0
 639 643 639 643 640 652 c 0,1,2
 641 661 641 661 648 663 c 0,0,0
 693 660 693 660 737 660 c 0,0,0
 790 660 790 660 821 663 c 0,0,0
 826 660 826 660 826 651.5 c 0,1,2
 826 643 826 643 821 639 c 2,0,0
 802 635 l 2,0,0
 771 628 771 628 757 617 c 0,1,2
 743 606 743 606 709 564 c 0,0,0
 644 482 644 482 573 375 c 0,0,0
 571 373 571 373 567 367.5 c 0,1,2
 563 362 563 362 562 360.5 c 0,3,4
 561 359 561 359 559 355 c 0,5,6
 557 351 557 351 557 348 c 0,7,8
 557 345 557 345 557 340 c 0,9,10
 557 335 557 335 558 329 c 2,0,0
 577 200 l 2,0,0
 589 121 589 121 594 116 c 1,0,0
 601 119 601 119 644 185 c 0,0,0
 841 484 841 484 881 554 c 0,0,0
 915.778284244 614.6597981 915.778284244 614.6597981 916.060096982 621.360525439 c 0,1,2
 916.396584277 629.361262518 916.396584277 629.361262518 895.789681284 633.777646708 c 0,3,4
 894.873183716 633.974066586 894.873183716 633.974066586 890 635 c 2,0,0
 870 639 l 2,0,0
 865 643 865 643 866 651.5 c 0,1,2
 867 660 867 660 873 663 c 0,0,0
 922 660 922 660 964 660 c 0,0,0
 1016.5 660 1016.5 660 1048 663 c 0,0,0
 1053 661 1053 661 1053 651.5 c 0,1,2
 1053 642 1053 642 1048 639 c 2,0,0
 1025 635 l 2,0,0
 1011 633 1011 633 997.5 625 c 0,1,2
 984 617 984 617 970.5 601.5 c 0,3,4
 957 586 957 586 950 577 c 0,5,6
 943 568 943 568 929 546.5 c 0,7,8
 915 525 915 525 913 522 c 2,0,0
 758 294 l 2,0,0
 696 202 696 202 558 -13 c 0,0,0
 553.5 -16 553.5 -16 546 -16 c 0,0,0
 538 -16 538 -16 534 -13 c 0,0,0
 531 24 531 24 525.5 65 c 0,1,2
 520 106 520 106 512 157.5 c 0,3,4
 504 209 504 209 501 234 c 2,0,0
 495 271 l 1,0,0
 361 80 l 2,0,0
 321 22 321 22 301 -13 c 0,0,0
 296.5 -16 296.5 -16 289 -16 c 0,0,0
 282 -16 282 -16 276 -13 c 1,0,0
 273 27 273 27 254 171 c 1,0,0
EndSplineSet
EndChar

StartChar: X
Encoding: 88 88 57
Width: 576
Flags: MW
HStem: -3 26.5 636 27
VStem: -46 163 137 151 310 73 412 166 571 149
LayerCount: 2
Fore
SplineSet
-42 22 m 1,0,0
 -19 25 l 2,0,0
 21 30 21 30 50.5 51 c 0,1,2
 80 72 80 72 135 132 c 0,0,0
 143 141 143 141 198.5 199.5 c 0,1,2
 254 258 254 258 299 308 c 0,0,0
 314 325 314 325 307 342 c 0,0,0
 295 373 295 373 264.5 456.5 c 0,1,2
 234 540 234 540 220 576 c 0,0,0
 208 607 208 607 197.5 618.5 c 0,1,2
 187 630 187 630 162 634 c 2,0,0
 140 638 l 1,0,0
 135 643 135 643 137 652 c 0,1,2
 139 661 139 661 145 663 c 0,0,0
 213 660 213 660 252 660 c 0,0,0
 315 660 315 660 354 663 c 1,0,0
 359 659 359 659 359 650.5 c 0,1,2
 359 642 359 642 354 638 c 2,0,0
 327 634 l 2,0,0
 296 629 296 629 290 620 c 0,1,2
 284 611 284 611 293 586 c 0,0,0
 356 410 356 410 366 383 c 1,0,0
 437 455 437 455 551 590 c 0,0,0
 571 612 571 612 571 621.5 c 0,1,2
 571 631 571 631 548 634 c 2,0,0
 519 638 l 1,0,0
 514 643 514 643 515 651 c 0,1,2
 516 659 516 659 523 663 c 1,0,0
 568 660 568 660 623 660 c 0,0,0
 668 660 668 660 714 663 c 0,0,0
 720 660 720 660 719.5 651 c 0,1,2
 719 642 719 642 713 638 c 2,0,0
 689 634 l 2,0,0
 661 629 661 629 631 603 c 0,0,0
 609 584 609 584 587 563.5 c 0,1,2
 565 543 565 543 539 516.5 c 0,3,4
 513 490 513 490 497 473 c 0,5,6
 481 456 481 456 447 420 c 0,7,8
 413 384 413 384 398 368 c 0,0,0
 385 355 385 355 383 349 c 0,1,2
 381 343 381 343 387 327 c 0,0,0
 406 276 406 276 441.5 188 c 0,1,2
 477 100 477 100 487 75 c 0,0,0
 506 28 506 28 537 25 c 2,0,0
 574 22 l 2,0,0
 579 19 579 19 578.5 9.5 c 0,1,2
 578 -0 578 -0 572 -3 c 0,0,0
 514 0 514 0 464 0 c 0,0,0
 403 0 403 0 352 -3 c 0,0,0
 346 -0 346 -0 345.5 9.5 c 0,1,2
 345 19 345 19 350 22 c 2,0,0
 372 25 l 2,0,0
 401 29 401 29 408 36.5 c 0,1,2
 415 44 415 44 407 73 c 0,0,0
 401 88 401 88 372 167.5 c 0,1,2
 343 247 343 247 327 288 c 1,0,0
 230 182 230 182 124 53 c 0,0,0
 107 33 107 33 131 29 c 2,0,0
 171 22 l 2,0,0
 176 18 176 18 175 8 c 0,1,2
 174 -2 174 -2 168 -3 c 0,0,0
 116 0 116 0 57 0 c 0,0,0
 -2 0 -2 0 -39 -3 c 0,0,0
 -45 -0 -45 -0 -46 9 c 0,1,2
 -47 18 -47 18 -42 22 c 1,0,0
EndSplineSet
EndChar

StartChar: Y
Encoding: 89 89 58
Width: 564
Flags: MW
HStem: -3 26.5 636 27
VStem: 146 150 289 19 540 7
LayerCount: 2
Fore
SplineSet
299 579 m 2,0,0
 350 344 l 2,0,0
 354 325 354 325 359.5 325 c 0,1,2
 365 325 365 325 380 343 c 2,0,0
 503 491 l 2,0,0
 599 603 599 603 599 617 c 0,0,0
 599 629 599 629 570 634 c 2,0,0
 545 638 l 2,0,0
 540 642 540 642 540.5 650.5 c 0,1,2
 541 659 541 659 547 663 c 1,0,0
 606 660 606 660 651 660 c 0,0,0
 692 660 692 660 741 663 c 0,0,0
 746 660 746 660 746 651 c 0,1,2
 746 642 746 642 741 638 c 2,0,0
 720 634 l 2,0,0
 680 626 680 626 664 611 c 0,0,0
 623 574 623 574 566 508 c 2,0,0
 452 374 l 2,0,0
 400 313 400 313 384 287.5 c 0,1,2
 368 262 368 262 349 204 c 2,0,0
 330 144 l 2,0,0
 305 69 305 69 308 48.5 c 0,1,2
 311 28 311 28 349 25 c 2,0,0
 385 22 l 2,0,0
 390 18 390 18 388.5 8.5 c 0,1,2
 387 -1 387 -1 382 -3 c 0,0,0
 298 0 298 0 248 0 c 0,0,0
 196 0 196 0 129 -3 c 1,0,0
 123 1 123 1 123 9.5 c 0,1,2
 123 18 123 18 128 22 c 2,0,0
 164 25 l 2,0,0
 199 28 199 28 213.5 47.5 c 0,1,2
 228 67 228 67 254 144 c 2,0,0
 274 203 l 2,0,0
 287 244 287 244 288.5 263 c 0,1,2
 290 282 290 282 281 331 c 2,0,0
 231 548 l 2,0,0
 219 598 219 598 209.5 614 c 0,1,2
 200 630 200 630 174 634 c 2,0,0
 149 638 l 1,0,0
 145 643 145 643 146 651.5 c 0,1,2
 147 660 147 660 152 663 c 0,0,0
 208 660 208 660 258 660 c 0,0,0
 317 660 317 660 365 663 c 1,0,0
 370 659 370 659 370 651 c 0,1,2
 370 643 370 643 365 638 c 1,0,0
 336 634 l 2,0,0
 308 630 308 630 300 619 c 0,1,2
 292 608 292 608 299 579 c 2,0,0
EndSplineSet
EndChar

StartChar: Z
Encoding: 90 90 59
Width: 601
Flags: MW
HStem: -1 21G<434 451> 0 31<220 308 308 330> 629 31<326 378 378 531> 643 20G 651 9
VStem: -19 727
LayerCount: 2
Fore
SplineSet
120 145 m 6,0,0
 559 602 l 5,0,0
 576.157858468 627.350278293 576.157858468 627.350278293 531 629 c 6,0,0
 378 629 l 6,0,0
 295 629 295 629 260.5 611.5 c 132,-1,2
 226 594 226 594 181 529 c 4,0,0
 174 525 174 525 166.5 528.5 c 132,-1,2
 159 532 159 532 158 541 c 5,0,0
 193 600 193 600 218 685 c 5,0,0
 224 691 224 691 230 685 c 5,0,0
 234 668 234 668 249.5 664 c 132,-1,2
 265 660 265 660 326 660 c 6,0,0
 593 660 l 6,0,0
 673 660 673 660 700 663 c 4,0,0
 710 662 710 662 708 651 c 5,0,0
 673 629 673 629 494 439 c 6,0,0
 265 201 l 6,0,0
 130 56 130 56 130 48 c 4,0,0
 130 31 130 31 220 31 c 6,0,0
 308 31 l 6,0,0
 452 31 452 31 494 53 c 4,0,0
 537 76 537 76 576 142 c 4,0,0
 581 145 581 145 587.5 142 c 132,-1,2
 594 139 594 139 596 134 c 4,0,0
 588 103 588 103 566 59.5 c 132,-1,2
 544 16 544 16 527 -3 c 5,0,0
 475 -1 475 -1 434 -1 c 4,0,0
 400 0 400 0 330 0 c 6,0,0
 96 0 l 6,0,0
 25 0 25 0 -14 -3 c 4,0,0
 -18 -2 -18 -2 -19 3.5 c 132,-1,2
 -20 9 -20 9 -18 13 c 4,0,0
 16 38 16 38 120 145 c 6,0,0
EndSplineSet
EndChar

StartChar: bracketleft
Encoding: 91 91 60
Width: 320
Flags: MW
HStem: -150 28.5 657.5 28.5
VStem: 40 425
LayerCount: 2
Fore
SplineSet
40 -150 m 1,0,0
 289 686 l 1,0,0
 354 686 l 2,0,0
 452 686 452 686 463 683 c 0,0,0
 466 679 466 679 465 672.5 c 0,1,2
 464 666 464 666 460 663 c 2,0,0
 367 652 l 2,0,0
 345 649 345 649 339 642 c 0,0,0
 318 618 318 618 279 486 c 2,0,0
 149 50 l 2,0,0
 108 -89 108 -89 114 -106 c 0,0,0
 116 -113 116 -113 137 -116 c 2,0,0
 223 -127 l 1,0,0
 227 -138 227 -138 218 -147 c 1,0,0
 205 -150 205 -150 105 -150 c 2,0,0
 40 -150 l 1,0,0
EndSplineSet
EndChar

StartChar: backslash
Encoding: 92 92 61
Width: 340
Flags: MW
HStem: -16 21G<251 308 251 251> 656 20G<60 117 117 117>
VStem: 60 248
LayerCount: 2
Fore
SplineSet
117 676 m 1,0,0
 308 -16 l 1,0,0
 251 -16 l 1,0,0
 60 676 l 1,0,0
 117 676 l 1,0,0
EndSplineSet
EndChar

StartChar: bracketright
Encoding: 93 93 62
Width: 320
Flags: MW
HStem: -150 28.5 657.5 28.5
VStem: -60 425
LayerCount: 2
Fore
SplineSet
365 686 m 1,0,0
 116 -150 l 1,0,0
 51 -150 l 2,0,0
 -47 -150 -47 -150 -58 -147 c 0,0,0
 -61 -143 -61 -143 -60 -136.5 c 0,1,2
 -59 -130 -59 -130 -55 -127 c 2,0,0
 38 -116 l 2,0,0
 60 -113 60 -113 66 -106 c 0,0,0
 87 -82 87 -82 126 50 c 2,0,0
 256 486 l 2,0,0
 297 625 297 625 291 642 c 0,0,0
 289 649 289 649 268 652 c 2,0,0
 182 663 l 1,0,0
 178 674 178 674 187 683 c 1,0,0
 200 686 200 686 300 686 c 2,0,0
 365 686 l 1,0,0
EndSplineSet
EndChar

StartChar: asciicircum
Encoding: 94 94 63
Width: 560
Flags: MW
HStem: 244 21G<117 180 117 117 456 518 456 456> 555 71<318 318> 606 20G<294 342 342 342>
VStem: 117 401<244 244>
LayerCount: 2
Fore
SplineSet
518 244 m 1,0,0
 456 244 l 1,0,0
 318 555 l 1,0,0
 180 244 l 1,0,0
 117 244 l 1,0,0
 294 626 l 1,0,0
 342 626 l 1,0,0
 518 244 l 1,0,0
EndSplineSet
EndChar

StartChar: underscore
Encoding: 95 95 64
Width: 500
Flags: MW
HStem: -125 50<0 500 0 500>
VStem: 0 500<-125 -75 -125 -75>
LayerCount: 2
Fore
SplineSet
500 -75 m 1,0,0
 500 -125 l 1,0,0
 0 -125 l 1,0,0
 0 -75 l 1,0,0
 500 -75 l 1,0,0
EndSplineSet
EndChar

StartChar: quoteleft
Encoding: 8216 8216 65
Width: 208
Flags: MW
HStem: 479 216
VStem: 162 64<566 591>
LayerCount: 2
Fore
SplineSet
231 479 m 0,0,0
 199 479 199 479 180.5 502.5 c 0,1,2
 162 526 162 526 162 556 c 0,0,0
 162 604 162 604 207.5 641.5 c 0,1,2
 253 679 253 679 309 695 c 1,0,0
 321 689 321 689 315 676 c 1,0,0
 226 634 226 634 226 575 c 0,0,0
 226 548 226 548 258 537 c 0,0,0
 273 531 273 531 273 516 c 0,0,0
 273 501 273 501 260.5 490 c 0,1,2
 248 479 248 479 231 479 c 0,0,0
EndSplineSet
EndChar

StartChar: a
Encoding: 97 97 66
Width: 444
Flags: MW
HStem: -14 21G<50 87.5 261.5 300.5> -14 53<50 123> -14 58<261.5 332.5> 356 38<287 335.5>
VStem: 20 83<52 53.5> 244 70
LayerCount: 2
Fore
SplineSet
374 367 m 1,0,0
 402 431 l 1,0,0
 415 437 415 437 430.5 431.5 c 0,1,2
 446 426 446 426 451 416 c 1,0,0
 366 206 366 206 317 67 c 0,0,0
 309 44 309 44 324 44 c 0,0,0
 351 44 351 44 427 111 c 1,0,0
 441 111 441 111 441 98 c 1,0,0
 407 53 407 53 359.5 19.5 c 0,1,2
 312 -14 312 -14 273 -14 c 0,0,0
 258 -14 258 -14 251 -5 c 0,1,2
 244 4 244 4 244 13 c 0,0,0
 244 23 244 23 254 52 c 2,0,0
 287 142 l 1,0,0
 284 143 l 1,0,0
 232 78 232 78 166 32 c 0,1,2
 100 -14 100 -14 64 -14 c 0,0,0
 44 -14 44 -14 32 3 c 0,1,2
 20 20 20 20 20 42 c 0,0,0
 20 66 20 66 42 121 c 0,1,2
 64 176 64 176 108 236 c 0,0,0
 176 329 176 329 240 365 c 0,0,0
 291 394 291 394 330 394 c 0,0,0
 342 394 342 394 354 388 c 0,0,0
 367 382 367 382 374 367 c 1,0,0
299 356 m 0,0,0
 271 356 271 356 228 317 c 0,0,0
 181 275 181 275 142 193.5 c 0,1,2
 103 112 103 112 103 58 c 0,0,0
 103 39 103 39 118 39 c 0,0,0
 144 39 144 39 215 104 c 0,0,0
 316 198 316 198 349 320 c 1,0,0
 336 356 336 356 299 356 c 0,0,0
EndSplineSet
EndChar

StartChar: b
Encoding: 98 98 67
Width: 466
Flags: MW
HStem: -14 31<162.5 166.5> 374 34<354.5 377> 695 20G<346 346>
VStem: 69 67<49.5 92 49.5 101.5> 403 66<309.5 343.5 283.5 351.5>
LayerCount: 2
Fore
SplineSet
299 576 m 2,0,0
 169 234 l 1,0,0
 171 234 l 1,0,0
 227 319 227 319 278.5 363.5 c 0,1,2
 330 408 330 408 383 408 c 0,0,0
 425 408 425 408 447 383 c 0,1,2
 469 358 469 358 469 318 c 0,0,0
 469 266 469 266 435 204 c 0,1,2
 401 142 401 142 340 83 c 0,0,0
 285 30 285 30 234 8 c 0,1,2
 183 -14 183 -14 149 -14 c 0,0,0
 69 -14 69 -14 69 78 c 0,0,0
 69 138 69 138 120 275 c 2,0,0
 236 583 l 2,0,0
 252 626 252 626 254 642.5 c 0,1,2
 256 659 256 659 246 666 c 2,0,0
 223 682 l 2,0,0
 219 689 219 689 226 696 c 1,0,0
 281 716 281 716 346 715 c 1,0,0
 350 709 l 1,0,0
 344 693 344 693 299 576 c 2,0,0
368 374 m 0,0,0
 322 374 322 374 230 269 c 0,0,0
 185 218 185 218 160.5 162.5 c 0,1,2
 136 107 136 107 136 69 c 0,0,0
 136 17 136 17 171 17 c 0,0,0
 184 17 184 17 211 34 c 0,1,2
 238 51 238 51 267 84 c 0,0,0
 316 139 316 139 359.5 218 c 0,1,2
 403 297 403 297 403 338 c 0,0,0
 403 374 403 374 368 374 c 0,0,0
EndSplineSet
EndChar

StartChar: c
Encoding: 99 99 68
Width: 338
Flags: MW
HStem: -14 50<100.5 180.5> 375 33<279.5 288.5>
VStem: 45 76
LayerCount: 2
Fore
SplineSet
302 408 m 4,0,0
 338 408 338 408 357 391 c 132,-1,2
 376 374 376 374 376 349 c 4,0,0
 376 323 376 323 358.5 312.5 c 132,-1,2
 341 302 341 302 327 302 c 4,0,0
 308 302 308 302 307 320 c 4,0,0
 306 323 306 323 305 332 c 132,-1,2
 304 341 304 341 303.5 345.5 c 132,-1,4
 303 350 303 350 300.5 356.5 c 132,-1,6
 298 363 298 363 295 366.5 c 132,-1,8
 292 370 292 370 286 372.5 c 132,-1,10
 280 375 280 375 272 375 c 4,0,0
 233 375 233 375 188 308 c 4,0,0
 162 269 162 269 142.5 212.5 c 132,-1,2
 123 156 123 156 121 101 c 4,0,0
 118 36 118 36 164 36 c 4,0,0
 206 36 206 36 272 97 c 5,0,0
 279 98 279 98 283 93 c 132,-1,2
 287 88 287 88 285 80 c 4,0,0
 254 39 254 39 209.5 12.5 c 132,-1,2
 165 -14 165 -14 120 -14 c 4,0,0
 88 -14 88 -14 66.5 12 c 132,-1,2
 45 38 45 38 45 92 c 4,0,0
 45 147 45 147 78 221 c 132,-1,2
 111 295 111 295 172 350 c 4,0,0
 236 408 236 408 302 408 c 4,0,0
EndSplineSet
EndChar

StartChar: d
Encoding: 100 100 69
Width: 474
Flags: MW
HStem: -14 38<102.5 114.5 102.5 136.5> 378 30<326.5 348 316 350.5> 695 20G<570 570>
VStem: 28 60<39 51.5 39 93.5> 285 71 369 22
LayerCount: 2
Fore
SplineSet
391 377 m 5,0,0
 463 583 l 6,0,0
 478 626 478 626 480 642 c 132,-1,2
 482 658 482 658 472 666 c 6,0,0
 449 682 l 6,0,0
 445 689 445 689 452 696 c 5,0,0
 508 716 508 716 570 715 c 5,0,0
 574 709 l 5,0,0
 566 685 566 685 511 532 c 4,0,0
 418 275 418 275 356 69 c 4,0,0
 349 46 349 46 362 46 c 4,0,0
 374 46 374 46 411.5 76.5 c 132,-1,2
 449 107 449 107 472 136 c 5,0,0
 486 136 486 136 487 123 c 5,0,0
 466 79 466 79 410 32.5 c 132,-1,2
 354 -14 354 -14 317 -14 c 4,0,0
 302 -14 302 -14 293.5 -4.5 c 132,-1,2
 285 5 285 5 285 18 c 4,0,0
 285 37 285 37 298 75 c 6,0,0
 333 174 l 5,0,0
 329 175 l 5,0,0
 296 130 296 130 274.5 104.5 c 132,-1,2
 253 79 253 79 220.5 47.5 c 132,-1,4
 188 16 188 16 155.5 1 c 132,-1,6
 123 -14 123 -14 88 -14 c 4,0,0
 60 -14 60 -14 44 6.5 c 132,-1,2
 28 27 28 27 28 58 c 4,0,0
 28 114 28 114 66 191 c 132,-1,2
 104 268 104 268 161 319 c 4,0,0
 260 408 260 408 340 408 c 4,0,0
 353 408 353 408 368 400 c 132,-1,2
 383 392 383 392 391 377 c 5,0,0
338 378 m 4,0,0
 309 378 309 378 262 335 c 4,0,0
 231 306 231 306 186 246 c 132,-1,2
 141 186 141 186 119 140 c 4,0,0
 88 76 88 76 88 45 c 4,0,0
 88 36 88 36 94 30 c 132,-1,2
 100 24 100 24 107 24 c 4,0,0
 123 24 123 24 159.5 45 c 132,-1,2
 196 66 196 66 242 113 c 4,0,0
 337 210 337 210 364 306 c 4,0,0
 373 338 373 338 365 358 c 132,-1,2
 357 378 357 378 338 378 c 4,0,0
EndSplineSet
EndChar

StartChar: e
Encoding: 101 101 70
Width: 346
Flags: MW
HStem: -14 50<95 185> 377 31<298.5 302>
VStem: 44 75<76 113 76 122.5> 316 60<349.5 359>
LayerCount: 2
Fore
SplineSet
313 408 m 0,0,0
 341 408 341 408 358.5 389 c 0,1,2
 376 370 376 370 376 348 c 0,0,0
 376 294 376 294 313 254 c 0,1,2
 250 214 250 214 133 182 c 1,0,0
 119 148 119 148 119 93 c 0,0,0
 119 68 119 68 132.5 52 c 0,1,2
 146 36 146 36 167 36 c 0,0,0
 192 36 192 36 213 48.5 c 0,1,2
 234 61 234 61 272 94 c 1,0,0
 279 94 279 94 283 89 c 0,1,2
 287 84 287 84 285 77 c 0,0,0
 211 -14 211 -14 125 -14 c 0,0,0
 84 -14 84 -14 64 17.5 c 0,1,2
 44 49 44 49 44 91 c 0,0,0
 44 148 44 148 81.5 225.5 c 0,1,2
 119 303 119 303 193 360 c 0,0,0
 255 408 255 408 313 408 c 0,0,0
293 377 m 0,0,0
 261 377 261 377 217 329 c 0,0,0
 171 279 171 279 143 212 c 1,0,0
 191 227 191 227 219.5 243 c 0,1,2
 248 259 248 259 277 286 c 0,0,0
 297 305 297 305 306.5 324.5 c 0,1,2
 316 344 316 344 316 354 c 0,0,0
 316 377 316 377 293 377 c 0,0,0
EndSplineSet
EndChar

StartChar: f
Encoding: 102 102 71
Width: 261
Flags: MW
HStem: -269 41<-103 -28> 357 37<82 158 75 168 239 354> 681 34<417.5 424>
VStem: 472 57
LayerCount: 2
Fore
SplineSet
354 357 m 1,0,0
 230 357 l 1,0,0
 227 347 227 347 218.5 318 c 0,1,2
 210 289 210 289 207 278 c 0,0,0
 195 238 195 238 163.5 123 c 0,1,2
 132 8 132 8 113 -54 c 0,0,0
 73 -183 73 -183 34 -218 c 0,0,0
 -17 -269 -17 -269 -80 -269 c 0,0,0
 -111 -269 -111 -269 -128 -251.5 c 0,1,2
 -145 -234 -145 -234 -145 -218 c 0,0,0
 -145 -196 -145 -196 -126 -182 c 0,0,0
 -111 -169 -111 -169 -97 -191 c 0,0,0
 -74 -228 -74 -228 -37 -228 c 0,0,0
 0 -228 0 -228 26 -145 c 0,0,0
 53 -57 53 -57 94 112 c 0,1,2
 135 281 135 281 158 357 c 1,0,0
 75 357 l 1,0,0
 68 364 68 364 70 375.5 c 0,1,2
 72 387 72 387 82 394 c 1,0,0
 168 394 l 1,0,0
 191 475 191 475 215 529.5 c 0,1,2
 239 584 239 584 279 632 c 0,0,0
 349 715 349 715 447 715 c 0,0,0
 480 715 480 715 504.5 696.5 c 0,1,2
 529 678 529 678 529 649 c 0,0,0
 529 627 529 627 514 607 c 0,1,2
 499 587 499 587 486 587 c 0,0,0
 474 587 474 587 472 603 c 0,0,0
 470 644 470 644 452 662.5 c 0,1,2
 434 681 434 681 411 681 c 0,0,0
 371 681 371 681 333 627 c 0,0,0
 320 608 320 608 308.5 587.5 c 0,1,2
 297 567 297 567 286.5 538.5 c 0,3,4
 276 510 276 510 271 495.5 c 0,5,6
 266 481 266 481 254 442.5 c 0,7,8
 242 404 242 404 239 394 c 1,0,0
 364 394 l 1,0,0
 377 374 377 374 354 357 c 1,0,0
EndSplineSet
EndChar

StartChar: g
Encoding: 103 103 72
Width: 382
Flags: MW
HStem: -269 33<117 174 117 186.5> 359 37 379 29<266.5 282.5> 384 20G<432.5 443>
VStem: -53 69<-182.5 -147.5 -182.5 -136> 58 60<146.5 179.5 143.5 208> 86 57<6 61.5> 283 66<-178 -159.5> 305 58<274.5 355.5>
LayerCount: 2
Fore
SplineSet
287 408 m 4,0,0
 294 408 294 408 319 399 c 4,0,0
 323 397 323 397 328.5 395 c 132,-1,1
 334 393 334 393 337.5 391.5 c 132,-1,2
 341 390 341 390 343 390 c 4,0,0
 368 390 368 390 391 396 c 4,0,0
 421 404 421 404 436 404 c 4,0,0
 457 404 457 404 457 379 c 4,0,0
 457 348 457 348 435 348 c 4,0,0
 424 348 424 348 402 353 c 4,0,0
 384 359 384 359 365 359 c 4,0,0
 361 359 361 359 358 357 c 132,-1,1
 355 355 355 355 356 353 c 4,0,0
 363 325 363 325 363 315 c 4,0,0
 363 257 363 257 327 203 c 132,-1,1
 291 149 291 149 236 115 c 4,0,0
 218 103 218 103 165 89 c 5,0,0
 143 77 143 77 143 54 c 4,0,0
 143 29 143 29 176 7 c 4,0,0
 177 6 177 6 274 -53 c 4,0,0
 349 -97 349 -97 349 -150 c 4,0,0
 349 -196 349 -196 284 -232.5 c 132,-1,1
 219 -269 219 -269 105 -269 c 4,0,0
 43 -269 43 -269 -5 -244.5 c 132,-1,1
 -53 -220 -53 -220 -53 -174 c 4,0,0
 -53 -139 -53 -139 -19.5 -107.5 c 132,-1,1
 14 -76 14 -76 48 -60 c 132,-1,2
 82 -44 82 -44 118 -33 c 5,0,0
 86 -12 86 -12 86 13 c 4,0,0
 86 32 86 32 131 90 c 5,0,0
 58 109 58 109 58 180 c 4,0,0
 58 223 58 223 80 269 c 132,-1,1
 102 315 102 315 139 348 c 4,0,0
 209 408 209 408 287 408 c 4,0,0
151 -236 m 4,0,0
 195 -236 195 -236 239 -218 c 132,-1,1
 283 -200 283 -200 283 -168 c 4,0,0
 283 -137 283 -137 240 -107 c 4,0,0
 169 -60 169 -60 147 -57 c 4,0,0
 111 -53 111 -53 54 -94 c 4,0,0
 16 -122 16 -122 16 -159 c 4,0,0
 16 -193 16 -193 56.5 -214.5 c 132,-1,1
 97 -236 97 -236 151 -236 c 4,0,0
275 379 m 4,0,0
 245 379 245 379 208 338 c 4,0,0
 175 300 175 300 146.5 245 c 132,-1,1
 118 190 118 190 118 154 c 4,0,0
 118 139 118 139 127 129 c 132,-1,1
 136 119 136 119 148 119 c 4,0,0
 181 119 181 119 214 158 c 4,0,0
 253 204 253 204 279 261 c 132,-1,1
 305 318 305 318 305 345 c 4,0,0
 305 360 305 360 296 369.5 c 132,-1,1
 287 379 287 379 275 379 c 4,0,0
EndSplineSet
EndChar

StartChar: h
Encoding: 104 104 73
Width: 475
Flags: MW
HStem: -14 21G<56.5 66.5 244.5 267.5> -14 42<244.5 298.5> -14 61<244.5 253 244.5 267.5> 366 42<375 439> 695 20G<333 333>
VStem: 403 74<308.5 345.5>
LayerCount: 2
Fore
SplineSet
333 715 m 5,0,0
 337 709 l 5,0,0
 313 642 313 642 265 505 c 6,0,0
 162 206 l 5,0,0
 164 204 l 5,0,0
 238 308 238 308 322 369 c 4,0,0
 376 408 376 408 417 408 c 4,0,0
 448 408 448 408 462.5 389 c 132,-1,2
 477 370 477 370 477 341 c 4,0,0
 477 250 477 250 399 107 c 4,0,0
 375 66 375 66 334 25 c 4,0,0
 295 -14 295 -14 261 -14 c 4,0,0
 224 -14 224 -14 224 15 c 4,0,0
 224 27 224 27 232.5 37 c 132,-1,2
 241 47 241 47 251 47 c 4,0,0
 258 47 258 47 265 41 c 4,0,0
 282 28 282 28 291 28 c 4,0,0
 310 28 310 28 331 78 c 4,0,0
 355 136 355 136 379 217 c 132,-1,2
 403 298 403 298 403 336 c 4,0,0
 403 366 403 366 382 366 c 4,0,0
 362 366 362 366 328 339 c 4,0,0
 267 293 267 293 201 206 c 4,0,0
 154 144 154 144 80 -2 c 4,0,0
 74 -14 74 -14 62 -14 c 4,0,0
 54 -14 54 -14 47 -12.5 c 132,-1,2
 40 -11 40 -11 34.5 -4.5 c 132,-1,4
 29 2 29 2 33 12 c 6,0,0
 223 574 l 6,0,0
 223 575 223 575 224.082003148 577.245461434 c 4,1,2
 234 606 234 606 237 617 c 132,-1,4
 240 628 240 628 242.5 640 c 132,-1,6
 245 652 245 652 242.5 656.5 c 132,-1,8
 240 661 240 661 234 665 c 6,0,0
 213 679 l 5,0,0
 210 687 210 687 216 692 c 4,0,0
 229 698 229 698 268.5 706 c 132,-1,2
 308 714 308 714 333 715 c 5,0,0
EndSplineSet
EndChar

StartChar: i
Encoding: 105 105 74
Width: 278
Flags: MW
HStem: -14 21G<69.5 106.5> -14 62<69.5 148.5> 388 20G<229.5 249.5> 547 101<252.5 269.5>
VStem: 183 83 218 89<594.5 596>
LayerCount: 2
Fore
SplineSet
52 22 m 2,0,0
 179 325 l 2,0,0
 188 344 188 344 177 344 c 0,0,0
 159 344 159 344 94 291 c 1,0,0
 87 292 87 292 83 297 c 128,-1,2
 79 302 79 302 81 308 c 0,0,0
 119 352 119 352 168.5 380 c 128,-1,2
 218 408 218 408 246 408 c 0,0,0
 252 408 252 408 262 398 c 0,0,0
 271 389 271 389 256 354 c 2,0,0
 137 70 l 2,0,0
 128 48 128 48 140 48 c 0,0,0
 153 48 153 48 186 71 c 128,-1,2
 219 94 219 94 244 122 c 1,0,0
 259 120 259 120 259 105 c 1,0,0
 244 77 244 77 181 31.5 c 128,-1,2
 118 -14 118 -14 72 -14 c 0,0,0
 64 -14 64 -14 56 -5 c 0,0,0
 45 7 45 7 52 22 c 2,0,0
272 648 m 4,0,0
 307 648 307 648 307 610 c 4,0,0
 307 586 307 586 291.5 566.5 c 132,-1,2
 276 547 276 547 254 547 c 4,0,0
 236 547 236 547 227 558.5 c 132,-1,2
 218 570 218 570 218 585 c 4,0,0
 218 606 218 606 232 627 c 132,-1,2
 246 648 246 648 272 648 c 4,0,0
EndSplineSet
EndChar

StartChar: j
Encoding: 106 106 75
Width: 259
Flags: MW
HStem: -269 40<-48 -30 -48 -29> 346 62<155.5 232.5> 388 20G<194 232.5> 547 101<243.5 260.5>
VStem: -140 438 175 76 209 89<594.5 596>
LayerCount: 2
Fore
SplineSet
-73 -269 m 0,0,0
 -106 -269 -106 -269 -123 -252 c 0,1,2
 -140 -235 -140 -235 -140 -215 c 0,0,0
 -140 -201 -140 -201 -130.5 -188.5 c 0,1,2
 -121 -176 -121 -176 -108 -176 c 0,0,0
 -101 -176 -101 -176 -96 -186 c 0,0,0
 -71 -229 -71 -229 -39 -229 c 0,0,0
 -11 -229 -11 -229 11 -179 c 0,0,0
 40 -109 40 -109 119 144 c 0,0,0
 175 329 175 329 175 333 c 0,0,0
 176 346 176 346 167 346 c 0,0,0
 140 346 140 346 68 269 c 1,0,0
 54 271 54 271 52 286 c 1,0,0
 72 320 72 320 127.5 364 c 0,1,2
 183 408 183 408 226 408 c 0,0,0
 236 408 236 408 243.5 399 c 0,1,2
 251 390 251 390 251 379 c 0,0,0
 251 358 251 358 198 186 c 0,0,0
 122 -57 122 -57 107 -94 c 0,0,0
 35 -269 35 -269 -73 -269 c 0,0,0
263 648 m 0,0,0
 298 648 298 648 298 610 c 0,0,0
 298 586 298 586 282.5 566.5 c 0,1,2
 267 547 267 547 245 547 c 0,0,0
 227 547 227 547 218 558.5 c 0,1,2
 209 570 209 570 209 585 c 0,0,0
 209 606 209 606 223 627 c 0,1,2
 237 648 237 648 263 648 c 0,0,0
EndSplineSet
EndChar

StartChar: k
Encoding: 107 107 76
Width: 448
Flags: MW
HStem: -14 21G<66.5 76.5 298 315> -14 60<298 341.5> 166 24 365 43<348 427> 695 20G<332 332>
VStem: 39 431 393 77<328.5 363.5>
LayerCount: 2
Fore
SplineSet
40 12 m 2,0,0
 223 564 l 2,0,0
 240 616 240 616 241.5 632.5 c 0,1,2
 243 649 243 649 230 655 c 2,0,0
 212 664 l 2,0,0
 202 671 202 671 210 679 c 0,0,0
 257 701 257 701 332 715 c 1,0,0
 338 710 l 1,0,0
 332 689 332 689 289 563 c 2,0,0
 186 267 l 1,0,0
 188 267 l 1,0,0
 233 327 233 327 290 370 c 0,0,0
 343 408 343 408 398 408 c 0,0,0
 437 408 437 408 453.5 391 c 0,1,2
 470 374 470 374 470 353 c 0,0,0
 470 318 470 318 429 280 c 0,0,0
 348 206 348 206 269 192 c 0,0,0
 261 188 261 188 266 173 c 0,0,0
 280 124 280 124 303 79 c 0,0,0
 321 46 321 46 335 46 c 0,0,0
 356 46 356 46 395 93 c 1,0,0
 408 93 408 93 408 81 c 1,0,0
 385 32 385 32 355 9 c 0,1,2
 325 -14 325 -14 307 -14 c 0,0,0
 284 -14 284 -14 261 26 c 0,0,0
 234 75 234 75 215 133 c 0,0,0
 203 172 203 172 178 166 c 0,0,0
 163 162 163 162 156.5 155 c 0,1,2
 150 148 150 148 141 126 c 2,0,0
 89 -1 l 2,0,0
 83 -14 83 -14 72 -14 c 0,0,0
 64 -14 64 -14 56.5 -12.5 c 0,1,2
 49 -11 49 -11 42.5 -4.5 c 0,3,4
 36 2 36 2 40 12 c 2,0,0
393 339 m 0,0,0
 393 349 393 349 385 357 c 0,1,2
 377 365 377 365 361 365 c 0,0,0
 324 365 324 365 264 314 c 0,0,0
 236 290 236 290 209 258 c 0,1,2
 182 226 182 226 172 205 c 0,0,0
 168 197 168 197 170.5 193 c 0,1,2
 173 189 173 189 182 190 c 0,0,0
 238 195 238 195 329 255 c 0,0,0
 359 275 359 275 376 298.5 c 0,1,2
 393 322 393 322 393 339 c 0,0,0
EndSplineSet
EndChar

StartChar: l
Encoding: 108 108 77
Width: 246
Flags: MW
HStem: -14 46<121.5 127.5> 695 20G<335 335>
VStem: 47 71
LayerCount: 2
Fore
SplineSet
281 537 m 2,0,0
 123 65 l 2,0,0
 112 32 112 32 127 32 c 0,0,0
 153 32 153 32 242 133 c 1,0,0
 258 135 258 135 258 119 c 1,0,0
 232 69 232 69 186.5 27.5 c 0,1,2
 141 -14 141 -14 86 -14 c 0,0,0
 47 -14 47 -14 47 16 c 0,0,0
 47 35 47 35 69 101 c 2,0,0
 228 574 l 2,0,0
 244 628 244 628 242.5 641.5 c 0,1,2
 241 655 241 655 227 661 c 2,0,0
 209 669 l 2,0,0
 205 672 205 672 205 677.5 c 0,1,2
 205 683 205 683 209 685 c 0,0,0
 272 710 272 710 335 715 c 1,0,0
 340 709 l 1,0,0
 318 649 318 649 281 537 c 2,0,0
EndSplineSet
EndChar

StartChar: m
Encoding: 109 109 78
Width: 729
Flags: MW
HStem: -14 21G<85.5 95.5 314.5 324.5 535.5 567.5> -14 58<535.5 610.5> 371 37<384 416 620 633.5>
VStem: 179 69 413 57 516 81 642 67<346 353>
LayerCount: 2
Fore
SplineSet
421 408 m 0,0,0
 501 408 501 408 450 278 c 2,0,0
 412 186 l 1,0,0
 415 184 l 1,0,0
 556 408 556 408 653 408 c 0,0,0
 709 408 709 408 709 354 c 0,0,0
 709 325 709 325 693 284 c 0,0,0
 685 262 685 262 662.5 209 c 0,1,2
 640 156 640 156 620.5 110.5 c 0,3,4
 601 65 601 65 600 63 c 0,0,0
 592 44 592 44 602 44 c 0,0,0
 615 44 615 44 645 65 c 0,1,2
 675 86 675 86 696 112 c 1,0,0
 712 114 712 114 712 98 c 1,0,0
 684 51 684 51 633 18.5 c 0,1,2
 582 -14 582 -14 540 -14 c 0,0,0
 533 -14 533 -14 524.5 -6 c 0,1,2
 516 2 516 2 516 11 c 0,0,0
 516 20 516 20 540 77 c 0,0,0
 584 180 584 180 621 274 c 0,0,0
 642 328 642 328 642 347 c 0,0,0
 642 371 642 371 626 371 c 0,0,0
 589 371 589 371 495 251 c 0,0,0
 440 182 440 182 338 -2 c 0,0,0
 330 -14 330 -14 320 -14 c 0,0,0
 312 -14 312 -14 305 -12.5 c 0,1,2
 298 -11 298 -11 292.5 -4.5 c 0,3,4
 287 2 287 2 291 12 c 2,0,0
 390 274 l 2,0,0
 390 275 390 275 393.5 282.5 c 0,1,2
 397 290 397 290 400 298 c 0,3,4
 403 306 403 306 406.5 316.5 c 0,5,6
 410 327 410 327 411.5 336 c 0,7,8
 413 345 413 345 413 353.5 c 0,9,10
 413 362 413 362 409 366.5 c 0,11,12
 405 371 405 371 398 371 c 0,0,0
 356 371 356 371 259 251 c 0,0,0
 235 220 235 220 207.5 175.5 c 0,1,2
 180 131 180 131 165 103.5 c 0,3,4
 150 76 150 76 109 -2 c 0,0,0
 102 -14 102 -14 91 -14 c 0,0,0
 83 -14 83 -14 76 -12.5 c 0,1,2
 69 -11 69 -11 63.5 -4.5 c 0,3,4
 58 2 58 2 62 12 c 0,0,0
 166 289 166 289 176 327 c 0,0,0
 184 355 184 355 169 355 c 0,0,0
 125 355 125 355 81 300 c 1,0,0
 65 300 65 300 67 315 c 1,0,0
 88 355 88 355 128 381.5 c 0,1,2
 168 408 168 408 221 408 c 0,0,0
 238 408 238 408 245 396 c 0,1,2
 252 384 252 384 245 367 c 2,0,0
 176 186 l 1,0,0
 179 184 l 1,0,0
 238 281 238 281 302.5 344.5 c 0,1,2
 367 408 367 408 421 408 c 0,0,0
EndSplineSet
EndChar

StartChar: n
Encoding: 110 110 79
Width: 501
Flags: MW
HStem: -14 21G<83.5 93.5 307.5 339.5> -14 58<307.5 382.5> 371 37<387.5 405.5>
VStem: 179 69 288 81 414 67<346 353>
LayerCount: 2
Fore
SplineSet
245 367 m 2,0,0
 177 192 l 1,0,0
 180 190 l 1,0,0
 240 281 240 281 306.5 344.5 c 0,1,2
 373 408 373 408 425 408 c 0,0,0
 481 408 481 408 481 354 c 0,0,0
 481 330 481 330 465 284 c 0,0,0
 457 262 457 262 434.5 209 c 0,1,2
 412 156 412 156 392.5 110.5 c 0,3,4
 373 65 373 65 372 63 c 0,0,0
 364 44 364 44 374 44 c 0,0,0
 387 44 387 44 417 65 c 0,1,2
 447 86 447 86 468 112 c 1,0,0
 484 114 484 114 484 98 c 1,0,0
 456 51 456 51 405 18.5 c 0,1,2
 354 -14 354 -14 312 -14 c 0,0,0
 305 -14 305 -14 296.5 -6 c 0,1,2
 288 2 288 2 288 11 c 0,0,0
 288 20 288 20 312 77 c 0,0,0
 320 95 320 95 350 170.5 c 0,1,2
 380 246 380 246 393 274 c 0,0,0
 414 321 414 321 414 347 c 0,0,0
 414 371 414 371 398 371 c 0,0,0
 380 371 380 371 340.5 337 c 0,1,2
 301 303 301 303 260 252 c 0,0,0
 235 221 235 221 207.5 176.5 c 0,1,2
 180 132 180 132 163.5 102.5 c 0,3,4
 147 73 147 73 107 -2 c 0,0,0
 100 -14 100 -14 89 -14 c 0,0,0
 81 -14 81 -14 74 -12.5 c 0,1,2
 67 -11 67 -11 61.5 -4.5 c 0,3,4
 56 2 56 2 60 12 c 0,0,0
 109 139 109 139 176 327 c 0,0,0
 185 350 185 350 173 350 c 0,0,0
 139 350 139 350 82 300 c 1,0,0
 68 300 68 300 70 315 c 1,0,0
 99 355 99 355 140.5 381.5 c 0,1,2
 182 408 182 408 219 408 c 0,0,0
 237 408 237 408 244.5 396 c 0,1,2
 252 384 252 384 245 367 c 2,0,0
EndSplineSet
EndChar

StartChar: o
Encoding: 111 111 80
Width: 406
Flags: MW
HStem: -14 30<140.5 160.5> 378 30<277 304.5>
VStem: 47 67 327 69
LayerCount: 2
Fore
SplineSet
294 408 m 0,0,0
 346 408 346 408 372.5 373 c 0,1,2
 399 338 399 338 396 282 c 0,0,0
 393 233 393 233 367 170 c 0,1,2
 341 107 341 107 290 55 c 0,0,0
 223 -14 223 -14 147 -14 c 0,0,0
 98 -14 98 -14 70.5 21 c 0,1,2
 43 56 43 56 47 119 c 0,0,0
 50 170 50 170 79 233.5 c 0,1,2
 108 297 108 297 156 343 c 0,0,0
 224 408 224 408 294 408 c 0,0,0
287 378 m 0,0,0
 250 378 250 378 214 330 c 0,0,0
 173 275 173 275 145 199.5 c 0,1,2
 117 124 117 124 114 80 c 0,0,0
 112 53 112 53 123 34.5 c 0,1,2
 134 16 134 16 155 16 c 0,0,0
 195 16 195 16 234 68 c 0,0,0
 266 111 266 111 295.5 191 c 0,1,2
 325 271 325 271 327 312 c 0,0,0
 329 378 329 378 287 378 c 0,0,0
EndSplineSet
EndChar

StartChar: p
Encoding: 112 112 81
Width: 448
Flags: MW
HStem: -269 24 -269 31 -14 34<155.5 193.5> -8 21G 364 30<289.5 300.5>
VStem: -106 160 358 77<267 314>
LayerCount: 2
Fore
SplineSet
282 453 m 1,0,0
 261 392 l 2,0,0
 264 392 264 392 276 393 c 0,1,2
 288 394 288 394 299 394 c 0,0,0
 328 394 328 394 355.5 386.5 c 0,1,2
 383 379 383 379 409 351.5 c 0,3,4
 435 324 435 324 435 280 c 0,0,0
 435 154 435 154 303 43 c 0,0,0
 275 19 275 19 238.5 5 c 0,1,2
 202 -9 202 -9 185 -11.5 c 0,3,4
 168 -14 168 -14 160 -14 c 0,0,0
 150 -14 150 -14 129 -8 c 1,0,0
 118 -11 118 -11 113 -26 c 2,0,0
 72 -144 l 2,0,0
 52 -202 52 -202 53.5 -216.5 c 0,1,2
 55 -231 55 -231 80 -235 c 2,0,0
 121 -241 l 1,0,0
 132 -256 132 -256 117 -263 c 1,0,0
 100 -263 100 -263 -101 -269 c 1,0,0
 -114 -258 -114 -258 -101 -247 c 1,0,0
 -79 -243 l 2,0,0
 -71 -242 -71 -242 -64 -239.5 c 0,1,2
 -57 -237 -57 -237 -51.5 -235.5 c 0,3,4
 -46 -234 -46 -234 -41 -230 c 0,5,6
 -36 -226 -36 -226 -33 -224.5 c 0,7,8
 -30 -223 -30 -223 -26 -217.5 c 0,9,10
 -22 -212 -22 -212 -20.5 -210.5 c 0,11,12
 -19 -209 -19 -209 -16 -201 c 0,13,14
 -13 -193 -13 -193 -12.5 -191.5 c 0,15,16
 -12 -190 -12 -190 -8.5 -180.5 c 0,17,18
 -5 -171 -5 -171 -4 -169 c 2,0,0
 182 353 l 1,0,0
 139 341 139 341 81 312 c 0,0,0
 75 313 75 313 72 318.5 c 0,1,2
 69 324 69 324 71 331 c 1,0,0
 120 366 120 366 195 386 c 1,0,0
 225 467 l 1,0,0
 235 475 235 475 257 469.5 c 0,1,2
 279 464 279 464 282 453 c 1,0,0
253 362 m 1,0,0
 149 70 l 2,0,0
 143 54 143 54 150 43 c 0,0,0
 164 20 164 20 187 20 c 0,0,0
 205 20 205 20 238 39 c 0,1,2
 271 58 271 58 299 101 c 0,0,0
 358 192 358 192 358 289 c 0,0,0
 358 325 358 325 335.5 344.5 c 0,1,2
 313 364 313 364 279 364 c 0,0,0
 267 364 267 364 253 362 c 1,0,0
EndSplineSet
EndChar

StartChar: q
Encoding: 113 113 82
Width: 465
Flags: MW
HStem: -256 23.5 -14 45<123 137.5 123 146> 378 30<333 344>
VStem: 36 72<51 78> 120 172 368 39
LayerCount: 2
Fore
SplineSet
423 225 m 2,0,0
 303 -159 l 2,0,0
 290 -199 290 -199 292.5 -214.5 c 0,1,2
 295 -230 295 -230 314 -231 c 2,0,0
 347 -234 l 2,0,0
 351 -238 351 -238 350 -245.5 c 0,1,2
 349 -253 349 -253 343 -256 c 0,0,0
 271 -260 271 -260 127 -285 c 0,0,0
 121 -282 121 -282 119.5 -274 c 0,1,2
 118 -266 118 -266 123 -262 c 2,0,0
 169 -248 l 2,0,0
 199 -239 199 -239 209.5 -224.5 c 0,1,2
 220 -210 220 -210 233 -170 c 2,0,0
 348 187 l 1,0,0
 346 187 l 1,0,0
 324 156 324 156 300.5 127 c 0,1,2
 277 98 277 98 242.5 63 c 0,3,4
 208 28 208 28 169.5 7 c 0,5,6
 131 -14 131 -14 97 -14 c 0,0,0
 67 -14 67 -14 51.5 8 c 0,1,2
 36 30 36 30 36 61 c 0,0,0
 36 137 36 137 86 220 c 0,0,0
 149 327 149 327 239 376 c 0,0,0
 299 408 299 408 353 408 c 0,0,0
 373 408 373 408 387.5 392 c 0,1,2
 402 376 402 376 407 353 c 1,0,0
 439 405 439 405 461 434 c 1,0,0
 468 436 468 436 475.5 432.5 c 0,1,2
 483 429 483 429 484 422 c 0,0,0
 480 409 480 409 473 387 c 0,1,2
 466 365 466 365 451.5 318 c 0,3,4
 437 271 437 271 423 225 c 2,0,0
332 378 m 0,0,0
 298 378 298 378 254 338 c 0,0,0
 204 292 204 292 156 202 c 0,1,2
 108 112 108 112 108 59 c 0,0,0
 108 31 108 31 130 31 c 0,0,0
 157 31 157 31 214 79 c 0,0,0
 297 150 297 150 340 223 c 0,0,0
 368 273 368 273 368 321 c 0,0,0
 368 339 368 339 358 358.5 c 0,1,2
 348 378 348 378 332 378 c 0,0,0
EndSplineSet
EndChar

StartChar: r
Encoding: 114 114 83
Width: 341
Flags: MW
HStem: -14 21G<90.5 100> 288 120 343 65 348 60<145 214>
VStem: 166 57 339 53
LayerCount: 2
Fore
SplineSet
189 408 m 4,0,0
 244 408 244 408 212 313 c 6,0,0
 169 187 l 5,0,0
 174 187 l 5,0,0
 234 299 234 299 279 356 c 4,0,0
 319 408 319 408 352 408 c 4,0,0
 392 408 392 408 392 359 c 4,0,0
 392 327 392 327 371 299 c 4,0,0
 362 287 362 287 352 288 c 132,-1,2
 342 289 342 289 339 304 c 4,0,0
 332 343 332 343 318 343 c 4,0,0
 306 343 306 343 283 313 c 4,0,0
 255 277 255 277 222 218 c 132,-1,2
 189 159 189 159 169 118 c 132,-1,4
 149 77 149 77 113 -2 c 4,0,0
 107 -14 107 -14 96 -14 c 4,0,0
 88 -14 88 -14 80.5 -12.5 c 132,-1,2
 73 -11 73 -11 66.5 -4.5 c 132,-1,4
 60 2 60 2 63 12 c 4,0,0
 65 19 65 19 87.5 84 c 132,-1,2
 110 149 110 149 132 216 c 132,-1,4
 154 283 154 283 166 327 c 4,0,0
 172 348 172 348 158 348 c 4,0,0
 126 348 126 348 87 296 c 5,0,0
 79 294 79 294 74.5 298.5 c 132,-1,2
 70 303 70 303 71 312 c 4,0,0
 128 408 128 408 189 408 c 4,0,0
EndSplineSet
EndChar

StartChar: s
Encoding: 115 115 84
Width: 262
Flags: MW
HStem: -14 46<46 127> 360 48<172.5 243.5>
VStem: 91 55<261.5 327.5> 163 55
LayerCount: 2
Fore
SplineSet
225 408 m 4,0,0
 251 408 251 408 268 390 c 132,-1,2
 285 372 285 372 285 351 c 4,0,0
 285 329 285 329 267 320 c 4,0,0
 256 317 256 317 248 328 c 4,0,0
 236 340 236 340 231 344.5 c 132,-1,2
 226 349 226 349 213.5 354.5 c 132,-1,4
 201 360 201 360 187 360 c 4,0,0
 167 360 167 360 156.5 347 c 132,-1,2
 146 334 146 334 146 320 c 4,0,0
 146 286 146 286 180 229 c 4,0,0
 196 203 196 203 202.5 190 c 132,-1,2
 209 177 209 177 214 158 c 132,-1,4
 219 139 219 139 218 118 c 4,0,0
 216 65 216 65 166 22 c 4,0,0
 125 -14 125 -14 65 -14 c 4,0,0
 38 -14 38 -14 21 3 c 132,-1,2
 4 20 4 20 4 39 c 4,0,0
 4 56 4 56 19 72 c 4,0,0
 32 84 32 84 46 72 c 4,0,0
 81 32 81 32 115 32 c 4,0,0
 134 32 134 32 148.5 49 c 132,-1,2
 163 66 163 66 163 89 c 4,0,0
 163 118 163 118 126 177 c 4,0,0
 91 234 91 234 91 270 c 4,0,0
 91 323 91 323 151 375 c 4,0,0
 189 408 189 408 225 408 c 4,0,0
EndSplineSet
EndChar

StartChar: t
Encoding: 116 116 85
Width: 284
Flags: MW
HStem: -14 21G<74 102> 346 37<240 337 228 349> 481 9
VStem: 54 81 54 298
LayerCount: 2
Fore
SplineSet
337 346 m 5,0,0
 228 346 l 5,0,0
 138 83 l 6,0,0
 130 58 130 58 145 58 c 4,0,0
 156 58 156 58 195 89 c 132,-1,2
 234 120 234 120 259 148 c 5,0,0
 276 148 276 148 273 130 c 5,0,0
 233 71 233 71 174 28.5 c 132,-1,2
 115 -14 115 -14 81 -14 c 4,0,0
 71 -14 71 -14 62.5 -5 c 132,-1,2
 54 4 54 4 54 13 c 4,0,0
 54 28 54 28 68 70 c 6,0,0
 162 346 l 5,0,0
 84 346 l 5,0,0
 80 368 80 368 95 374 c 6,0,0
 175 388 l 5,0,0
 231 487 l 6,0,0
 238 492 238 492 250.5 490 c 132,-1,2
 263 488 263 488 269 481 c 5,0,0
 240 383 l 5,0,0
 349 383 l 5,0,0
 354 376 354 376 350.5 363.5 c 132,-1,2
 347 351 347 351 337 346 c 5,0,0
EndSplineSet
EndChar

StartChar: u
Encoding: 117 117 86
Width: 496
Flags: MW
HStem: -14 21G<86.5 134 308 342.5> -14 63<308 384.5> -14 66<86.5 163.5> 343 65<160.5 237.5> 382 20G 388 20G<207.5 237.5>
VStem: 69 76
LayerCount: 2
Fore
SplineSet
261 378 m 2,0,0
 149 86 l 2,0,0
 136 52 136 52 156 52 c 0,0,0
 178 52 178 52 263 135 c 0,0,0
 289 161 289 161 312 190 c 0,1,2
 335 219 335 219 355.5 252 c 0,3,4
 376 285 376 285 388 306 c 0,5,6
 400 327 400 327 417.5 361 c 0,7,8
 435 395 435 395 439 402 c 1,0,0
 454 405 454 405 469.5 399 c 0,1,2
 485 393 485 393 488 384 c 0,0,0
 486 379 486 379 464.5 323 c 0,1,2
 443 267 443 267 416.5 197 c 0,3,4
 390 127 390 127 371 74 c 0,0,0
 361 49 361 49 375 49 c 0,0,0
 388 49 388 49 419.5 75 c 0,1,2
 451 101 451 101 473 127 c 1,0,0
 490 131 490 131 491 113 c 1,0,0
 470 74 470 74 412 30 c 0,1,2
 354 -14 354 -14 316 -14 c 0,0,0
 304 -14 304 -14 295.5 -2.5 c 0,1,2
 287 9 287 9 291 21 c 2,0,0
 359 204 l 1,0,0
 357 205 l 1,0,0
 293 125 293 125 218.5 55.5 c 0,1,2
 144 -14 144 -14 107 -14 c 0,0,0
 78 -14 78 -14 71 12 c 0,1,2
 64 38 64 38 78 71 c 2,0,0
 170 314 l 2,0,0
 181 343 181 343 170 343 c 0,0,0
 157 343 157 343 127 320 c 0,1,2
 97 297 97 297 75 274 c 1,0,0
 68 273 68 273 62.5 277.5 c 0,1,2
 57 282 57 282 58 289 c 0,0,0
 79 322 79 322 138.5 365 c 0,1,2
 198 408 198 408 231 408 c 0,0,0
 242 408 242 408 253.5 399 c 0,1,2
 265 390 265 390 261 378 c 2,0,0
EndSplineSet
EndChar

StartChar: v
Encoding: 118 118 87
Width: 426
Flags: MW
HStem: -14 21G<115 140> -14 50<115 194.5> 350 58<159.5 230.5>
VStem: 82 72<31 78.5> 180 75 378 67<309.5 313>
LayerCount: 2
Fore
SplineSet
107 142 m 2,0,0
 176 321 l 2,0,0
 185 350 185 350 169 350 c 0,0,0
 156 350 156 350 128.5 329 c 0,1,2
 101 308 101 308 76 280 c 1,0,0
 69 280 69 280 64.5 285.5 c 0,1,2
 60 291 60 291 61 297 c 0,0,0
 90 338 90 338 134.5 373 c 0,1,2
 179 408 179 408 219 408 c 0,0,0
 238 408 238 408 249.5 388 c 0,1,2
 261 368 261 368 250 342 c 2,0,0
 164 119 l 2,0,0
 154 91 154 91 154 72 c 0,0,0
 154 36 154 36 183 36 c 0,0,0
 227 36 227 36 292 110 c 0,0,0
 333 157 333 157 355.5 210 c 0,1,2
 378 263 378 263 378 301 c 0,0,0
 378 342 378 342 369 372 c 1,0,0
 370 388 370 388 381 398 c 0,1,2
 392 408 392 408 406 408 c 0,0,0
 445 408 445 408 445 346 c 0,0,0
 445 290 445 290 396 201 c 0,1,2
 347 112 347 112 284 59 c 0,0,0
 196 -14 196 -14 128 -14 c 0,0,0
 109 -14 109 -14 95.5 4.5 c 0,1,2
 82 23 82 23 82 46 c 0,0,0
 82 77 82 77 107 142 c 2,0,0
EndSplineSet
EndChar

StartChar: w
Encoding: 119 119 88
Width: 657
Flags: MW
HStem: -14 52<117 196.5> 350 58<159 231.5> 384 20G<434 455>
VStem: 80 72<28 69> 179 75 318 66<27.5 109> 607 67<276 358.5>
LayerCount: 2
Fore
SplineSet
97 113 m 2,0,0
 172 313 l 2,0,0
 186 350 186 350 169 350 c 0,0,0
 154 350 154 350 127 329 c 0,1,2
 100 308 100 308 77 280 c 1,0,0
 70 280 70 280 65.5 285.5 c 0,1,2
 61 291 61 291 62 297 c 0,0,0
 91 339 91 339 134.5 373.5 c 0,1,2
 178 408 178 408 220 408 c 0,0,0
 239 408 239 408 249.5 388 c 0,1,2
 260 368 260 368 250 342 c 2,0,0
 171 133 l 2,0,0
 152 84 152 84 152 62 c 0,0,0
 152 38 152 38 174 38 c 0,0,0
 204 38 204 38 249.5 87 c 0,1,2
 295 136 295 136 331 190 c 0,0,0
 377 260 377 260 396 350 c 0,0,0
 401 374 401 374 415 389 c 0,1,2
 429 404 429 404 443 404 c 0,0,0
 459 404 459 404 466 395 c 0,1,2
 473 386 473 386 473 376 c 0,0,0
 473 372 473 372 472.5 367.5 c 0,1,2
 472 363 472 363 470 357.5 c 0,3,4
 468 352 468 352 466.5 348 c 0,5,6
 465 344 465 344 461.5 335.5 c 0,7,8
 458 327 458 327 455.5 322 c 0,9,10
 453 317 453 317 447.5 305 c 0,11,12
 442 293 442 293 438 286 c 0,0,0
 384 175 384 175 384 82 c 0,0,0
 384 38 384 38 421 38 c 0,0,0
 444 38 444 38 479.5 64.5 c 0,1,2
 515 91 515 91 545 134 c 0,0,0
 607 223 607 223 607 301 c 0,0,0
 607 342 607 342 598 372 c 1,0,0
 599 388 599 388 610 398 c 0,1,2
 621 408 621 408 635 408 c 0,0,0
 674 408 674 408 674 346 c 0,0,0
 674 300 674 300 646.5 237 c 0,1,2
 619 174 619 174 565 108 c 0,0,0
 515 48 515 48 462 17 c 0,1,2
 409 -14 409 -14 374 -14 c 0,0,0
 357 -14 357 -14 337.5 3.5 c 0,1,2
 318 21 318 21 318 43 c 0,0,0
 318 73 318 73 335 128 c 0,0,0
 338.723159509 139.914110429 338.723159509 139.914110429 334.375 139.5 c 0,1,2
 330.067307692 139.08974359 330.067307692 139.08974359 321 127 c 0,0,0
 281 73 281 73 227 29.5 c 0,1,2
 173 -14 173 -14 131 -14 c 0,0,0
 111 -14 111 -14 95.5 3.5 c 0,1,2
 80 21 80 21 80 40 c 0,0,0
 80 65 80 65 97 113 c 2,0,0
EndSplineSet
EndChar

StartChar: x
Encoding: 120 120 89
Width: 420
Flags: MW
HStem: -14 21G<15 36.5 291.5 324> -14 70<318 324> 303 105<417.5 428.5> 338 70<117.5 161.5> 345 63 388 20G<140.5 161.5 405 434.5>
VStem: -9 470<13 372.5>
LayerCount: 2
Fore
SplineSet
196 183 m 1,0,0
 154 291 l 2,0,0
 136.589143267 334.527141834 136.589143267 334.527141834 129.067721025 337.427631642 c 0,1,2
 127.583480645 338 127.583480645 338 126 338 c 0,0,0
 121 338 121 338 116 335 c 0,1,2
 111 332 111 332 106 325.5 c 0,3,4
 101 319 101 319 97.5 314 c 0,5,6
 94 309 94 309 88.5 300 c 0,7,8
 83 291 83 291 81 287 c 0,0,0
 73 283 73 283 67.5 287 c 0,1,2
 62 291 62 291 63 301 c 0,0,0
 76 341 76 341 105 374.5 c 0,1,2
 134 408 134 408 153 408 c 0,0,0
 178 408 178 408 197 356 c 2,0,0
 240 239 l 1,0,0
 243 243 243 243 249.5 250.5 c 0,1,2
 256 258 256 258 271.5 277 c 0,3,4
 287 296 287 296 308 321 c 0,0,0
 347 367 347 367 372.5 387.5 c 0,1,2
 398 408 398 408 421 408 c 0,0,0
 440 408 440 408 450.5 394 c 0,1,2
 461 380 461 380 461 361 c 0,0,0
 461 337 461 337 447.5 320 c 0,1,2
 434 303 434 303 421 303 c 0,0,0
 412 303 412 303 407 320 c 0,0,0
 400 345 400 345 386 345 c 0,0,0
 373 345 373 345 346 318 c 0,1,2
 319 291 319 291 251 208 c 1,0,0
 288 113 l 2,0,0
 311 56 311 56 324 56 c 0,0,0
 338 56 338 56 371 115 c 0,0,0
 376 121 376 121 384.5 118.5 c 0,1,2
 393 116 393 116 392 109 c 0,0,0
 381 58 381 58 356.5 22 c 0,1,2
 332 -14 332 -14 305 -14 c 0,0,0
 286 -14 286 -14 273.5 3 c 0,1,2
 261 20 261 20 246 56 c 2,0,0
 208 151 l 1,0,0
 191 134 191 134 135 65 c 0,0,0
 67 -14 67 -14 27 -14 c 0,0,0
 10 -14 10 -14 0.5 -3.5 c 0,1,2
 -9 7 -9 7 -9 22 c 0,0,0
 -9 58 -9 58 20 82 c 0,0,0
 32 93 32 93 42 93 c 0,0,0
 50 93 50 93 52 80 c 0,0,0
 58 52 58 52 70 52 c 0,0,0
 81 52 81 52 110 83 c 0,0,0
 128 102 128 102 196 183 c 1,0,0
EndSplineSet
EndChar

StartChar: y
Encoding: 121 121 90
Width: 366
Flags: MW
HStem: -269 21G<-64 -32> -269 55<-64 1.5> -269 89<-64 -55 -71 -32> 342 66<110 182.5>
VStem: 158 45 328 61
LayerCount: 2
Fore
SplineSet
157 408 m 4,0,0
 213 408 213 408 218 238 c 4,0,0
 220 118 220 118 203 18 c 5,0,0
 207 18 l 5,0,0
 254 88 254 88 291 190 c 4,0,0
 305 229 305 229 316 289.5 c 132,-1,2
 327 350 327 350 328 375 c 4,0,0
 330 406 330 406 352 406 c 4,0,0
 366 406 366 406 380 397 c 4,0,0
 389 391 389 391 389 377 c 4,0,0
 390 348 390 348 360.5 259.5 c 132,-1,2
 331 171 331 171 273 72 c 4,0,0
 267 61 267 61 249.5 32.5 c 132,-1,2
 232 4 232 4 225 -8 c 132,-1,4
 218 -20 218 -20 202.5 -44.5 c 132,-1,6
 187 -69 187 -69 175 -85 c 132,-1,8
 163 -101 163 -101 145 -123.5 c 132,-1,10
 127 -146 127 -146 108 -168 c 4,0,0
 20 -269 20 -269 -48 -269 c 4,0,0
 -71 -269 -71 -269 -85.5 -255.5 c 132,-1,2
 -100 -242 -100 -242 -100 -223 c 132,-1,0
 -100 -204 -100 -204 -88.5 -192 c 132,-1,2
 -77 -180 -77 -180 -60 -180 c 4,0,0
 -44 -180 -44 -180 -33 -196 c 4,0,0
 -22 -214 -22 -214 -5 -214 c 4,0,0
 16 -214 16 -214 50 -186 c 4,0,0
 71 -168 71 -168 98 -125 c 132,-1,2
 125 -82 125 -82 138 -36 c 4,0,0
 160 43 160 43 158 192 c 4,0,0
 155 342 155 342 120 342 c 4,0,0
 113 342 113 342 106 337 c 132,-1,2
 99 332 99 332 91 319 c 132,-1,4
 83 306 83 306 77.5 296.5 c 132,-1,6
 72 287 72 287 62 266 c 5,0,0
 47 262 47 262 43 279 c 5,0,0
 60 333 60 333 91 370.5 c 132,-1,2
 122 408 122 408 157 408 c 4,0,0
EndSplineSet
EndChar

StartChar: z
Encoding: 122 122 91
Width: 406
Flags: MW
HStem: -23 49<264.5 321.5> -14 21G 38 44<82 123> 353 47<158.5 237> 388 20G
VStem: 78 56<279 322> 357 53<58 110>
LayerCount: 2
Fore
SplineSet
2 14 m 4,0,0
 2 32 2 32 60 85 c 4,0,0
 143 160 143 160 303 311 c 4,0,0
 317 325 317 325 291 333 c 4,0,0
 230 353 230 353 177 353 c 4,0,0
 153 353 153 353 143.5 341 c 132,-1,2
 134 329 134 329 134 317 c 4,0,0
 134 295 134 295 150 279 c 5,0,0
 150 269 150 269 140.5 260 c 132,-1,2
 131 251 131 251 115 251 c 4,0,0
 97 251 97 251 87.5 262 c 132,-1,2
 78 273 78 273 78 288 c 4,0,0
 78 318 78 318 123 360 c 4,0,0
 168 400 168 400 227 400 c 4,0,0
 255 400 255 400 291 390 c 4,0,0
 347 373 347 373 364 373 c 4,0,0
 371 373 371 373 377.5 374 c 132,-1,2
 384 375 384 375 389.5 378 c 132,-1,4
 395 381 395 381 399 383 c 132,-1,6
 403 385 403 385 407 389.5 c 132,-1,8
 411 394 411 394 413 396 c 132,-1,10
 415 398 415 398 418.5 402.5 c 132,-1,12
 422 407 422 407 423 408 c 4,0,0
 434 409 434 409 442 403 c 132,-1,2
 450 397 450 397 448 388 c 5,0,0
 436 377 436 377 373 321 c 132,-1,2
 310 265 310 265 244 203.5 c 132,-1,4
 178 142 178 142 122 85 c 5,0,0
 123 82 l 5,0,0
 132 82 132 82 140.5 81.5 c 132,-1,2
 149 81 149 81 156.5 80 c 132,-1,4
 164 79 164 79 173.5 76 c 132,-1,6
 183 73 183 73 188.5 71 c 132,-1,8
 194 69 194 69 204 65 c 132,-1,10
 214 61 214 61 218.5 59 c 132,-1,12
 223 57 223 57 234 52 c 132,-1,14
 245 47 245 47 248 45 c 4,0,0
 290 26 290 26 311 26 c 4,0,0
 328 26 328 26 342.5 39 c 132,-1,2
 357 52 357 52 357 72 c 4,0,0
 357 87 357 87 347 120 c 4,0,0
 342 137 342 137 349.5 143.5 c 132,-1,2
 357 150 357 150 367 150 c 4,0,0
 386 150 386 150 398 134 c 132,-1,2
 410 118 410 118 410 99 c 4,0,0
 410 54 410 54 358 12 c 4,0,0
 314 -23 314 -23 278 -23 c 4,0,0
 254 -23 254 -23 196 2 c 4,0,0
 187 6 187 6 162.5 17.5 c 132,-1,2
 138 29 138 29 124 33.5 c 132,-1,4
 110 38 110 38 99 38 c 4,0,0
 75 38 75 38 62 25.5 c 132,-1,2
 49 13 49 13 41 -14 c 5,0,0
 2 -17 2 -17 2 14 c 4,0,0
EndSplineSet
EndChar

StartChar: braceleft
Encoding: 123 123 92
Width: 320
Flags: MW
HStem: -158 17
VStem: 86 55<-93 -58.5> 177 57<195.5 216.5 181 230.5>
LayerCount: 2
Fore
SplineSet
310 476 m 0,0,0
 297 400 297 400 289 373 c 0,0,0
 265 289 265 289 184 270 c 1,0,0
 183 266 l 1,0,0
 234 253 234 253 234 197 c 0,0,0
 234 186 234 186 228 165.5 c 0,1,2
 222 145 222 145 215 128.5 c 0,3,4
 208 112 208 112 198 89 c 0,5,6
 188 66 188 66 186 60 c 0,0,0
 186 59 186 59 174.5 32.5 c 0,1,2
 163 6 163 6 158 -6.5 c 0,3,4
 153 -19 153 -19 147 -39.5 c 0,5,6
 141 -60 141 -60 141 -72 c 0,0,0
 141 -128 141 -128 202 -141 c 1,0,0
 204 -154 204 -154 197 -158 c 1,0,0
 86 -158 86 -158 86 -79 c 0,0,0
 86 -69 86 -69 88 -57 c 0,1,2
 90 -45 90 -45 92.5 -36 c 0,3,4
 95 -27 95 -27 101 -9.5 c 0,5,6
 107 8 107 8 109.5 15 c 0,7,8
 112 22 112 22 121 43.5 c 0,9,10
 130 65 130 65 132 71 c 0,0,0
 135 78 135 78 141.5 94.5 c 0,1,2
 148 111 148 111 151 118 c 0,3,4
 154 125 154 125 159 138.5 c 0,5,6
 164 152 164 152 166.5 160 c 0,7,8
 169 168 169 168 172 179 c 0,9,10
 175 190 175 190 176 198.5 c 0,11,12
 177 207 177 207 177 215 c 0,0,0
 177 252 177 252 109 257 c 1,0,0
 104 272 104 272 114 279 c 1,0,0
 146 281 146 281 168 288.5 c 0,1,2
 190 296 190 296 201.5 310 c 0,3,4
 213 324 213 324 217 332.5 c 0,5,6
 221 341 221 341 226 357 c 0,0,0
 236 388 236 388 250 460 c 0,0,0
 265 537 265 537 274 570 c 0,0,0
 310 694 310 694 450 694 c 1,0,0
 452 682 452 682 444 676 c 1,0,0
 350 660 350 660 331 578 c 0,0,0
 320 533 320 533 310 476 c 0,0,0
EndSplineSet
EndChar

StartChar: bar
Encoding: 124 124 93
Width: 260
Flags: MW
HStem: -250 1000<140 199 140 199>
VStem: 140 59<-250 750 -250 750>
LayerCount: 2
Fore
SplineSet
199 750 m 1,0,0
 199 -250 l 1,0,0
 140 -250 l 1,0,0
 140 750 l 1,0,0
 199 750 l 1,0,0
EndSplineSet
EndChar

StartChar: braceright
Encoding: 125 125 94
Width: 320
Flags: MW
HStem: 677 17
VStem: 177 57<319.5 340.5 305.5 355> 270 55<594.5 629>
LayerCount: 2
Fore
SplineSet
101 60 m 0,0,0
 114 136 114 136 122 163 c 0,0,0
 146 247 146 247 227 266 c 1,0,0
 228 270 l 1,0,0
 177 283 177 283 177 339 c 0,0,0
 177 350 177 350 183 370.5 c 0,1,2
 189 391 189 391 196 407.5 c 0,3,4
 203 424 203 424 213 447 c 0,5,6
 223 470 223 470 225 476 c 0,0,0
 225 477 225 477 236.5 503.5 c 0,1,2
 248 530 248 530 253 542.5 c 0,3,4
 258 555 258 555 264 575.5 c 0,5,6
 270 596 270 596 270 608 c 0,0,0
 270 664 270 664 209 677 c 1,0,0
 207 690 207 690 214 694 c 1,0,0
 325 694 325 694 325 615 c 0,0,0
 325 605 325 605 323 593 c 0,1,2
 321 581 321 581 318.5 572 c 0,3,4
 316 563 316 563 310 545.5 c 0,5,6
 304 528 304 528 301.5 521 c 0,7,8
 299 514 299 514 290 492.5 c 0,9,10
 281 471 281 471 279 465 c 0,0,0
 276 458 276 458 269.5 441.5 c 0,1,2
 263 425 263 425 260 418 c 0,3,4
 257 411 257 411 252 397.5 c 0,5,6
 247 384 247 384 244.5 376 c 0,7,8
 242 368 242 368 239 357 c 0,9,10
 236 346 236 346 235 337.5 c 0,11,12
 234 329 234 329 234 321 c 0,0,0
 234 284 234 284 302 279 c 1,0,0
 307 264 307 264 297 257 c 1,0,0
 265 255 265 255 243 247.5 c 0,1,2
 221 240 221 240 209.5 226 c 0,3,4
 198 212 198 212 194 203.5 c 0,5,6
 190 195 190 195 185 179 c 0,0,0
 175 148 175 148 161 76 c 0,0,0
 146 -1 146 -1 137 -34 c 0,0,0
 125 -75 125 -75 103.5 -102 c 0,1,2
 82 -129 82 -129 55 -140.5 c 0,3,4
 28 -152 28 -152 6 -155.5 c 0,5,6
 -16 -159 -16 -159 -39 -158 c 1,0,0
 -41 -146 -41 -146 -33 -140 c 1,0,0
 61 -124 61 -124 80 -42 c 0,0,0
 91 3 91 3 101 60 c 0,0,0
EndSplineSet
EndChar

StartChar: asciitilde
Encoding: 126 126 95
Width: 560
Flags: MW
HStem: 181 49<218 238 238 342 342 362>
VStem: 116 348
LayerCount: 2
Fore
SplineSet
218 230 m 2,0,0
 342 230 l 2,0,0
 379 230 379 230 395 242.5 c 0,1,2
 411 255 411 255 431 295 c 1,0,0
 441 299 441 299 451 295.5 c 0,1,2
 461 292 461 292 464 281 c 1,0,0
 439 218 439 218 418 199 c 0,0,0
 398 181 398 181 362 181 c 2,0,0
 238 181 l 2,0,0
 201 181 201 181 185 168 c 0,1,2
 169 155 169 155 149 115 c 1,0,0
 139 111 139 111 129 114.5 c 0,1,2
 119 118 119 118 116 129 c 1,0,0
 139 185 139 185 161 209 c 0,0,0
 182 230 182 230 218 230 c 2,0,0
EndSplineSet
EndChar

StartChar: exclamdown
Encoding: 161 161 96
Width: 206
Flags: MW
HStem: 285 109<149.5 165.5> 374 20G<149.5 178.5>
VStem: 107 101<329 350>
LayerCount: 2
Fore
SplineSet
-15 -266 m 0,0,0
 -43 -266 -43 -266 -52 -257.5 c 0,1,2
 -61 -249 -61 -249 -56 -234 c 0,0,0
 -54 -229 -54 -229 -50.5 -220 c 0,1,2
 -47 -211 -47 -211 -39 -190.5 c 0,3,4
 -31 -170 -31 -170 -23 -150 c 2,0,0
 101 175 l 2,0,0
 104 181 104 181 113 181 c 0,1,2
 122 181 122 181 127 175 c 1,0,0
 58 -148 l 2,0,0
 44 -216 44 -216 38 -235 c 0,0,0
 32 -255 32 -255 21.5 -260.5 c 0,1,2
 11 -266 11 -266 -15 -266 c 0,0,0
164 394 m 0,0,0
 185 394 185 394 196.5 380.5 c 0,1,2
 208 367 208 367 208 349 c 0,0,0
 208 320 208 320 191 302.5 c 0,1,2
 174 285 174 285 151 285 c 0,0,0
 130 285 130 285 118.5 297.5 c 0,1,2
 107 310 107 310 107 332 c 0,0,0
 107 358 107 358 124.5 376 c 0,1,2
 142 394 142 394 164 394 c 0,0,0
EndSplineSet
EndChar

StartChar: cent
Encoding: 162 162 97
Width: 500
Flags: MW
HStem: -4 8 106 36 495 32
VStem: 120 77<255 342.5 255 346.5>
LayerCount: 2
Fore
SplineSet
275 154 m 1,0,0
 375 495 l 1,0,0
 300 491 300 491 248.5 430 c 0,1,2
 197 369 197 369 197 293 c 0,0,0
 197 180 197 180 275 154 c 1,0,0
413 492 m 1,0,0
 311 145 l 1,0,0
 340 135 340 135 386.5 153 c 0,1,2
 433 171 433 171 457 196 c 0,0,0
 462 196 462 196 466 191 c 0,1,2
 470 186 470 186 469 180 c 0,0,0
 446 149 446 149 400 127.5 c 0,1,2
 354 106 354 106 299 106 c 1,0,0
 269 4 l 1,0,0
 262 -4 262 -4 249 -3.5 c 0,1,2
 236 -3 236 -3 230 4 c 1,0,0
 261 109 l 1,0,0
 191 120 191 120 155.5 166 c 0,1,2
 120 212 120 212 120 275 c 0,0,0
 120 379 120 379 198.5 449.5 c 0,1,2
 277 520 277 520 384 526 c 1,0,0
 409 612 l 1,0,0
 430 622 430 622 448 612 c 1,0,0
 423 527 l 1,0,0
 486 523 486 523 522 501 c 1,0,0
 533 488 533 488 527 463 c 0,0,0
 524 452 524 452 515.5 440.5 c 0,1,2
 507 429 507 429 500 429 c 0,0,0
 495 429 495 429 493 432 c 0,0,0
 461 480 461 480 413 492 c 1,0,0
EndSplineSet
EndChar

StartChar: sterling
Encoding: 163 163 98
Width: 500
Flags: MW
HStem: -26 43<359 359.5> -14 21G<24 38.5> 47 29 282 32<115 219 106 223 304 441> 605 35<418.5 430.5>
VStem: -4 84<7 21 7 24> 219 85<282 314>
LayerCount: 2
Fore
SplineSet
441 282 m 1,0,0
 299 282 l 1,0,0
 285 207 285 207 253 157.5 c 0,1,2
 221 108 221 108 164 78 c 1,0,0
 164 76 l 1,0,0
 182 76 182 76 204 73 c 0,0,0
 221 71 221 71 285 43 c 0,0,0
 345 17 345 17 372 17 c 0,0,0
 427 17 427 17 416 90 c 0,0,0
 414 104 414 104 420.5 112.5 c 0,1,2
 427 121 427 121 439 121 c 0,0,0
 453 121 453 121 464.5 108.5 c 0,1,2
 476 96 476 96 476 76 c 0,0,0
 476 35 476 35 428.5 4.5 c 0,1,2
 381 -26 381 -26 319 -26 c 0,0,0
 272 -26 272 -26 217 0 c 0,0,0
 207 5 207 5 186.5 15 c 0,1,2
 166 25 166 25 149 33 c 0,3,4
 132 41 132 41 115 47 c 1,0,0
 101 45 101 45 90.5 35 c 0,1,2
 80 25 80 25 80 14 c 0,0,0
 80 4 80 4 62 -5 c 0,1,2
 44 -14 44 -14 31 -14 c 0,0,0
 18 -14 18 -14 7 -8 c 0,1,2
 -4 -2 -4 -2 -4 10 c 0,0,0
 -4 31 -4 31 27 51 c 0,1,2
 58 71 58 71 104 77 c 0,0,0
 154 83 154 83 182.5 141.5 c 0,1,2
 211 200 211 200 219 282 c 1,0,0
 106 282 l 1,0,0
 101 289 101 289 103.5 299.5 c 0,1,2
 106 310 106 310 115 314 c 1,0,0
 223 314 l 1,0,0
 234 408 234 408 251 468.5 c 0,1,2
 268 529 268 529 308 574 c 0,0,0
 366 640 366 640 443 640 c 0,0,0
 538 640 538 640 538 578 c 0,0,0
 538 565 538 565 527 550 c 0,1,2
 516 535 516 535 509 535 c 0,0,0
 501 535 501 535 493 549 c 0,0,0
 463 605 463 605 411 605 c 0,0,0
 356 605 356 605 332 517 c 0,0,0
 326 493 326 493 321 464.5 c 0,1,2
 316 436 316 436 314 417 c 0,3,4
 312 398 312 398 308.5 363 c 0,5,6
 305 328 305 328 304 314 c 1,0,0
 447 314 l 1,0,0
 453 306 453 306 451 295 c 0,1,2
 449 284 449 284 441 282 c 1,0,0
EndSplineSet
EndChar

StartChar: fraction
Encoding: 8725 8260 99
AltUni2: 002215.ffffffff.0
Width: 100
Flags: MW
HStem: -40 694<-164 381>
VStem: -182 586
LayerCount: 2
Fore
SplineSet
-182 -14 m 1,0,0
 92 311 92 311 375 654 c 1,0,0
 385 654 385 654 394.5 647 c 0,1,2
 404 640 404 640 404 629 c 1,0,0
 153 332 153 332 -155 -40 c 1,0,0
 -182 -40 -182 -40 -182 -14 c 1,0,0
EndSplineSet
EndChar

StartChar: yen
Encoding: 165 165 100
Width: 500
Flags: MW
HStem: -3 24 211 32<94 238 85 246 315 460> 324 32<126 239 126 246 118 239 382 502> 601 30
VStem: 93 170 128 138 462 7 646 7
LayerCount: 2
Fore
SplineSet
460 211 m 1,0,0
 304 211 l 1,0,0
 275 113 l 2,0,0
 259 62 259 62 264 45 c 0,1,2
 269 28 269 28 307 23 c 2,0,0
 336 19 l 1,0,0
 345 7 345 7 333 -3 c 1,0,0
 272 0 272 0 215 0 c 0,0,0
 150 0 150 0 97 -3 c 1,0,0
 92 1 92 1 92.5 8 c 0,1,2
 93 15 93 15 99 19 c 2,0,0
 125 23 l 2,0,0
 166 29 166 29 180.5 44.5 c 0,1,2
 195 60 195 60 211 116 c 2,0,0
 238 211 l 1,0,0
 85 211 l 1,0,0
 82 217 82 217 84.5 228 c 0,1,2
 87 239 87 239 94 243 c 1,0,0
 246 243 l 1,0,0
 256 275 256 275 251 301 c 2,0,0
 246 324 l 1,0,0
 118 324 l 1,0,0
 115 330 115 330 117 341 c 0,1,2
 119 352 119 352 126 356 c 1,0,0
 239 356 l 1,0,0
 204 518 l 2,0,0
 193 566 193 566 184 581.5 c 0,1,2
 175 597 175 597 152 604 c 2,0,0
 131 610 l 2,0,0
 127 615 127 615 128 622 c 0,1,2
 129 629 129 629 135 631 c 0,0,0
 186 628 186 628 238 628 c 0,0,0
 299 628 299 628 335 631 c 1,0,0
 341 627 341 627 341 620.5 c 0,1,2
 341 614 341 614 336 610 c 2,0,0
 293 601 l 2,0,0
 271 597 271 597 267 587 c 0,1,2
 263 577 263 577 269 549 c 2,0,0
 300 387 l 2,0,0
 310 332 310 332 316 326 c 1,0,0
 324 331 324 331 355 371 c 2,0,0
 477 525 l 2,0,0
 507 564 507 564 511.5 579.5 c 0,1,2
 516 595 516 595 495 602 c 2,0,0
 465 610 l 1,0,0
 456 623 456 623 469 631 c 1,0,0
 526 628 526 628 567 628 c 0,0,0
 601 628 601 628 646 631 c 1,0,0
 659 621 659 621 649 610 c 1,0,0
 621 603 l 2,0,0
 611 600 611 600 600 594 c 0,1,2
 589 588 589 588 581.5 582.5 c 0,3,4
 574 577 574 577 562 565 c 0,5,6
 550 553 550 553 545.5 548 c 0,7,8
 541 543 541 543 528 528 c 0,9,10
 515 513 515 513 513 510 c 2,0,0
 382 356 l 1,0,0
 510 356 l 1,0,0
 514 349 514 349 512 338.5 c 0,1,2
 510 328 510 328 502 324 c 1,0,0
 356 324 l 1,0,0
 329 290 329 290 315 243 c 1,0,0
 469 243 l 1,0,0
 473 236 473 236 470.5 225.5 c 0,1,2
 468 215 468 215 460 211 c 1,0,0
EndSplineSet
EndChar

StartChar: florin
Encoding: 402 402 101
Width: 500
Flags: MW
HStem: -122 40<44 118> 366 32<173 258 166 266 345 460> 626 32<475 485.5>
VStem: 536 54<573 578>
LayerCount: 2
Fore
SplineSet
460 366 m 1,0,0
 336 366 l 1,0,0
 326 330 326 330 300.5 237 c 0,1,2
 275 144 275 144 260 93 c 0,0,0
 221 -37 221 -37 180 -71 c 0,0,0
 124 -122 124 -122 67 -122 c 0,0,0
 36 -122 36 -122 19 -105 c 0,1,2
 2 -88 2 -88 1 -71 c 0,0,0
 1 -50 1 -50 20 -34 c 0,0,0
 34 -22 34 -22 48 -44 c 0,0,0
 74 -82 74 -82 109 -82 c 0,0,0
 147 -82 147 -82 169 2 c 0,0,0
 181 45 181 45 215.5 193.5 c 0,1,2
 250 342 250 342 258 366 c 1,0,0
 166 366 l 1,0,0
 159 373 159 373 161 382 c 0,1,2
 163 391 163 391 173 398 c 1,0,0
 266 398 l 1,0,0
 298 515 298 515 347 577 c 0,0,0
 411 658 411 658 501 658 c 0,0,0
 536 658 536 658 563 639.5 c 0,1,2
 590 621 590 621 590 592 c 0,0,0
 590 567 590 567 576.5 550 c 0,1,2
 563 533 563 533 552 533 c 0,0,0
 536 533 536 533 536 548 c 0,0,0
 536 588 536 588 516.5 607 c 0,1,2
 497 626 497 626 473 626 c 0,0,0
 436 626 436 626 403 569 c 0,0,0
 375 522 375 522 345 398 c 1,0,0
 467 398 l 1,0,0
 481 380 481 380 460 366 c 1,0,0
EndSplineSet
EndChar

StartChar: section
Encoding: 167 167 102
Width: 460
Flags: MW
HStem: -133 51<118.5 120> 650 47<375.5 455.5>
VStem: 122 60<386.5 416.5> 227 51<5 5 5 22> 259 53 357 64<143.5 164>
LayerCount: 2
Fore
SplineSet
437 697 m 0,0,0
 465 697 465 697 486.5 678 c 0,1,2
 508 659 508 659 508 632 c 0,0,0
 508 593 508 593 481 593 c 0,0,0
 474 593 474 593 467 608 c 0,0,0
 443 650 443 650 403 650 c 0,0,0
 362 650 362 650 337 626.5 c 0,1,2
 312 603 312 603 312 565 c 0,0,0
 312 501 312 501 358 389 c 0,0,0
 362 378 362 378 371.5 354.5 c 0,1,2
 381 331 381 331 384.5 322.5 c 0,3,4
 388 314 388 314 395 296 c 0,5,6
 402 278 402 278 404.5 270 c 0,7,8
 407 262 407 262 411.5 248.5 c 0,9,10
 416 235 416 235 417 226 c 0,11,12
 418 217 418 217 419.5 206 c 0,13,14
 421 195 421 195 421 184 c 0,0,0
 421 128 421 128 391 83 c 0,1,2
 361 38 361 38 300 -18 c 0,0,0
 175 -133 175 -133 94 -133 c 0,0,0
 58 -133 58 -133 32.5 -111 c 0,1,2
 7 -89 7 -89 7 -55 c 0,0,0
 7 -41 7 -41 19.5 -37.5 c 0,1,2
 32 -34 32 -34 43 -44 c 0,0,0
 92 -82 92 -82 137 -82 c 0,0,0
 175 -82 175 -82 201 -60.5 c 0,1,2
 227 -39 227 -39 227 2 c 0,0,0
 227 64 227 64 175 189 c 0,0,0
 122 313 122 313 122 371 c 0,0,0
 122 436 122 436 174 509.5 c 0,1,2
 226 583 226 583 301 635 c 0,0,0
 391 697 391 697 437 697 c 0,0,0
182 415 m 0,0,0
 182 342 182 342 228 234 c 0,0,0
 280 111 280 111 281 74 c 0,0,0
 283 40 283 40 278 5 c 1,0,0
 280 3 l 1,0,0
 308 29 308 29 332.5 71 c 0,1,2
 357 113 357 113 357 160 c 0,0,0
 357 217 357 217 318 313 c 0,0,0
 262 451 262 451 259 479 c 0,0,0
 255 532 255 532 266 566 c 1,0,0
 265 570 l 1,0,0
 236 544 236 544 209 500 c 0,1,2
 182 456 182 456 182 415 c 0,0,0
EndSplineSet
EndChar

StartChar: currency
Encoding: 164 164 103
Width: 500
Flags: MW
HStem: 99 46<283.5 330.5> 481 46<283.5 330.5 283.5 348.5>
VStem: 91 57<288 338> 466 57<288 338 288 359.5>
LayerCount: 2
Fore
SplineSet
307 481 m 0,0,0
 243 481 243 481 195.5 431.5 c 0,1,2
 148 382 148 382 148 313 c 0,0,0
 148 242 148 242 195.5 193.5 c 0,1,2
 243 145 243 145 307 145 c 0,0,0
 370 145 370 145 418 194 c 0,1,2
 466 243 466 243 466 313 c 0,0,0
 466 382 466 382 418 431.5 c 0,1,2
 370 481 370 481 307 481 c 0,0,0
307 527 m 0,0,0
 377 527 377 527 432 487 c 1,0,0
 473 538 l 1,0,0
 491 533 491 533 505.5 519 c 0,1,2
 520 505 520 505 522 490 c 1,0,0
 477 445 l 1,0,0
 523 389 523 389 523 313 c 0,0,0
 523 237 523 237 477 181 c 1,0,0
 522 136 l 1,0,0
 520 121 520 121 505.5 107 c 0,1,2
 491 93 491 93 473 88 c 1,0,0
 432 139 l 1,0,0
 377 99 377 99 307 99 c 0,0,0
 237 99 237 99 182 139 c 1,0,0
 141 88 l 1,0,0
 123 93 123 93 108.5 107 c 0,1,2
 94 121 94 121 92 136 c 1,0,0
 137 181 l 1,0,0
 91 237 91 237 91 313 c 0,0,0
 91 389 91 389 137 445 c 1,0,0
 92 490 l 1,0,0
 94 505 94 505 108.5 519 c 0,1,2
 123 533 123 533 141 538 c 1,0,0
 182 487 l 1,0,0
 237 527 237 527 307 527 c 0,0,0
EndSplineSet
EndChar

StartChar: quotesingle
Encoding: 39 39 104
Width: 208
Flags: MW
HStem: 456 230
VStem: 201 103
LayerCount: 2
Fore
SplineSet
271 686 m 0,0,0
 292 686 292 686 298.5 680 c 0,1,2
 305 674 305 674 303 662 c 0,3,4
 301 650 301 650 290 623 c 2,0,0
 224 462 l 2,0,0
 221 456 221 456 212.5 456 c 0,1,2
 204 456 204 456 201 462 c 2,0,0
 219 623 l 2,0,0
 224 666 224 666 231.5 676 c 0,1,2
 239 686 239 686 271 686 c 0,0,0
EndSplineSet
EndChar

StartChar: quotedblleft
Encoding: 8220 8220 105
Width: 380
Flags: MW
HStem: 479 216
VStem: 168 64<566 591> 330 64<566 591>
LayerCount: 2
Fore
SplineSet
237 479 m 0,0,0
 205 479 205 479 186.5 502.5 c 0,1,2
 168 526 168 526 168 556 c 0,0,0
 168 604 168 604 213.5 641.5 c 0,1,2
 259 679 259 679 315 695 c 1,0,0
 327 689 327 689 321 676 c 1,0,0
 232 634 232 634 232 575 c 0,0,0
 232 548 232 548 264 537 c 0,0,0
 279 531 279 531 279 516 c 0,0,0
 279 501 279 501 266.5 490 c 0,1,2
 254 479 254 479 237 479 c 0,0,0
399 479 m 0,0,0
 367 479 367 479 348.5 502.5 c 0,1,2
 330 526 330 526 330 556 c 0,0,0
 330 604 330 604 375.5 641.5 c 0,1,2
 421 679 421 679 477 695 c 1,0,0
 489 689 489 689 483 676 c 1,0,0
 394 634 394 634 394 575 c 0,0,0
 394 548 394 548 426 537 c 0,0,0
 441 531 441 531 441 516 c 0,0,0
 441 501 441 501 428.5 490 c 0,1,2
 416 479 416 479 399 479 c 0,0,0
EndSplineSet
EndChar

StartChar: guillemotleft
Encoding: 171 171 106
Width: 400
Flags: MW
HStem: 39 332
VStem: 74 72 214 72
LayerCount: 2
Fore
SplineSet
146 194 m 2,0,0
 186 49 l 2,0,0
 184 43 184 43 178 40 c 0,1,2
 172 37 172 37 167 39 c 0,0,0
 115 133 115 133 79 190 c 0,0,0
 69 205 69 205 85 221 c 0,0,0
 111 247 111 247 162 297 c 0,1,2
 213 347 213 347 237 371 c 1,0,0
 249 373 249 373 251 358 c 1,0,0
 151 218 l 2,0,0
 142 207 142 207 146 194 c 2,0,0
286 194 m 2,0,0
 326 49 l 2,0,0
 324 43 324 43 318 40 c 0,1,2
 312 37 312 37 307 39 c 0,0,0
 255 133 255 133 219 190 c 0,0,0
 209 205 209 205 225 221 c 0,0,0
 251 247 251 247 302 297 c 0,1,2
 353 347 353 347 377 371 c 1,0,0
 389 373 389 373 391 358 c 1,0,0
 291 218 l 2,0,0
 282 207 282 207 286 194 c 2,0,0
EndSplineSet
EndChar

StartChar: guilsinglleft
Encoding: 8249 8249 107
Width: 260
Flags: MW
HStem: 39 332
VStem: 74 72
LayerCount: 2
Fore
SplineSet
146 194 m 2,0,0
 186 49 l 2,0,0
 184 43 184 43 178 40 c 0,1,2
 172 37 172 37 167 39 c 0,0,0
 115 133 115 133 79 190 c 0,0,0
 69 205 69 205 85 221 c 0,0,0
 111 247 111 247 162 297 c 0,1,2
 213 347 213 347 237 371 c 1,0,0
 249 373 249 373 251 358 c 1,0,0
 151 218 l 2,0,0
 142 207 142 207 146 194 c 2,0,0
EndSplineSet
EndChar

StartChar: guilsinglright
Encoding: 8250 8250 108
Width: 260
Flags: MW
HStem: 39 332
VStem: 156 72
LayerCount: 2
Fore
SplineSet
51 52 m 1,0,0
 151 192 l 2,0,0
 160 203 160 203 156 216 c 2,0,0
 116 361 l 2,0,0
 118 367 118 367 124 370 c 0,1,2
 130 373 130 373 135 371 c 0,0,0
 187 277 187 277 223 220 c 0,0,0
 233 205 233 205 217 189 c 0,0,0
 191 163 191 163 140 113 c 0,1,2
 89 63 89 63 65 39 c 1,0,0
 53 37 53 37 51 52 c 1,0,0
EndSplineSet
EndChar

StartChar: fi
Encoding: 64257 64257 109
Width: 503
Flags: MW
HStem: -269 41<-103 -28> -14 21G<294.5 331.5> -14 62<294.5 373.5> 357 37<82 158 75 168 240 335 335 351.5> 388 20G<463.5 478.5> 685 30<423 449>
VStem: 278 81 400 84 484 76<621 640.5>
LayerCount: 2
Fore
SplineSet
158 357 m 1,0,0
 75 357 l 1,0,0
 68 365 68 365 70 376.5 c 0,1,2
 72 388 72 388 82 394 c 1,0,0
 168 394 l 1,0,0
 219 564 219 564 285 634 c 0,0,0
 362 715 362 715 451 715 c 0,0,0
 499 715 499 715 529.5 693 c 0,1,2
 560 671 560 671 560 636 c 0,0,0
 560 615 560 615 545 604 c 0,1,2
 530 593 530 593 513 593 c 0,0,0
 484 593 484 593 484 618 c 0,0,0
 484 685 484 685 433 685 c 0,0,0
 382 685 382 685 339 628 c 0,0,0
 318 599 318 599 298 554.5 c 0,1,2
 278 510 278 510 268 481 c 0,3,4
 258 452 258 452 240 394 c 1,0,0
 335 394 l 2,0,0
 365 394 365 394 419 401 c 0,0,0
 459 408 459 408 468 408 c 0,0,0
 497 408 497 408 476 355 c 2,0,0
 362 70 l 2,0,0
 353 48 353 48 365 48 c 0,0,0
 378 48 378 48 411 71 c 0,1,2
 444 94 444 94 469 122 c 1,0,0
 484 120 484 120 484 105 c 1,0,0
 469 77 469 77 406 31.5 c 0,1,2
 343 -14 343 -14 297 -14 c 0,0,0
 288 -14 288 -14 281 -5 c 0,0,0
 272 5.5 272 5.5 278 22 c 2,0,0
 396 326 l 2,0,0
 404 344 404 344 398.5 350.5 c 0,1,2
 393 357 393 357 367 357 c 2,0,0
 230 357 l 1,0,0
 227 347 227 347 218.5 318 c 0,1,2
 210 289 210 289 207 278 c 0,0,0
 195 238 195 238 163.5 123 c 0,1,2
 132 8 132 8 113 -54 c 0,0,0
 73 -183 73 -183 34 -218 c 0,0,0
 -17 -269 -17 -269 -80 -269 c 0,0,0
 -111 -269 -111 -269 -128 -251.5 c 0,1,2
 -145 -234 -145 -234 -145 -218 c 0,0,0
 -145 -196 -145 -196 -126 -182 c 0,0,0
 -111 -169 -111 -169 -97 -191 c 0,0,0
 -74 -228 -74 -228 -37 -228 c 0,0,0
 0 -228 0 -228 26 -145 c 0,0,0
 53 -57 53 -57 94 112 c 0,1,2
 135 281 135 281 158 357 c 1,0,0
EndSplineSet
EndChar

StartChar: fl
Encoding: 64258 64258 110
Width: 489
Flags: MW
HStem: -269 41<-103 -28> -14 46<365 371> 357 37<83 158 76 168 240 400> 685 30<410.5 449>
VStem: 291 70 487 34
LayerCount: 2
Fore
SplineSet
83 394 m 1,0,0
 168 394 l 1,0,0
 216 559 216 559 283 636 c 0,0,0
 354 715 354 715 440 715 c 0,0,0
 487 715 487 715 521 683 c 1,0,0
 559 708 559 708 580 715 c 1,0,0
 587 709 l 1,0,0
 570 664 570 664 526 537 c 2,0,0
 366 65 l 2,0,0
 355 32 355 32 371 32 c 0,0,0
 397 32 397 32 486 133 c 1,0,0
 502 135 502 135 502 119 c 1,0,0
 476 69 476 69 430.5 27.5 c 0,1,2
 385 -14 385 -14 329 -14 c 0,0,0
 291 -14 291 -14 291 16 c 0,0,0
 291 35 291 35 313 101 c 2,0,0
 400 357 l 1,0,0
 230 357 l 1,0,0
 227 347 227 347 218.5 318 c 0,1,2
 210 289 210 289 207 278 c 0,0,0
 195 238 195 238 163.5 123 c 0,1,2
 132 8 132 8 113 -54 c 0,0,0
 73 -183 73 -183 34 -218 c 0,0,0
 -17 -269 -17 -269 -80 -269 c 0,0,0
 -111 -269 -111 -269 -128 -251.5 c 0,1,2
 -145 -234 -145 -234 -145 -218 c 0,0,0
 -145 -196 -145 -196 -126 -182 c 0,0,0
 -111 -169 -111 -169 -97 -191 c 0,0,0
 -74 -228 -74 -228 -37 -228 c 0,0,0
 0 -228 0 -228 26 -145 c 0,0,0
 53 -57 53 -57 94 112 c 0,1,2
 135 281 135 281 158 357 c 1,0,0
 76 357 l 1,0,0
 69 364 69 364 71 375.5 c 0,1,2
 73 387 73 387 83 394 c 1,0,0
240 394 m 1,0,0
 412 394 l 1,0,0
 483 601 l 2,0,0
 495 636 495 636 478 660.5 c 0,1,2
 461 685 461 685 428 685 c 0,0,0
 379 685 379 685 340 633 c 0,0,0
 290 565 290 565 240 394 c 1,0,0
EndSplineSet
EndChar

StartChar: endash
Encoding: 8211 8211 111
Width: 500
Flags: MW
HStem: 181 49<16 516 0 532>
VStem: 0 532<181 230>
LayerCount: 2
Fore
SplineSet
16 230 m 1,0,0
 532 230 l 1,0,0
 516 181 l 1,0,0
 0 181 l 1,0,0
 16 230 l 1,0,0
EndSplineSet
EndChar

StartChar: dagger
Encoding: 8224 8224 112
Width: 467
Flags: MW
HStem: 436 27<297.5 321 360 383.5> 656 20G<388 420>
VStem: 234 91
LayerCount: 2
Fore
SplineSet
188 -127 m 1,0,0
 154 -127 l 1,0,0
 194 10 l 2,0,0
 234 146 234 146 234 262 c 1,0,0
 264 289 264 289 281.5 326 c 0,1,2
 299 363 299 363 321 436 c 1,0,0
 287 436 287 436 244.5 421.5 c 0,1,2
 202 407 202 407 191 407 c 0,0,0
 170 407 170 407 158 419.5 c 0,1,2
 146 432 146 432 151 452 c 0,0,0
 159 492 159 492 205 492 c 0,0,0
 219 492 219 492 256.5 477.5 c 0,1,2
 294 463 294 463 328 463 c 1,0,0
 348 529 348 529 347 576 c 0,1,2
 346 623 346 623 347 630 c 0,0,0
 351 649 351 649 366.5 662.5 c 0,1,2
 382 676 382 676 403 676 c 0,0,0
 426 676 426 676 434.5 660.5 c 0,1,2
 443 645 443 645 438 626 c 0,0,0
 434 613 434 613 421 594.5 c 0,1,2
 408 576 408 576 391 543.5 c 0,3,4
 374 511 374 511 360 463 c 1,0,0
 394 463 394 463 436.5 477.5 c 0,1,2
 479 492 479 492 493 492 c 0,0,0
 513 492 513 492 523 479.5 c 0,1,2
 533 467 533 467 529 448 c 0,0,0
 525 429 525 429 510.5 418 c 0,1,2
 496 407 496 407 476 407 c 0,0,0
 461 407 461 407 424 421.5 c 0,1,2
 387 436 387 436 353 436 c 1,0,0
 338 386 338 386 332 358 c 0,1,2
 326 330 326 330 326 305.5 c 0,3,4
 326 281 326 281 336 262 c 1,0,0
 269 150 269 150 228 10 c 2,0,0
 188 -127 l 1,0,0
EndSplineSet
EndChar

StartChar: daggerdbl
Encoding: 8225 8225 113
Width: 470
Flags: MW
HStem: 98 24<203 217 256 263> 443 24<304 318 357 364> 656 20G<383.5 415.5>
VStem: 251 76
LayerCount: 2
Fore
SplineSet
174 -124 m 0,0,0
 149 -124 149 -124 140.5 -108.5 c 0,1,2
 132 -93 132 -93 138 -74 c 0,0,0
 140 -65 140 -65 169 -15.5 c 0,1,2
 198 34 198 34 217 98 c 1,0,0
 181 98 181 98 140 82 c 0,0,0
 100 68 100 68 83 68 c 0,0,0
 65 68 65 68 55 79.5 c 0,1,2
 45 91 45 91 48 111 c 0,0,0
 52 129 52 129 66 140.5 c 0,1,2
 80 152 80 152 101 152 c 0,0,0
 115 152 115 152 152.5 137 c 0,1,2
 190 122 190 122 224 122 c 1,0,0
 239 174 239 174 245 201 c 0,1,2
 251 228 251 228 250 250.5 c 0,3,4
 249 273 249 273 237 287 c 1,0,0
 265 309 265 309 281.5 342 c 0,1,2
 298 375 298 375 318 443 c 1,0,0
 282 443 282 443 241 427 c 0,0,0
 201 413 201 413 184 413 c 0,0,0
 166 413 166 413 156 424.5 c 0,1,2
 146 436 146 436 149 456 c 0,0,0
 153 474 153 474 167 485.5 c 0,1,2
 181 497 181 497 202 497 c 0,0,0
 216 497 216 497 253.5 482 c 0,1,2
 291 467 291 467 325 467 c 1,0,0
 344 532 344 532 343.5 579 c 0,1,2
 343 626 343 626 345 634 c 0,0,0
 358 676 358 676 399 676 c 0,0,0
 422 676 422 676 430 660.5 c 0,1,2
 438 645 438 645 433 625 c 0,0,0
 431 617 431 617 418.5 600 c 0,1,2
 406 583 406 583 388.5 549 c 0,3,4
 371 515 371 515 357 467 c 1,0,0
 391 467 391 467 435 482 c 0,1,2
 479 497 479 497 492 497 c 0,0,0
 512 497 512 497 522 484 c 0,1,2
 532 471 532 471 527 451 c 0,0,0
 519 413 519 413 478 413 c 0,0,0
 464 413 464 413 422 428 c 0,0,0
 384 443 384 443 350 443 c 1,0,0
 331 378 331 378 328 346.5 c 0,1,2
 325 315 325 315 339 287 c 1,0,0
 312 267 312 267 295 231.5 c 0,1,2
 278 196 278 196 256 122 c 1,0,0
 290 122 290 122 334 137 c 0,1,2
 378 152 378 152 391 152 c 0,0,0
 411 152 411 152 420.5 139 c 0,1,2
 430 126 430 126 426 106 c 0,0,0
 418 68 418 68 377 68 c 0,0,0
 364 68 364 68 321 83 c 0,0,0
 284 98 284 98 249 98 c 1,0,0
 230 32 230 32 229 -24.5 c 0,1,2
 228 -81 228 -81 228 -82 c 0,0,0
 224 -98 224 -98 209.5 -111 c 0,1,2
 195 -124 195 -124 174 -124 c 0,0,0
EndSplineSet
EndChar

StartChar: periodcentered
Encoding: 8729 183 114
AltUni2: 002219.ffffffff.0
Width: 250
Flags: MW
HStem: 152 109<137.5 153.5>
VStem: 95 101<196 217>
LayerCount: 2
Fore
SplineSet
152 261 m 0,0,0
 173 261 173 261 184.5 247.5 c 0,1,2
 196 234 196 234 196 216 c 0,0,0
 196 187 196 187 179 169.5 c 0,1,2
 162 152 162 152 139 152 c 0,0,0
 118 152 118 152 106.5 164.5 c 0,1,2
 95 177 95 177 95 199 c 0,0,0
 95 225 95 225 112.5 243 c 0,1,2
 130 261 130 261 152 261 c 0,0,0
EndSplineSet
EndChar

StartChar: paragraph
Encoding: 182 182 115
Width: 500
Flags: MW
HStem: -95 30<198 218.5 198 248> -5 21G 629.5 30.5
VStem: 114 63<-46 -30 -46 -13>
LayerCount: 2
Fore
SplineSet
497 565 m 2,0,0
 358 97 l 2,0,0
 349 65 349 65 342 45 c 0,1,2
 335 25 335 25 320.5 -4.5 c 0,3,4
 306 -34 306 -34 290.5 -51.5 c 0,5,6
 275 -69 275 -69 250.5 -82 c 0,7,8
 226 -95 226 -95 197 -95 c 0,0,0
 160 -95 160 -95 137 -77 c 0,1,2
 114 -59 114 -59 114 -29 c 0,0,0
 114 -8 114 -8 125.5 6 c 0,1,2
 137 20 137 20 151 25 c 1,0,0
 167 25 167 25 180.5 15.5 c 0,1,2
 194 6 194 6 193 -5 c 1,0,0
 177 -19 177 -19 177 -37 c 0,0,0
 177 -50 177 -50 185.5 -57.5 c 0,1,2
 194 -65 194 -65 206 -65 c 0,0,0
 229 -65 229 -65 250 -39.5 c 0,1,2
 271 -14 271 -14 293 60 c 2,0,0
 342 223 l 2,0,0
 347 244 347 244 344 251.5 c 0,1,2
 341 259 341 259 328 260 c 0,0,0
 269 265 269 265 214.5 308 c 0,1,2
 160 351 160 351 160 427 c 0,0,0
 160 478 160 478 184 523 c 0,1,2
 208 568 208 568 249 597 c 0,0,0
 340 660 340 660 491 660 c 0,0,0
 590 660 590 660 613 655 c 0,0,0
 618 652 618 652 617 643.5 c 0,1,2
 616 635 616 635 611 633 c 2,0,0
 569 626 l 2,0,0
 527 619 527 619 517.5 611 c 0,1,2
 508 603 508 603 497 565 c 2,0,0
EndSplineSet
EndChar

StartChar: bullet
Encoding: 8226 8226 116
Width: 390
Flags: MW
HStem: 198 277<210.5 287.5>
VStem: 110 278<297 375>
LayerCount: 2
Fore
SplineSet
249 475 m 0,0,0
 307 475 307 475 347.5 434.5 c 0,1,2
 388 394 388 394 388 336 c 0,0,0
 388 278 388 278 347.5 238 c 0,1,2
 307 198 307 198 249 198 c 0,0,0
 191 198 191 198 150.5 238 c 0,1,2
 110 278 110 278 110 336 c 0,0,0
 110 394 110 394 150.5 434.5 c 0,1,2
 191 475 191 475 249 475 c 0,0,0
EndSplineSet
EndChar

StartChar: quotesinglbase
Encoding: 8218 8218 117
Width: 208
Flags: MW
HStem: -102 216
VStem: 74 64<2 27>
LayerCount: 2
Fore
SplineSet
69 114 m 0,0,0
 101 114 101 114 119.5 90.5 c 0,1,2
 138 67 138 67 138 37 c 0,0,0
 138 -11 138 -11 92.5 -48.5 c 0,1,2
 47 -86 47 -86 -9 -102 c 1,0,0
 -21 -96 -21 -96 -15 -83 c 1,0,0
 74 -41 74 -41 74 18 c 0,0,0
 74 45 74 45 42 56 c 0,0,0
 27 62 27 62 27 77 c 0,0,0
 27 92 27 92 39.5 103 c 0,1,2
 52 114 52 114 69 114 c 0,0,0
EndSplineSet
EndChar

StartChar: quotedblbase
Encoding: 8222 8222 118
Width: 380
Flags: MW
HStem: -102 216
VStem: 77 64<2 27> 239 64<2 27>
LayerCount: 2
Fore
SplineSet
72 114 m 0,0,0
 104 114 104 114 122.5 90.5 c 0,1,2
 141 67 141 67 141 37 c 0,0,0
 141 -11 141 -11 95.5 -48.5 c 0,1,2
 50 -86 50 -86 -6 -102 c 1,0,0
 -18 -96 -18 -96 -12 -83 c 1,0,0
 77 -41 77 -41 77 18 c 0,0,0
 77 45 77 45 45 56 c 0,0,0
 30 62 30 62 30 77 c 0,0,0
 30 92 30 92 42.5 103 c 0,1,2
 55 114 55 114 72 114 c 0,0,0
234 114 m 0,0,0
 266 114 266 114 284.5 90.5 c 0,1,2
 303 67 303 67 303 37 c 0,0,0
 303 -11 303 -11 257.5 -48.5 c 0,1,2
 212 -86 212 -86 156 -102 c 1,0,0
 144 -96 144 -96 150 -83 c 1,0,0
 239 -41 239 -41 239 18 c 0,0,0
 239 45 239 45 207 56 c 0,0,0
 192 62 192 62 192 77 c 0,0,0
 192 92 192 92 204.5 103 c 0,1,2
 217 114 217 114 234 114 c 0,0,0
EndSplineSet
EndChar

StartChar: quotedblright
Encoding: 8221 8221 119
Width: 380
Flags: MW
HStem: 470 216
VStem: 262 64<574 599> 424 64<574 599>
LayerCount: 2
Fore
SplineSet
257 686 m 0,0,0
 289 686 289 686 307.5 662.5 c 0,1,2
 326 639 326 639 326 609 c 0,0,0
 326 561 326 561 280.5 523.5 c 0,1,2
 235 486 235 486 179 470 c 1,0,0
 167 476 167 476 173 489 c 1,0,0
 262 531 262 531 262 590 c 0,0,0
 262 617 262 617 230 628 c 0,0,0
 215 634 215 634 215 649 c 0,0,0
 215 664 215 664 227.5 675 c 0,1,2
 240 686 240 686 257 686 c 0,0,0
419 686 m 0,0,0
 451 686 451 686 469.5 662.5 c 0,1,2
 488 639 488 639 488 609 c 0,0,0
 488 561 488 561 442.5 523.5 c 0,1,2
 397 486 397 486 341 470 c 1,0,0
 329 476 329 476 335 489 c 1,0,0
 424 531 424 531 424 590 c 0,0,0
 424 617 424 617 392 628 c 0,0,0
 377 634 377 634 377 649 c 0,0,0
 377 664 377 664 389.5 675 c 0,1,2
 402 686 402 686 419 686 c 0,0,0
EndSplineSet
EndChar

StartChar: guillemotright
Encoding: 187 187 120
Width: 400
Flags: MW
HStem: 39 332
VStem: 156 72 296 72
LayerCount: 2
Fore
SplineSet
51 52 m 1,0,0
 151 192 l 2,0,0
 160 203 160 203 156 216 c 2,0,0
 116 361 l 2,0,0
 118 367 118 367 124 370 c 0,1,2
 130 373 130 373 135 371 c 0,0,0
 187 277 187 277 223 220 c 0,0,0
 233 205 233 205 217 189 c 0,0,0
 191 163 191 163 140 113 c 0,1,2
 89 63 89 63 65 39 c 1,0,0
 53 37 53 37 51 52 c 1,0,0
191 52 m 1,0,0
 291 192 l 2,0,0
 300 203 300 203 296 216 c 2,0,0
 256 361 l 2,0,0
 258 367 258 367 264 370 c 0,1,2
 270 373 270 373 275 371 c 0,0,0
 327 277 327 277 363 220 c 0,0,0
 373 205 373 205 357 189 c 0,0,0
 331 163 331 163 280 113 c 0,1,2
 229 63 229 63 205 39 c 1,0,0
 193 37 193 37 191 52 c 1,0,0
EndSplineSet
EndChar

StartChar: ellipsis
Encoding: 8230 8230 121
Width: 1000
Flags: MW
HStem: -14 109<125.5 141.5 458.5 474.5 791.5 807.5>
VStem: 83 101<30 51> 416 101<30 51> 749 101<30 51>
CounterMasks: 1 70
LayerCount: 2
Fore
SplineSet
473 95 m 0,0,0
 494 95 494 95 505.5 81.5 c 0,1,2
 517 68 517 68 517 50 c 0,0,0
 517 21 517 21 500 3.5 c 0,1,2
 483 -14 483 -14 460 -14 c 0,0,0
 439 -14 439 -14 427.5 -1.5 c 0,1,2
 416 11 416 11 416 33 c 0,0,0
 416 59 416 59 433.5 77 c 0,1,2
 451 95 451 95 473 95 c 0,0,0
806 95 m 0,0,0
 827 95 827 95 838.5 81.5 c 0,1,2
 850 68 850 68 850 50 c 0,0,0
 850 21 850 21 833 3.5 c 0,1,2
 816 -14 816 -14 793 -14 c 0,0,0
 772 -14 772 -14 760.5 -1.5 c 0,1,2
 749 11 749 11 749 33 c 0,0,0
 749 59 749 59 766.5 77 c 0,1,2
 784 95 784 95 806 95 c 0,0,0
140 95 m 0,0,0
 161 95 161 95 172.5 81.5 c 0,1,2
 184 68 184 68 184 50 c 0,0,0
 184 21 184 21 167 3.5 c 0,1,2
 150 -14 150 -14 127 -14 c 0,0,0
 106 -14 106 -14 94.5 -1.5 c 0,1,2
 83 11 83 11 83 33 c 0,0,0
 83 59 83 59 100.5 77 c 0,1,2
 118 95 118 95 140 95 c 0,0,0
EndSplineSet
EndChar

StartChar: perthousand
Encoding: 8240 8240 122
Width: 1176
Flags: MW
HStem: -13 30<607 663.5 607 675> -12 30<944 1000.5 944 1012> 271 30<232 288.5 232 300> 326 30<663.5 719> 327 30<1000.5 1056> 610 30<288.5 344>
VStem: 136 65<359.5 402.5 347.5 455.5> 374 64<512.5 550.5 455 564> 511 65<75.5 118.5 63.5 171.5> 749 64<228.5 266.5 171 280> 848 65<76.5 119.5 64.5 172.5> 1086 64<229.5 267.5 172 281>
LayerCount: 2
Fore
SplineSet
331 640 m 0,0,0
 382 640 382 640 410 605.5 c 0,1,2
 438 571 438 571 438 512 c 0,0,0
 438 424 438 424 380.5 347.5 c 0,1,2
 323 271 323 271 250 271 c 0,0,0
 194 271 194 271 165 305 c 0,1,2
 136 339 136 339 136 397 c 0,0,0
 136 489 136 489 193 564.5 c 0,1,2
 250 640 250 640 331 640 c 0,0,0
201 371 m 0,0,0
 201 301 201 301 247 301 c 0,0,0
 285 301 285 301 316 350 c 0,1,2
 347 399 347 399 360.5 453 c 0,3,4
 374 507 374 507 374 544 c 0,0,0
 374 610 374 610 329 610 c 0,0,0
 292 610 292 610 261 562.5 c 0,1,2
 230 515 230 515 215.5 461 c 0,3,4
 201 407 201 407 201 371 c 0,0,0
706 356 m 0,0,0
 757 356 757 356 785 321.5 c 0,1,2
 813 287 813 287 813 228 c 0,0,0
 813 140 813 140 755.5 63.5 c 0,1,2
 698 -13 698 -13 625 -13 c 0,0,0
 569 -13 569 -13 540 21 c 0,1,2
 511 55 511 55 511 113 c 0,0,0
 511 205 511 205 568 280.5 c 0,1,2
 625 356 625 356 706 356 c 0,0,0
576 87 m 0,0,0
 576 17 576 17 622 17 c 0,0,0
 660 17 660 17 691 66 c 0,1,2
 722 115 722 115 735.5 169 c 0,3,4
 749 223 749 223 749 260 c 0,0,0
 749 326 749 326 704 326 c 0,0,0
 667 326 667 326 636 278.5 c 0,1,2
 605 231 605 231 590.5 177 c 0,3,4
 576 123 576 123 576 87 c 0,0,0
1043 357 m 0,0,0
 1094 357 1094 357 1122 322.5 c 0,1,2
 1150 288 1150 288 1150 229 c 0,0,0
 1150 141 1150 141 1092.5 64.5 c 0,1,2
 1035 -12 1035 -12 962 -12 c 0,0,0
 906 -12 906 -12 877 22 c 0,1,2
 848 56 848 56 848 114 c 0,0,0
 848 206 848 206 905 281.5 c 0,1,2
 962 357 962 357 1043 357 c 0,0,0
913 88 m 0,0,0
 913 18 913 18 959 18 c 0,0,0
 997 18 997 18 1028 67 c 0,1,2
 1059 116 1059 116 1072.5 170 c 0,3,4
 1086 224 1086 224 1086 261 c 0,0,0
 1086 327 1086 327 1041 327 c 0,0,0
 1004 327 1004 327 973 279.5 c 0,1,2
 942 232 942 232 927.5 178 c 0,3,4
 913 124 913 124 913 88 c 0,0,0
174 -14 m 1,0,0
 448 311 448 311 731 654 c 1,0,0
 741 654 741 654 750.5 647 c 0,1,2
 760 640 760 640 760 629 c 1,0,0
 509 332 509 332 201 -40 c 1,0,0
 174 -40 174 -40 174 -14 c 1,0,0
EndSplineSet
EndChar

StartChar: questiondown
Encoding: 191 191 123
Width: 300
Flags: MW
HStem: -266 59<65 90.5 62.5 115> 285 109<215.5 231.5> 374 20G<215.5 244.5>
VStem: -23 33<-158 -117 -158 -91> 173 101<329 350> 193 41
LayerCount: 2
Fore
SplineSet
153 -10 m 1,0,0
 91 -45 l 2,0,0
 50 -68 50 -68 30 -88.5 c 0,1,2
 10 -109 10 -109 10 -136 c 0,0,0
 10 -168 10 -168 31 -187.5 c 0,1,2
 52 -207 52 -207 80 -207 c 0,0,0
 103 -207 103 -207 125 -196 c 2,0,0
 147 -185 l 2,0,0
 154 -185 154 -185 160 -192.5 c 0,1,2
 166 -200 166 -200 166 -213 c 0,0,0
 166 -234 166 -234 145.5 -250 c 0,1,2
 125 -266 125 -266 94 -266 c 0,0,0
 50 -266 50 -266 13.5 -222 c 0,1,2
 -23 -178 -23 -178 -23 -124 c 0,0,0
 -23 -35 -23 -35 80 22 c 2,0,0
 147 59 l 2,0,0
 193 85 193 85 193 124 c 0,0,0
 193 147 193 147 184 172 c 1,0,0
 190 183 190 183 200 177 c 1,0,0
 244 120 244 120 231 71 c 0,0,0
 219 26 219 26 153 -10 c 1,0,0
230 394 m 0,0,0
 251 394 251 394 262.5 380.5 c 0,1,2
 274 367 274 367 274 349 c 0,0,0
 274 320 274 320 257 302.5 c 0,1,2
 240 285 240 285 217 285 c 0,0,0
 196 285 196 285 184.5 297.5 c 0,1,2
 173 310 173 310 173 332 c 0,0,0
 173 358 173 358 190.5 376 c 0,1,2
 208 394 208 394 230 394 c 0,0,0
EndSplineSet
EndChar

StartChar: grave
Encoding: 96 96 124
Width: 360
Flags: MW
HStem: 620 20G<226 236.5>
VStem: 187 162<451 608.5>
LayerCount: 2
Fore
SplineSet
333 439 m 1,0,0
 204 574 l 2,0,0
 187 591 187 591 187 604 c 0,0,0
 187 616 187 616 205 630 c 0,0,0
 220 640 220 640 230 640 c 0,0,0
 247 640 247 640 264 608 c 2,0,0
 349 451 l 1,0,0
 348 439 348 439 333 439 c 1,0,0
EndSplineSet
EndChar

StartChar: acute
Encoding: 180 180 125
Width: 360
Flags: MW
HStem: 620 20G<342.5 353>
VStem: 230 162<451 608.5>
LayerCount: 2
Fore
SplineSet
375 574 m 2,0,0
 246 439 l 1,0,0
 232 439 232 439 230 451 c 1,0,0
 315 608 l 2,0,0
 332 640 332 640 349 640 c 0,0,0
 359 640 359 640 374 630 c 0,0,0
 392 616 392 616 392 604 c 0,0,0
 392 591 392 591 375 574 c 2,0,0
EndSplineSet
EndChar

StartChar: circumflex
Encoding: 710 710 126
Width: 360
Flags: MW
HStem: 447 205<179 315.5>
VStem: 161 230<460 462>
LayerCount: 2
Fore
SplineSet
330 632 m 2,0,0
 391 460 l 1,0,0
 387 446 387 446 371 449 c 1,0,0
 311 554 l 2,0,0
 302 569 302 569 299 569 c 0,0,0
 295 569 295 569 282 556 c 2,0,0
 179 447 l 1,0,0
 163 445 163 445 161 462 c 1,0,0
 288 635 l 2,0,0
 301 652 301 652 312 652 c 0,0,0
 322 652 322 652 330 632 c 2,0,0
EndSplineSet
EndChar

StartChar: tilde
Encoding: 732 732 127
Width: 360
Flags: MW
HStem: 512 51<243 251 251 352 352 358>
VStem: 148 300
LayerCount: 2
Fore
SplineSet
358 512 m 2,0,0
 251 512 l 2,0,0
 211 512 211 512 191 493 c 0,0,0
 175 478 175 478 163 455 c 1,0,0
 153 449 153 449 148 460 c 1,0,0
 152 476 152 476 163.5 503.5 c 0,1,2
 175 531 175 531 186 543 c 0,0,0
 204 563 204 563 243 563 c 2,0,0
 352 563 l 2,0,0
 393 563 393 563 408 579 c 0,0,0
 418 590 418 590 431 608 c 1,0,0
 442 615 442 615 448 604 c 1,0,0
 436 562 436 562 408 530 c 0,0,0
 392 512 392 512 358 512 c 2,0,0
EndSplineSet
EndChar

StartChar: macron
Encoding: 713 175 128
AltUni2: 0002c9.ffffffff.0
Width: 360
Flags: MW
HStem: 512 51<180 420 180 420>
VStem: 173 255
LayerCount: 2
Fore
SplineSet
420 512 m 1,0,0
 180 512 l 1,0,0
 172 522 172 522 172 537.5 c 0,1,2
 172 553 172 553 180 563 c 1,0,0
 420 563 l 1,0,0
 428 553 428 553 428 537.5 c 0,1,2
 428 522 428 522 420 512 c 1,0,0
EndSplineSet
EndChar

StartChar: breve
Encoding: 728 728 129
Width: 360
Flags: MW
HStem: 505 53<283 339 283 345> 619 20G<195 216 437 459>
VStem: 190 26
LayerCount: 2
Fore
SplineSet
301 505 m 0,0,0
 166 505 166 505 195 639 c 1,0,0
 207 646.5 207 646.5 216 639 c 1,0,0
 215 600 215 600 241 579 c 0,1,2
 267 558 267 558 311 558 c 0,0,0
 354 558 354 558 388 579 c 0,1,2
 422 600 422 600 437 639 c 1,0,0
 449 647 449 647 459 639 c 1,0,0
 436 505 436 505 301 505 c 0,0,0
EndSplineSet
EndChar

StartChar: dotaccent
Encoding: 729 729 130
Width: 360
Flags: MW
HStem: 483 96<288 301.5>
VStem: 250 89<521 539.5>
LayerCount: 2
Fore
SplineSet
289 483 m 0,0,0
 271 483 271 483 260.5 494 c 0,1,2
 250 505 250 505 250 523 c 0,0,0
 250 547 250 547 265.5 563 c 0,1,2
 281 579 281 579 301 579 c 0,0,0
 319 579 319 579 329 567 c 0,1,2
 339 555 339 555 339 539 c 0,0,0
 339 513 339 513 324 498 c 0,1,2
 309 483 309 483 289 483 c 0,0,0
EndSplineSet
EndChar

StartChar: dieresis
Encoding: 168 168 131
Width: 360
Flags: MW
HStem: 483 96<203 216.5 377 390.5>
VStem: 165 89<521 539.5> 339 89<521 539.5>
LayerCount: 2
Fore
SplineSet
204 483 m 0,0,0
 186 483 186 483 175.5 494 c 0,1,2
 165 505 165 505 165 523 c 0,0,0
 165 547 165 547 180.5 563 c 0,1,2
 196 579 196 579 216 579 c 0,0,0
 234 579 234 579 244 567 c 0,1,2
 254 555 254 555 254 539 c 0,0,0
 254 513 254 513 239 498 c 0,1,2
 224 483 224 483 204 483 c 0,0,0
378 483 m 0,0,0
 360 483 360 483 349.5 494 c 0,1,2
 339 505 339 505 339 523 c 0,0,0
 339 547 339 547 354.5 563 c 0,1,2
 370 579 370 579 390 579 c 0,0,0
 408 579 408 579 418 567 c 0,1,2
 428 555 428 555 428 539 c 0,0,0
 428 513 428 513 413 498 c 0,1,2
 398 483 398 483 378 483 c 0,0,0
EndSplineSet
EndChar

StartChar: ring
Encoding: 730 730 132
Width: 360
Flags: MW
HStem: 461 33<290 320.5 290 334.5> 618 33<290 320.5>
VStem: 205 47<538 573.5 538 581> 358 47<538 573.5>
LayerCount: 2
Fore
SplineSet
305 651 m 0,0,0
 348 651 348 651 376.5 623 c 0,1,2
 405 595 405 595 405 556 c 0,0,0
 405 517 405 517 376.5 489 c 0,1,2
 348 461 348 461 305 461 c 0,0,0
 262 461 262 461 233.5 489 c 0,1,2
 205 517 205 517 205 556 c 0,0,0
 205 595 205 595 233.5 623 c 0,1,2
 262 651 262 651 305 651 c 0,0,0
252 556 m 0,0,0
 252 529 252 529 267 511.5 c 0,1,2
 282 494 282 494 305 494 c 0,0,0
 328 494 328 494 343 511.5 c 0,1,2
 358 529 358 529 358 556 c 0,0,0
 358 582 358 582 343 600 c 0,1,2
 328 618 328 618 305 618 c 0,0,0
 283 618 283 618 267.5 600 c 0,1,2
 252 582 252 582 252 556 c 0,0,0
EndSplineSet
EndChar

StartChar: cedilla
Encoding: 184 184 133
Width: 360
Flags: MW
HStem: -207 27<122 129>
VStem: 100 62 153 54<-149.5 -137>
LayerCount: 2
Fore
SplineSet
162 0 m 1,0,0
 195 0 l 1,0,0
 165 -39 l 2,0,0
 157 -50 157 -50 170 -61 c 0,0,0
 207 -91 207 -91 207 -126 c 0,0,0
 207 -160 207 -160 175 -183.5 c 0,1,2
 143 -207 143 -207 105 -207 c 0,0,0
 55 -207 55 -207 55 -175 c 0,0,0
 55 -167 55 -167 62 -159 c 0,1,2
 69 -151 69 -151 80 -151 c 0,0,0
 90 -151 90 -151 104 -165 c 0,0,0
 119 -180 119 -180 125 -180 c 0,0,0
 135 -180 135 -180 144 -172.5 c 0,1,2
 153 -165 153 -165 153 -149 c 0,0,0
 153 -111 153 -111 100 -87 c 1,0,0
 100 -83 l 1,0,0
 162 0 l 1,0,0
EndSplineSet
EndChar

StartChar: hungarumlaut
Encoding: 733 733 134
Width: 360
Flags: MW
HStem: 620 20G<241.5 252 401.5 412>
VStem: 129 322<451 608.5>
LayerCount: 2
Fore
SplineSet
434 574 m 2,0,0
 305 439 l 1,0,0
 290 439 290 439 289 451 c 1,0,0
 374 608 l 2,0,0
 391 640 391 640 408 640 c 0,0,0
 418 640 418 640 433 630 c 0,0,0
 451 616 451 616 451 604 c 0,0,0
 451 591 451 591 434 574 c 2,0,0
274 574 m 2,0,0
 145 439 l 1,0,0
 130 439 130 439 129 451 c 1,0,0
 214 608 l 2,0,0
 231 640 231 640 248 640 c 0,0,0
 258 640 258 640 273 630 c 0,0,0
 291 616 291 616 291 604 c 0,0,0
 291 591 291 591 274 574 c 2,0,0
EndSplineSet
EndChar

StartChar: ogonek
Encoding: 731 731 135
Width: 360
Flags: MW
HStem: -207 36<108.5 184>
VStem: 62 57<-132 -112>
LayerCount: 2
Fore
SplineSet
174 0 m 1,0,0
 210 0 l 1,0,0
 119 -60 119 -60 119 -115 c 0,0,0
 119 -141 119 -141 133.5 -156 c 0,1,2
 148 -171 148 -171 173 -171 c 0,0,0
 192 -171 192 -171 220 -158 c 1,0,0
 228 -160 228 -160 226 -169 c 1,0,0
 195 -207 195 -207 138 -207 c 0,0,0
 98 -207 98 -207 80 -185 c 0,1,2
 62 -163 62 -163 62 -132 c 0,0,0
 62 -70 62 -70 174 0 c 1,0,0
EndSplineSet
EndChar

StartChar: caron
Encoding: 711 711 136
Width: 360
Flags: MW
HStem: 452 205<292.5 429>
VStem: 217 230<642 644>
LayerCount: 2
Fore
SplineSet
447 642 m 1,0,0
 320 469 l 2,0,0
 308 452 308 452 296 452 c 0,0,0
 286 452 286 452 278 472 c 2,0,0
 217 644 l 1,0,0
 221 658 221 658 237 655 c 1,0,0
 297 550 l 2,0,0
 306 535 306 535 310 535 c 0,0,0
 313 535 313 535 326 548 c 2,0,0
 429 657 l 1,0,0
 445 659 445 659 447 642 c 1,0,0
EndSplineSet
EndChar

StartChar: emdash
Encoding: 8212 8212 137
Width: 1000
Flags: MW
HStem: 181 49<16 1016 0 1032>
VStem: 0 1032<181 230>
LayerCount: 2
Fore
SplineSet
16 230 m 1,0,0
 1032 230 l 1,0,0
 1016 181 l 1,0,0
 0 181 l 1,0,0
 16 230 l 1,0,0
EndSplineSet
EndChar

StartChar: AE
Encoding: 198 198 138
Width: 842
Flags: MW
HStem: -3 28.5 0 25 0 31 326 35<315.5 436 358 430 579 620> 629 31<552 552 552 554 650 663 663 722> 643 20G
VStem: -73 151 278 190 460 95 723 25<245 245>
LayerCount: 2
Fore
SplineSet
537 660 m 2,0,0
 788 660 l 2,0,0
 899 660 899 660 929 663 c 1,0,0
 917 633 917 633 888 530 c 0,0,0
 885 524 885 524 875 524.5 c 0,1,2
 865 525 865 525 863 531 c 0,0,0
 870 569 870 569 864 590.5 c 0,1,2
 858 612 858 612 828 620 c 0,0,0
 794 629 794 629 722 629 c 2,0,0
 663 629 l 2,0,0
 643 629 643 629 637 624 c 0,1,2
 631 619 631 619 624 595 c 2,0,0
 561 390 l 2,0,0
 554 369 554 369 556 365 c 0,1,2
 558 361 558 361 579 361 c 2,0,0
 629 361 l 2,0,0
 701 361 701 361 725.5 369.5 c 0,1,2
 750 378 750 378 767 410 c 2,0,0
 783 440 l 2,0,0
 786 445 786 445 796.5 444.5 c 0,1,2
 807 444 807 444 808 438 c 0,0,0
 796 409 796 409 774 341 c 0,0,0
 756 277 756 277 748 244 c 0,0,0
 743 238 743 238 734.5 238.5 c 0,1,2
 726 239 726 239 723 245 c 2,0,0
 723 273 l 2,0,0
 723 310 723 310 703.5 318 c 0,1,2
 684 326 684 326 620 326 c 2,0,0
 570 326 l 2,0,0
 549 326 549 326 543.5 322 c 0,1,2
 538 318 538 318 531 297 c 2,0,0
 489 162 l 2,0,0
 474 112 474 112 470.5 93.5 c 0,1,2
 467 75 467 75 472 52 c 1,0,0
 482 31 482 31 583 31 c 0,0,0
 672 31 672 31 711.5 48 c 0,1,2
 751 65 751 65 796 135 c 1,0,0
 812 145 812 145 819 129 c 1,0,0
 811 102 811 102 789.5 58.5 c 0,1,2
 768 15 768 15 750 -3 c 1,0,0
 684 -1 684 -1 639 -1 c 0,0,0
 600 0 600 0 521 0 c 2,0,0
 403 0 l 2,0,0
 350 0 350 0 284 -3 c 1,0,0
 278 1 278 1 278 9.5 c 0,1,2
 278 18 278 18 283 22 c 2,0,0
 318 28 l 2,0,0
 355 33 355 33 370 51 c 0,1,2
 385 69 385 69 408 144 c 2,0,0
 457 302 l 2,0,0
 462 318 462 318 457 322 c 0,1,2
 452 326 452 326 430 326 c 2,0,0
 327 326 l 2,0,0
 310 326 310 326 301 321 c 0,1,2
 292 316 292 316 275 295 c 0,0,0
 160 156 160 156 93 69 c 0,0,0
 65 34 65 34 93 31 c 2,0,0
 136 24 l 1,0,0
 141 19 141 19 140 9.5 c 0,1,2
 139 -0 139 -0 134 -3 c 0,0,0
 84 0 84 0 26 0 c 0,0,0
 -18 0 -18 0 -68 -3 c 1,0,0
 -73 2 -73 2 -73 11 c 0,1,2
 -73 20 -73 20 -68 24 c 2,0,0
 -46 27 l 2,0,0
 -19 31 -19 31 3 47 c 0,1,2
 25 63 25 63 64 107 c 0,0,0
 313 393 313 393 462 579 c 0,0,0
 486 609 486 609 486 617.5 c 0,1,2
 486 626 486 626 464 629 c 2,0,0
 407 638 l 2,0,0
 402 641 402 641 403.5 650.5 c 0,1,2
 405 660 405 660 412 663 c 0,0,0
 474 660 474 660 537 660 c 2,0,0
358 361 m 2,0,0
 436 361 l 2,0,0
 462 361 462 361 471 366 c 0,1,2
 480 371 480 371 486 391 c 2,0,0
 547 591 l 2,0,0
 556 621 556 621 554 629 c 1,0,0
 552 629 l 2,0,0
 548 627 548 627 543.5 621.5 c 0,1,2
 539 616 539 616 532.5 608 c 0,3,4
 526 600 526 600 523 597 c 0,0,0
 409 459 409 459 345 379 c 0,0,0
 334 367 334 367 336 364 c 0,1,2
 338 361 338 361 358 361 c 2,0,0
EndSplineSet
EndChar

StartChar: ordfeminine
Encoding: 170 170 139
Width: 364
Flags: MW
HStem: 240 21G<95.5 128.5 261.5 294.5> 240 41<261.5 321.5> 503 27<281.5 321.5>
VStem: 69 71<270 317.5> 248 61
LayerCount: 2
Fore
SplineSet
348 511 m 1,0,0
 370 557 l 1,0,0
 380 561 380 561 394 557 c 0,1,2
 408 553 408 553 413 546 c 1,0,0
 351 411 351 411 309 298 c 0,0,0
 303 281 303 281 315 281 c 0,0,0
 338 281 338 281 393 329 c 1,0,0
 405 329 405 329 405 317 c 1,0,0
 381 287 381 287 343 263.5 c 0,1,2
 305 240 305 240 270 240 c 0,0,0
 259 240 259 240 253.5 246.5 c 0,1,2
 248 253 248 253 248 259 c 0,0,0
 248 266 248 266 256 287 c 2,0,0
 278 344 l 1,0,0
 277 343 l 1,0,0
 275 345 l 1,0,0
 236 303 236 303 187 271.5 c 0,1,2
 138 240 138 240 109 240 c 0,0,0
 90 240 90 240 79.5 252 c 0,1,2
 69 264 69 264 69 280 c 0,0,0
 69 296 69 296 86 335.5 c 0,1,2
 103 375 103 375 137 418 c 0,0,0
 188 483 188 483 239 510 c 0,0,0
 279 530 279 530 314 530 c 0,0,0
 337 530 337 530 348 511 c 1,0,0
291 503 m 0,0,0
 270 503 270 503 236 476 c 0,0,0
 200 445 200 445 170 387.5 c 0,1,2
 140 330 140 330 140 293 c 0,0,0
 140 280 140 280 151 280 c 0,0,0
 170 280 170 280 222 326 c 0,0,0
 255 354 255 354 286.5 400 c 0,1,2
 318 446 318 446 327 478 c 1,0,0
 317 503 317 503 291 503 c 0,0,0
EndSplineSet
EndChar

StartChar: Lslash
Encoding: 321 321 140
Width: 554
Flags: MW
HStem: -1 21G<363 383> 0 23.5 0 31<242 249> 636 27
VStem: 21 179 277 185 431 17
LayerCount: 2
Fore
SplineSet
448 441 m 1,0,0
 278 339 l 1,0,0
 222 162 l 2,0,0
 214 136 214 136 210.5 124.5 c 0,1,2
 207 113 207 113 203 95.5 c 0,3,4
 199 78 199 78 200 71.5 c 0,5,6
 201 65 201 65 204 55.5 c 0,7,8
 207 46 207 46 214.5 43 c 0,9,10
 222 40 222 40 234.5 36.5 c 0,11,12
 247 33 247 33 263 32 c 0,13,14
 279 31 279 31 303 31 c 0,0,0
 397 31 397 31 438 48 c 0,1,2
 479 65 479 65 522 135 c 1,0,0
 541 141 541 141 544 129 c 1,0,0
 536 104 536 104 515 61 c 0,1,2
 494 18 494 18 480 -3 c 1,0,0
 406 -1 406 -1 363 -1 c 0,0,0
 323 0 323 0 249 0 c 2,0,0
 133 0 l 2,0,0
 75 0 75 0 27 -3 c 1,0,0
 21 1 21 1 21 9.5 c 0,1,2
 21 18 21 18 26 22 c 2,0,0
 50 25 l 2,0,0
 87 30 87 30 101.5 49.5 c 0,1,2
 116 69 116 69 140 144 c 2,0,0
 184 283 l 1,0,0
 70 215 l 1,0,0
 60 216 60 216 55 224 c 0,1,2
 50 232 50 232 52 244 c 1,0,0
 199 332 l 1,0,0
 257 516 l 2,0,0
 281 586 281 586 277.5 607 c 0,1,2
 274 628 274 628 234 634 c 2,0,0
 210 638 l 1,0,0
 205 644 205 644 206.5 652 c 0,1,2
 208 660 208 660 216 663 c 0,0,0
 229 663 229 663 251.5 662 c 0,1,2
 274 661 274 661 293 660.5 c 0,3,4
 312 660 312 660 330 660 c 0,0,0
 354 660 354 660 395.5 661.5 c 0,1,2
 437 663 437 663 456 663 c 0,0,0
 462 660 462 660 462 651 c 0,1,2
 462 642 462 642 456 638 c 2,0,0
 425 634 l 2,0,0
 383 629 383 629 369 610.5 c 0,1,2
 355 592 355 592 332 516 c 2,0,0
 293 388 l 1,0,0
 431 471 l 1,0,0
 452 467 452 467 448 441 c 1,0,0
EndSplineSet
EndChar

StartChar: Oslash
Encoding: 216 216 141
Width: 730
Flags: MW
HStem: -16 31<312.5 374 312.5 404.5> 645 31<470 528.5>
VStem: 102 84 659 84
LayerCount: 2
Fore
SplineSet
643 554 m 1,0,0
 211 86 l 1,0,0
 250 15 250 15 348 15 c 0,0,0
 447 15 447 15 521 94 c 0,0,0
 650 235 650 235 659 460 c 0,0,0
 661 516 661 516 643 554 c 1,0,0
196 124 m 1,0,0
 625 587 l 1,0,0
 581 645 581 645 502 645 c 0,0,0
 422 645 422 645 352 585 c 0,0,0
 290 533 290 533 240 430 c 0,1,2
 190 327 190 327 186 205 c 0,0,0
 184 160 184 160 196 124 c 1,0,0
753 674 m 1,0,0
 685 599 l 1,0,0
 749 527 749 527 743 402 c 0,0,0
 739 319 739 319 703 234.5 c 0,1,2
 667 150 667 150 608 93 c 0,0,0
 493 -16 493 -16 346 -16 c 0,0,0
 240 -16 240 -16 176 48 c 1,0,0
 91 -44 l 1,0,0
 81 -43 81 -43 73.5 -34.5 c 0,1,2
 66 -26 66 -26 66 -16 c 1,0,0
 152 77 l 1,0,0
 100 147 100 147 102 245 c 0,0,0
 105 342 105 342 145 431 c 0,1,2
 185 520 185 520 262 585 c 0,0,0
 369 676 369 676 506 676 c 0,0,0
 595 676 595 676 659 624 c 1,0,0
 727 700 l 1,0,0
 736 700 736 700 744 691.5 c 0,1,2
 752 683 752 683 753 674 c 1,0,0
EndSplineSet
EndChar

StartChar: OE
Encoding: 338 338 142
Width: 979
Flags: MW
HStem: -7 31<348.5 420> -1 21G<776 796> 0 31<597 775> 326 35<692 765 715 756> 629 31<786.5 799 799 859> 634 30<515.5 585.5>
VStem: 105 88 859 25<245 245>
LayerCount: 2
Fore
SplineSet
777 660 m 2,0,0
 925 660 l 2,0,0
 1036 660 1036 660 1066 663 c 1,0,0
 1054 633 1054 633 1025 530 c 0,0,0
 1022 524 1022 524 1012 524.5 c 0,1,2
 1002 525 1002 525 1000 531 c 0,0,0
 1007 569 1007 569 1001 590.5 c 0,1,2
 995 612 995 612 965 620 c 0,0,0
 931 629 931 629 859 629 c 2,0,0
 799 629 l 2,0,0
 780 629 780 629 774 623.5 c 0,1,2
 768 618 768 618 761 595 c 2,0,0
 697 390 l 2,0,0
 690 369 690 369 692 365 c 0,1,2
 694 361 694 361 715 361 c 2,0,0
 765 361 l 2,0,0
 837 361 837 361 861.5 369.5 c 0,1,2
 886 378 886 378 903 410 c 2,0,0
 919 440 l 2,0,0
 922 445 922 445 932.5 444.5 c 0,1,2
 943 444 943 444 944 438 c 0,0,0
 932 409 932 409 910 341 c 0,0,0
 892 277 892 277 884 244 c 0,0,0
 879 238 879 238 870.5 238.5 c 0,1,2
 862 239 862 239 859 245 c 2,0,0
 859 273 l 2,0,0
 859 310 859 310 839.5 318 c 0,1,2
 820 326 820 326 756 326 c 2,0,0
 706 326 l 2,0,0
 685 326 685 326 679.5 322 c 0,1,2
 674 318 674 318 667 297 c 2,0,0
 626 162 l 2,0,0
 611 112 611 112 607.5 93.5 c 0,1,2
 604 75 604 75 609 52 c 0,0,0
 615 41 615 41 637.5 36 c 0,1,2
 660 31 660 31 720 31 c 0,0,0
 809 31 809 31 848.5 48 c 0,1,2
 888 65 888 65 933 135 c 1,0,0
 949 145 949 145 956 129 c 1,0,0
 948 102 948 102 926.5 58.5 c 0,1,2
 905 15 905 15 887 -3 c 1,0,0
 821 -1 821 -1 776 -1 c 0,0,0
 737 0 737 0 658 0 c 2,0,0
 597 0 l 2,0,0
 576 0 576 0 498 -5 c 0,0,0
 480 -4 480 -4 448.5 -5.5 c 0,1,2
 417 -7 417 -7 404 -7 c 0,0,0
 257 -7 257 -7 177.5 70 c 0,1,2
 98 147 98 147 105 279 c 0,0,0
 110 364 110 364 156.5 445.5 c 0,1,2
 203 527 203 527 282 580 c 0,0,0
 408 664 408 664 586 664 c 0,0,0
 625 664 625 664 687 662 c 0,1,2
 749 660 749 660 777 660 c 2,0,0
565 634 m 0,0,0
 476 634 476 634 404 600 c 0,1,2
 332 566 332 566 288.5 511 c 0,3,4
 245 456 245 456 221 394.5 c 0,5,6
 197 333 197 333 193 270 c 0,0,0
 186 152 186 152 248.5 88 c 0,1,2
 311 24 311 24 416 24 c 0,0,0
 445 24 445 24 462.5 27.5 c 0,1,2
 480 31 480 31 500.5 50 c 0,3,4
 521 69 521 69 532 105 c 2,0,0
 677 564 l 2,0,0
 687 595 687 595 684 606 c 0,1,2
 681 617 681 617 664 622 c 0,0,0
 621 634 621 634 565 634 c 0,0,0
EndSplineSet
EndChar

StartChar: ordmasculine
Encoding: 186 186 143
Width: 328
Flags: MW
HStem: 240 26<168 184> 514 26<268 287.5>
VStem: 88 57 310 59
LayerCount: 2
Fore
SplineSet
284 540 m 0,0,0
 328 540 328 540 349.5 515.5 c 0,1,2
 371 491 371 491 369 450 c 0,0,0
 367 416 367 416 346.5 371 c 0,1,2
 326 326 326 326 287 289 c 0,0,0
 236 240 236 240 173 240 c 0,0,0
 134 240 134 240 109.5 265 c 0,1,2
 85 290 85 290 88 334 c 0,0,0
 90 372 90 372 112 416.5 c 0,1,2
 134 461 134 461 168 491 c 0,0,0
 224 540 224 540 284 540 c 0,0,0
145 307 m 0,0,0
 144 290 144 290 153.5 278 c 0,1,2
 163 266 163 266 179 266 c 0,0,0
 213 266 213 266 242 305 c 0,0,0
 272 345 272 345 290 392 c 0,1,2
 308 439 308 439 310 469 c 0,0,0
 312 514 312 514 276 514 c 0,0,0
 247 514 247 514 215 475 c 0,0,0
 188 442 188 442 167 389 c 0,1,2
 146 336 146 336 145 307 c 0,0,0
EndSplineSet
EndChar

StartChar: ae
Encoding: 230 230 144
Width: 478
Flags: MW
HStem: -14 52<290 372> 378 30<382.5 396.5>
VStem: 20 79<59 66> 226 67 418 65<328 356>
LayerCount: 2
Fore
SplineSet
409 408 m 0,0,0
 446 408 446 408 464.5 388.5 c 0,1,2
 483 369 483 369 483 345 c 0,0,0
 483 301 483 301 439 255.5 c 0,1,2
 395 210 395 210 293 131 c 1,0,0
 293 82 293 82 311.5 60 c 0,1,2
 330 38 330 38 355 38 c 0,0,0
 371 38 371 38 387 48.5 c 0,1,2
 403 59 403 59 410 67 c 0,3,4
 417 75 417 75 433 95 c 1,0,0
 450 100 450 100 453 83 c 1,0,0
 422 29 422 29 383.5 7.5 c 0,1,2
 345 -14 345 -14 319 -14 c 0,0,0
 253 -14 253 -14 232 72 c 1,0,0
 191 34 191 34 146 10 c 0,1,2
 101 -14 101 -14 75 -14 c 0,0,0
 54 -14 54 -14 37 -1 c 0,1,2
 20 12 20 12 20 39 c 0,0,0
 20 76 20 76 48.5 128.5 c 0,1,2
 77 181 77 181 109 218 c 0,0,0
 172 289 172 289 279 354 c 0,0,0
 282 356 282 356 300 367.5 c 0,1,2
 318 379 318 379 326 383 c 0,3,4
 334 387 334 387 349.5 394.5 c 0,5,6
 365 402 365 402 379.5 405 c 0,7,8
 394 408 394 408 409 408 c 0,0,0
121 40 m 0,0,0
 163 40 163 40 226 103 c 1,0,0
 221 212 221 212 270 313 c 1,0,0
 268 315 l 1,0,0
 200 276 200 276 149.5 196.5 c 0,1,2
 99 117 99 117 99 68 c 0,0,0
 99 40 99 40 121 40 c 0,0,0
386 378 m 0,0,0
 346 378 346 378 318.5 308.5 c 0,1,2
 291 239 291 239 291 163 c 1,0,0
 349 216 349 216 383.5 267 c 0,1,2
 418 318 418 318 418 346 c 0,0,0
 418 378 418 378 386 378 c 0,0,0
EndSplineSet
EndChar

StartChar: dotlessi
Encoding: 305 305 145
Width: 278
Flags: MW
HStem: -14 21G<69.5 106.5> -14 62<69.5 148.5> 388 20G<229.5 249.5>
VStem: 183 83
LayerCount: 2
Fore
SplineSet
52 22 m 2,0,0
 179 325 l 2,0,0
 188 344 188 344 177 344 c 0,0,0
 159 344 159 344 94 291 c 1,0,0
 87 292 87 292 83 297 c 0,1,2
 79 302 79 302 81 308 c 0,0,0
 119 352 119 352 168.5 380 c 0,1,2
 218 408 218 408 246 408 c 0,0,0
 252 408 252 408 262 398 c 0,0,0
 271 390 271 390 256 354 c 2,0,0
 137 70 l 2,0,0
 128 48 128 48 140 48 c 0,0,0
 153 48 153 48 186 71 c 0,1,2
 219 94 219 94 244 122 c 1,0,0
 259 120 259 120 259 105 c 1,0,0
 244 77 244 77 181 31.5 c 0,1,2
 118 -14 118 -14 72 -14 c 0,0,0
 64 -14 64 -14 56 -5 c 0,0,0
 45 7 45 7 52 22 c 2,0,0
EndSplineSet
EndChar

StartChar: lslash
Encoding: 322 322 146
Width: 259
Flags: MW
HStem: -14 46<127.5 133.5> 244 21G<121 121> 695 20G<342 342>
VStem: 53 71
LayerCount: 2
Fore
SplineSet
359 405 m 1,0,0
 209 303 l 1,0,0
 129 65 l 2,0,0
 118 32 118 32 133 32 c 0,0,0
 159 32 159 32 248 133 c 1,0,0
 264 135 264 135 264 119 c 1,0,0
 238 69 238 69 192.5 27.5 c 0,1,2
 147 -14 147 -14 92 -14 c 0,0,0
 53 -14 53 -14 53 16 c 0,0,0
 53 35 53 35 75 101 c 2,0,0
 123 242 l 1,0,0
 121 244 l 1,0,0
 40 187 l 1,0,0
 32 187 32 187 26 197.5 c 0,1,2
 20 208 20 208 22 218 c 1,0,0
 142 300 l 1,0,0
 235 574 l 2,0,0
 251 628 251 628 249.5 641.5 c 0,1,2
 248 655 248 655 234 661 c 2,0,0
 216 669 l 2,0,0
 212 672 212 672 212 677.5 c 0,1,2
 212 683 212 683 216 685 c 0,0,0
 279 710 279 710 342 715 c 1,0,0
 347 709 l 2,0,0
 346 705 346 705 288 537 c 2,0,0
 228 361 l 1,0,0
 231 359 l 1,0,0
 341 436 l 1,0,0
 349 435 349 435 355.5 424 c 0,1,2
 362 413 362 413 359 405 c 1,0,0
EndSplineSet
EndChar

StartChar: oslash
Encoding: 248 248 147
Width: 406
Flags: MW
HStem: -14 30<150.5 161.5> -6 21G<105 105> 378 30<276.5 293.5> 381 20G<335 335>
VStem: 47 60 335 61
LayerCount: 2
Fore
SplineSet
113 54 m 1,0,0
 314 369 l 1,0,0
 306.5 378 306.5 378 287 378 c 0,0,0
 248 378 248 378 209 329 c 0,0,0
 166 275 166 275 136.5 199 c 0,1,2
 107 123 107 123 107 80 c 0,0,0
 107 66 107 66 111 56 c 1,0,0
 113 54 l 1,0,0
328 338 m 1,0,0
 127 27 l 1,0,0
 140 16 140 16 156 16 c 0,0,0
 201 16 201 16 241 68 c 0,0,0
 274 111 274 111 304.5 191 c 0,1,2
 335 271 335 271 335 312 c 0,0,0
 335 323 335 323 332 338 c 1,0,0
 328 338 l 1,0,0
392 435 m 1,0,0
 360 385 l 1,0,0
 399 354 399 354 396 282 c 0,0,0
 393 233 393 233 367.5 170 c 0,1,2
 342 107 342 107 291 55 c 0,0,0
 224 -14 224 -14 148 -14 c 0,0,0
 126 -14 126 -14 105 -6 c 1,0,0
 75 -53 l 1,0,0
 68 -56 68 -56 60 -51 c 0,1,2
 52 -46 52 -46 50 -38 c 1,0,0
 81 10 l 1,0,0
 41 45 41 45 47 119 c 0,0,0
 50 169 50 169 79.5 232.5 c 0,1,2
 109 296 109 296 156 343 c 0,0,0
 224 408 224 408 295 408 c 0,0,0
 320 408 320 408 335 401 c 1,0,0
 366 448 l 1,0,0
 387 452 387 452 392 435 c 1,0,0
EndSplineSet
EndChar

StartChar: oe
Encoding: 339 339 148
Width: 578
Flags: MW
HStem: -14 30<141.5 157.5> -14 50<336.5 417> 378 30<271.5 299>
VStem: 47 68 322 56 548 60<349.5 359>
LayerCount: 2
Fore
SplineSet
282 378 m 0,0,0
 245 378 245 378 211 330 c 0,0,0
 172 275 172 275 144.5 199.5 c 0,1,2
 117 124 117 124 115 80 c 0,0,0
 114 52 114 52 124.5 34 c 0,1,2
 135 16 135 16 156 16 c 0,0,0
 196 16 196 16 233 68 c 0,0,0
 264 111 264 111 292 190 c 0,1,2
 320 269 320 269 322 312 c 0,0,0
 324 378 324 378 282 378 c 0,0,0
608 348 m 0,0,0
 608 294 608 294 544 254 c 0,1,2
 480 214 480 214 361 182 c 1,0,0
 343 146 343 146 343 96 c 0,0,0
 343 69 343 69 358.5 52.5 c 0,1,2
 374 36 374 36 399 36 c 0,0,0
 424 36 424 36 445 48.5 c 0,1,2
 466 61 466 61 504 94 c 1,0,0
 511 94 511 94 515 89 c 0,1,2
 519 84 519 84 517 77 c 0,0,0
 443 -14 443 -14 357 -14 c 0,0,0
 296 -14 296 -14 282 61 c 1,0,0
 212 -14 212 -14 146 -14 c 0,0,0
 101 -14 101 -14 74 19.5 c 0,1,2
 47 53 47 53 47 109 c 0,0,0
 47 165 47 165 75 230.5 c 0,1,2
 103 296 103 296 152 343 c 0,0,0
 218 408 218 408 288 408 c 0,0,0
 326 408 326 408 349 384 c 0,1,2
 372 360 372 360 378 318 c 1,0,0
 413 356 413 356 459 382 c 0,1,2
 505 408 505 408 547 408 c 0,0,0
 574 408 574 408 591 389 c 0,1,2
 608 370 608 370 608 348 c 0,0,0
526 377 m 0,0,0
 498 377 498 377 451 329 c 0,0,0
 403 279 403 279 371 211 c 1,0,0
 422 226 422 226 451 242.5 c 0,1,2
 480 259 480 259 509 286 c 0,0,0
 529 305 529 305 538.5 324.5 c 0,1,2
 548 344 548 344 548 354 c 0,0,0
 548 377 548 377 526 377 c 0,0,0
EndSplineSet
EndChar

StartChar: germandbls
Encoding: 223 223 149
Width: 465
Flags: MW
HStem: -269 41<-42 -36> -14 51<279.5 337.5> 678 37<480.5 490>
VStem: 304 65<344 361> 379 52<72.5 151.5> 546 76<609 637.5>
LayerCount: 2
Fore
SplineSet
514 715 m 0,0,0
 557 715 557 715 589.5 688 c 0,1,2
 622 661 622 661 622 624 c 0,0,0
 622 598 622 598 599.5 571.5 c 0,1,2
 577 545 577 545 555 530.5 c 0,3,4
 533 516 533 516 490.5 492.5 c 0,5,6
 448 469 448 469 440 464 c 0,0,0
 369 421 369 421 369 360 c 0,0,0
 369 325 369 325 400 248 c 0,0,0
 431 170 431 170 431 135 c 0,0,0
 431 74 431 74 385 31 c 0,0,0
 367 13 367 13 340.5 -0.5 c 0,1,2
 314 -14 314 -14 300 -14 c 0,0,0
 272 -14 272 -14 254.5 4.5 c 0,1,2
 237 23 237 23 237 41 c 0,0,0
 237 59 237 59 245 70 c 0,0,0
 254 83 254 83 265 72 c 0,0,0
 300 37 300 37 328 37 c 0,0,0
 346 37 346 37 362.5 51.5 c 0,1,2
 379 66 379 66 379 92 c 0,0,0
 379 109 379 109 342 193 c 0,0,0
 304 279 304 279 304 324 c 0,0,0
 304 377 304 377 340 417 c 0,1,2
 376 457 376 457 467 517 c 0,0,0
 506 544 506 544 526 572.5 c 0,1,2
 546 601 546 601 546 617 c 0,0,0
 546 647 546 647 524.5 662.5 c 0,1,2
 503 678 503 678 467 678 c 0,0,0
 416 678 416 678 366.5 634.5 c 0,1,2
 317 591 317 591 282 530 c 0,3,4
 247 469 247 469 222 397 c 0,0,0
 185 293 185 293 145.5 99.5 c 0,1,2
 106 -94 106 -94 86 -144 c 0,0,0
 65 -196 65 -196 22 -232.5 c 0,1,2
 -21 -269 -21 -269 -72 -269 c 0,0,0
 -107 -269 -107 -269 -124 -251 c 0,1,2
 -141 -233 -141 -233 -141 -215 c 0,0,0
 -141 -189 -141 -189 -117 -175 c 0,0,0
 -106 -169 -106 -169 -92 -189 c 0,0,0
 -82 -204 -82 -204 -64.5 -216 c 0,1,2
 -47 -228 -47 -228 -30 -228 c 0,0,0
 -8 -228 -8 -228 8 -201 c 0,0,0
 31 -162 31 -162 63 22 c 0,0,0
 106 268 106 268 156 408 c 0,0,0
 217 578 217 578 346 664 c 0,0,0
 422 715 422 715 514 715 c 0,0,0
EndSplineSet
EndChar

StartChar: onesuperior
Encoding: 185 185 150
Width: 360
Flags: MW
HStem: 245 20 581.5 19.5 616 20G
VStem: 109 136
LayerCount: 2
Fore
SplineSet
191 332 m 2,0,0
 249 527 l 2,0,0
 258 559 258 559 257 565 c 0,0,0
 257 568 257 568 256 570.5 c 0,1,2
 255 573 255 573 252 574.5 c 0,3,4
 249 576 249 576 245.5 577 c 0,5,6
 242 578 242 578 236 579 c 2,0,0
 206 584 l 1,0,0
 198 594 198 594 208 601 c 1,0,0
 287 613 287 613 334 636 c 0,0,0
 343 638 343 638 345 630 c 1,0,0
 326 577 326 577 321 559 c 2,0,0
 254 331 l 2,0,0
 242 293 242 293 245 281 c 0,1,2
 248 269 248 269 274 266 c 2,0,0
 293 264 l 2,0,0
 297 261 297 261 296 254 c 0,1,2
 295 247 295 247 290 245 c 0,0,0
 238 247 238 247 195 247 c 0,0,0
 148 247 148 247 112 245 c 0,0,0
 109 247 109 247 109 254.5 c 0,1,2
 109 262 109 262 112 264 c 2,0,0
 130 266 l 2,0,0
 160 270 160 270 169.5 281 c 0,1,2
 179 292 179 292 191 332 c 2,0,0
EndSplineSet
EndChar

StartChar: logicalnot
Encoding: 172 172 151
Width: 560
Flags: MW
HStem: 256 49<89 464 89 523>
VStem: 464 59<50 256 256 256>
LayerCount: 2
Fore
SplineSet
464 50 m 1,0,0
 464 256 l 1,0,0
 89 256 l 1,0,0
 89 305 l 1,0,0
 523 305 l 1,0,0
 523 50 l 1,0,0
 464 50 l 1,0,0
EndSplineSet
EndChar

StartChar: mu
Encoding: 956 181 152
AltUni2: 0003bc.ffffffff.0
Width: 496
Flags: MW
HStem: -269 21G<-30.5 -5.5> -14 21G<116.5 140.5 308 342.5> -14 63<308 384.5> -14 66<116.5 163.5> -9 21G 343 65<160.5 237.5> 382 20G 388 20G<207.5 237.5>
VStem: -40 97 -40 531
LayerCount: 2
Fore
SplineSet
261 378 m 2,0,0
 149 86 l 2,0,0
 136 52 136 52 156 52 c 0,0,0
 179 52 179 52 262 135 c 0,0,0
 288 161 288 161 311 189.5 c 0,1,2
 334 218 334 218 355 252.5 c 0,3,4
 376 287 376 287 387 305.5 c 0,5,6
 398 324 398 324 418 362 c 0,7,8
 438 400 438 400 439 402 c 0,0,0
 454 405 454 405 469.5 399 c 0,1,2
 485 393 485 393 488 384 c 0,0,0
 486 379 486 379 464.5 323 c 0,1,2
 443 267 443 267 416.5 197 c 0,3,4
 390 127 390 127 371 74 c 0,0,0
 361 49 361 49 375 49 c 0,0,0
 388 49 388 49 419.5 75 c 0,1,2
 451 101 451 101 473 127 c 1,0,0
 490 131 490 131 491 113 c 1,0,0
 470 74 470 74 412 30 c 0,1,2
 354 -14 354 -14 316 -14 c 0,0,0
 304 -14 304 -14 295.5 -2.5 c 0,1,2
 287 9 287 9 291 21 c 2,0,0
 354 192 l 1,0,0
 352 193 l 1,0,0
 293 121 293 121 220.5 53.5 c 0,1,2
 148 -14 148 -14 120 -14 c 0,0,0
 110 -14 110 -14 104 -9 c 0,0,0
 98 -8 98 -8 94 -13.5 c 0,1,2
 90 -19 90 -19 86 -31 c 2,0,0
 71 -73 l 2,0,0
 57 -111 57 -111 57 -164 c 0,0,0
 57 -207 57 -207 50 -228 c 0,0,0
 44 -245 44 -245 23.5 -257 c 0,1,2
 3 -269 3 -269 -22 -269 c 0,0,0
 -48 -269 -48 -269 -37 -238 c 2,0,0
 170 314 l 2,0,0
 181 343 181 343 170 343 c 0,0,0
 157 343 157 343 127 320 c 0,1,2
 97 297 97 297 75 274 c 1,0,0
 68 273 68 273 62.5 277.5 c 0,1,2
 57 282 57 282 58 289 c 0,0,0
 79 322 79 322 138.5 365 c 0,1,2
 198 408 198 408 231 408 c 0,0,0
 242 408 242 408 253.5 399 c 0,1,2
 265 390 265 390 261 378 c 2,0,0
EndSplineSet
EndChar

StartChar: trademark
Encoding: 8482 8482 153
Width: 1075
Flags: MW
HStem: 256 23 633 27<234 254 254 291 389 400 400 445> 639 23 654 20G<543 543>
VStem: 164 13<680 680> 313 65<358 609> 525 21 644 28 648 27 1014 57<544 601.5>
LayerCount: 2
Fore
SplineSet
313 358 m 2,0,0
 313 609 l 2,0,0
 313 626 313 626 310 629.5 c 0,1,2
 307 633 307 633 291 633 c 2,0,0
 254 633 l 2,0,0
 212 633 212 633 191 621 c 0,1,2
 170 609 170 609 160 576 c 0,0,0
 156 573 156 573 147.5 575 c 0,1,2
 139 577 139 577 138 581 c 0,0,0
 154 628 154 628 164 680 c 1,0,0
 177 680 l 1,0,0
 182 667 182 667 191.5 663.5 c 0,1,2
 201 660 201 660 234 660 c 2,0,0
 489 660 l 2,0,0
 515 660 515 660 525 662.5 c 0,1,2
 535 665 535 665 543 674 c 1,0,0
 556 672 l 1,0,0
 542 628 542 628 546 575 c 0,0,0
 544 571 544 571 536 570.5 c 0,1,2
 528 570 528 570 525 573 c 0,0,0
 519 611 519 611 505.5 622 c 0,1,2
 492 633 492 633 445 633 c 2,0,0
 400 633 l 2,0,0
 384 633 384 633 381 629.5 c 0,1,2
 378 626 378 626 378 609 c 2,0,0
 378 358 l 2,0,0
 378 326 378 326 380 313 c 0,1,2
 382 300 382 300 390.5 290.5 c 0,3,4
 399 281 399 281 418 280 c 2,0,0
 444 278 l 2,0,0
 448 274 448 274 448 266 c 0,1,2
 448 258 448 258 443 256 c 0,0,0
 367 258 367 258 344 258 c 0,0,0
 318 258 318 258 246 256 c 0,0,0
 241 258 241 258 240.5 266 c 0,1,2
 240 274 240 274 245 278 c 2,0,0
 275 280 l 2,0,0
 298 281 298 281 305.5 297.5 c 0,1,2
 313 314 313 314 313 358 c 2,0,0
1018 328 m 2,0,0
 1014 544 l 2,0,0
 1014 563 1014 563 1012 565 c 0,0,0
 1009 565 1009 565 974 500 c 2,0,0
 917 393 l 2,0,0
 907 376 907 376 881.5 324.5 c 0,1,2
 856 273 856 273 849 254 c 1,0,0
 842 249 842 249 836 253 c 1,0,0
 817 306 817 306 780 376 c 2,0,0
 721 494 l 2,0,0
 690 558 690 558 681 565 c 1,0,0
 678 558 678 558 675 473 c 0,0,0
 672 418 672 418 672 342 c 0,0,0
 673 306 673 306 679 294 c 0,1,2
 685 282 685 282 708 280 c 2,0,0
 727 278 l 2,0,0
 729 274 729 274 729 266.5 c 0,1,2
 729 259 729 259 726 256 c 0,0,0
 688 258 688 258 655 258 c 0,0,0
 636 258 636 258 578 256 c 0,0,0
 574 259 574 259 573.5 267 c 0,1,2
 573 275 573 275 577 278 c 2,0,0
 591 280 l 2,0,0
 612 282 612 282 621 291 c 0,1,2
 630 300 630 300 632 326 c 0,0,0
 632 328 632 328 634.5 352 c 0,1,2
 637 376 637 376 640 407 c 0,3,4
 643 438 643 438 644 466 c 0,0,0
 648 550 648 550 648 589 c 0,0,0
 648 615 648 615 639 624.5 c 0,1,2
 630 634 630 634 603 638 c 2,0,0
 588 640 l 2,0,0
 585 644 585 644 585.5 652 c 0,1,2
 586 660 586 660 590 662 c 0,0,0
 632 660 632 660 656 660 c 0,0,0
 694 660 694 660 716 662 c 1,0,0
 719 619 719 619 765 532 c 2,0,0
 824 420 l 2,0,0
 850 368 850 368 861 357 c 1,0,0
 869 365 869 365 903 429 c 2,0,0
 950 517 l 2,0,0
 1002 618 1002 618 1014 662 c 1,0,0
 1036 660 1036 660 1068 660 c 0,0,0
 1081 660 1081 660 1131 662 c 0,0,0
 1136 660 1136 660 1136 651.5 c 0,1,2
 1136 643 1136 643 1132 640 c 2,0,0
 1114 638 l 2,0,0
 1089 635 1089 635 1080 623 c 0,1,2
 1071 611 1071 611 1071 584 c 0,0,0
 1071 439 1071 439 1076 326 c 0,0,0
 1078 300 1078 300 1083.5 290.5 c 0,1,2
 1089 281 1089 281 1106 280 c 2,0,0
 1127 278 l 2,0,0
 1131 275 1131 275 1130.5 267 c 0,1,2
 1130 259 1130 259 1126 256 c 0,0,0
 1082 258 1082 258 1055 258 c 0,0,0
 1021 258 1021 258 967 256 c 0,0,0
 962 258 962 258 961.5 266.5 c 0,1,2
 961 275 961 275 966 278 c 2,0,0
 986 280 l 2,0,0
 1009 282 1009 282 1014 290.5 c 0,1,2
 1019 299 1019 299 1018 328 c 2,0,0
EndSplineSet
EndChar

StartChar: Eth
Encoding: 208 208 154
Width: 745
Flags: MW
HStem: -3 26.5 -3 35<245 300.5> 326 35<90 189 82 200 275 412> 632 31<378.5 518.5>
VStem: 14 178 658 89<329 430.5>
LayerCount: 2
Fore
SplineSet
90 361 m 1,0,0
 200 361 l 1,0,0
 258 549 l 2,0,0
 271 596 271 596 267.5 608.5 c 0,1,2
 264 621 264 621 241 624 c 2,0,0
 201 629 l 2,0,0
 196 632 196 632 196 640.5 c 0,1,2
 196 649 196 649 201 653 c 0,0,0
 276 663 276 663 387 663 c 0,0,0
 470 663 470 663 534.5 646.5 c 0,1,2
 599 630 599 630 638.5 603.5 c 0,3,4
 678 577 678 577 703 540.5 c 0,5,6
 728 504 728 504 737.5 467.5 c 0,7,8
 747 431 747 431 747 390 c 0,0,0
 747 295 747 295 704.5 216 c 0,1,2
 662 137 662 137 589 87 c 0,0,0
 457 -3 457 -3 255 -3 c 0,0,0
 244 -3 244 -3 203.5 -1.5 c 0,1,2
 163 0 163 0 130 0 c 0,0,0
 72 0 72 0 20 -3 c 1,0,0
 14 1 14 1 14 9.5 c 0,1,2
 14 18 14 18 19 22 c 2,0,0
 45 25 l 2,0,0
 80 29 80 29 95 49 c 0,1,2
 110 69 110 69 133 144 c 2,0,0
 189 326 l 1,0,0
 82 326 l 1,0,0
 76 350 76 350 90 361 c 1,0,0
412 326 m 1,0,0
 264 326 l 1,0,0
 198 114 l 2,0,0
 184 69 184 69 204 50.5 c 0,1,2
 224 32 224 32 289 32 c 0,0,0
 371 32 371 32 437.5 58.5 c 0,1,2
 504 85 504 85 544 124.5 c 0,3,4
 584 164 584 164 611 213 c 0,5,6
 638 262 638 262 648 304.5 c 0,7,8
 658 347 658 347 658 383 c 0,0,0
 658 419 658 419 655 446.5 c 0,1,2
 652 474 652 474 636.5 511 c 0,3,4
 621 548 621 548 594.5 572.5 c 0,5,6
 568 597 568 597 516.5 614.5 c 0,7,8
 465 632 465 632 394 632 c 0,0,0
 371 632 371 632 363 625 c 0,1,2
 355 618 355 618 347 593 c 2,0,0
 275 361 l 1,0,0
 421 361 l 1,0,0
 431 338 431 338 412 326 c 1,0,0
EndSplineSet
EndChar

StartChar: onehalf
Encoding: 189 189 155
Width: 820
Flags: MW
HStem: 0 48<582 612> 245 20 355 38<657.5 677.5> 581.5 19.5 616 20G
VStem: 92 136 723 72<269.5 311>
LayerCount: 2
Fore
SplineSet
174 332 m 2,0,0
 232 527 l 2,0,0
 241 559 241 559 240 565 c 0,0,0
 240 568 240 568 239 570.5 c 0,1,2
 238 573 238 573 235 574.5 c 0,3,4
 232 576 232 576 228.5 577 c 0,5,6
 225 578 225 578 219 579 c 2,0,0
 189 584 l 1,0,0
 181 594 181 594 191 601 c 1,0,0
 270 613 270 613 317 636 c 0,0,0
 326 638 326 638 328 630 c 1,0,0
 309 577 309 577 304 559 c 2,0,0
 237 331 l 2,0,0
 225 293 225 293 228 281 c 0,1,2
 231 269 231 269 257 266 c 2,0,0
 276 264 l 2,0,0
 280 261 280 261 279 254 c 0,1,2
 278 247 278 247 273 245 c 0,0,0
 221 247 221 247 178 247 c 0,0,0
 131 247 131 247 95 245 c 0,0,0
 92 247 92 247 92 254.5 c 0,1,2
 92 262 92 262 95 264 c 2,0,0
 113 266 l 2,0,0
 143 270 143 270 152.5 281 c 0,1,2
 162 292 162 292 174 332 c 2,0,0
138 -14 m 1,0,0
 412 311 412 311 695 654 c 1,0,0
 705 654 705 654 714.5 647 c 0,1,2
 724 640 724 640 724 629 c 1,0,0
 473 332 473 332 165 -40 c 1,0,0
 138 -40 138 -40 138 -14 c 1,0,0
582 48 m 2,0,0
 644 48 l 2,0,0
 682 48 682 48 701 54.5 c 0,1,2
 720 61 720 61 735 83 c 0,0,0
 739 86 739 86 747 85 c 0,1,2
 755 84 755 84 757 80 c 0,0,0
 740 53 740 53 714 -2 c 1,0,0
 682 0 682 0 612 0 c 2,0,0
 526 0 l 2,0,0
 475 0 475 0 451 -2 c 1,0,0
 442 4 442 4 448 13 c 1,0,0
 499 44 499 44 573 103 c 0,0,0
 575 104 575 104 595 120.5 c 0,1,2
 615 137 615 137 620.5 141.5 c 0,3,4
 626 146 626 146 644.5 162 c 0,5,6
 663 178 663 178 670 186 c 0,7,8
 677 194 677 194 690 210 c 0,9,10
 703 226 703 226 708 237.5 c 0,11,12
 713 249 713 249 718 264 c 0,13,14
 723 279 723 279 723 293 c 0,0,0
 723 320 723 320 705 337.5 c 0,1,2
 687 355 687 355 658 355 c 0,0,0
 611 355 611 355 564 297 c 0,0,0
 559 295 559 295 554 298 c 0,1,2
 549 301 549 301 548 307 c 0,0,0
 569 346 569 346 606.5 369.5 c 0,1,2
 644 393 644 393 686 393 c 0,0,0
 735 393 735 393 765 367.5 c 0,1,2
 795 342 795 342 795 299 c 0,0,0
 795 259 795 259 766.5 226 c 0,1,2
 738 193 738 193 680 150 c 2,0,0
 630 113 l 2,0,0
 564 63 564 63 564 53 c 0,0,0
 564 48 564 48 582 48 c 2,0,0
EndSplineSet
EndChar

StartChar: plusminus
Encoding: 177 177 156
Width: 560
Flags: MW
HStem: 0 49<118 503 118 503> 239 49<118 282 118 282 341 503>
VStem: 282 59<84 239 288 436>
LayerCount: 2
Fore
SplineSet
503 49 m 1,0,0
 503 0 l 1,0,0
 118 0 l 1,0,0
 118 49 l 1,0,0
 503 49 l 1,0,0
341 84 m 1,0,0
 282 84 l 1,0,0
 282 239 l 1,0,0
 118 239 l 1,0,0
 118 288 l 1,0,0
 282 288 l 1,0,0
 282 436 l 1,0,0
 341 436 l 1,0,0
 341 288 l 1,0,0
 503 288 l 1,0,0
 503 239 l 1,0,0
 341 239 l 1,0,0
 341 84 l 1,0,0
EndSplineSet
EndChar

StartChar: Thorn
Encoding: 222 222 157
Width: 560
Flags: MW
HStem: -3 26.5 175 20 487 31<342 362 362 401.5> 636 27
VStem: 8 179 269 57 497 85<332.5 386.5 292 409.5>
LayerCount: 2
Fore
SplineSet
132 144 m 2,0,0
 249 516 l 2,0,0
 273 586 273 586 269.5 607 c 0,1,2
 266 628 266 628 226 634 c 2,0,0
 202 638 l 1,0,0
 190 655 190 655 208 663 c 1,0,0
 268 660 268 660 324 660 c 0,0,0
 386 660 386 660 444 663 c 0,0,0
 449 660 449 660 449 651 c 0,1,2
 449 642 449 642 444 638 c 2,0,0
 422 634 l 2,0,0
 377 627 377 627 362.5 609 c 0,1,2
 348 591 348 591 326 518 c 1,0,0
 362 518 l 2,0,0
 480 518 480 518 533 474 c 0,0,0
 582 434 582 434 582 367 c 0,0,0
 582 314 582 314 554 273.5 c 0,1,2
 526 233 526 233 483 212 c 0,3,4
 440 191 440 191 394.5 181.5 c 0,5,6
 349 172 349 172 308 175 c 0,0,0
 302 177 302 177 301 184 c 0,1,2
 300 191 300 191 305 195 c 0,0,0
 348 203 348 203 380 214 c 0,0,0
 429 232 429 232 463 274 c 0,1,2
 497 316 497 316 497 370 c 0,0,0
 497 487 497 487 366 487 c 0,0,0
 331 487 331 487 320 481 c 0,1,2
 309 475 309 475 303 455 c 2,0,0
 207 144 l 2,0,0
 184 74 184 74 186.5 50.5 c 0,1,2
 189 27 189 27 226 25 c 2,0,0
 271 22 l 1,0,0
 276 17 276 17 274.5 8.5 c 0,1,2
 273 0 273 0 268 -3 c 0,0,0
 172 0 172 0 127 0 c 0,0,0
 71 0 71 0 14 -3 c 1,0,0
 8 1 8 1 8 9.5 c 0,1,2
 8 18 8 18 14 22 c 2,0,0
 43 25 l 2,0,0
 79 29 79 29 93.5 48.5 c 0,1,2
 108 68 108 68 132 144 c 2,0,0
EndSplineSet
EndChar

StartChar: onequarter
Encoding: 188 188 158
Width: 820
Flags: MW
HStem: -2 19 116 27<517 602 701 732> 245 20 581.5 19.5 616 20G
VStem: 108 136 440 57 526 133
LayerCount: 2
Fore
SplineSet
517 143 m 2,0,0
 610 143 l 2,0,0
 623 143 623 143 627 145.5 c 0,1,2
 631 148 631 148 634 159 c 2,0,0
 667 270 l 2,0,0
 669 279 669 279 676 282 c 0,0,0
 698 293 698 293 719 293 c 0,0,0
 728 293 728 293 728.5 288 c 0,1,2
 729 283 729 283 726 274 c 2,0,0
 691 157 l 2,0,0
 688 148 688 148 689.5 145.5 c 0,1,2
 691 143 691 143 701 143 c 2,0,0
 739 143 l 1,0,0
 744 139 744 139 741.5 129.5 c 0,1,2
 739 120 739 120 732 116 c 1,0,0
 698 116 l 2,0,0
 684 116 684 116 680.5 113.5 c 0,1,2
 677 111 677 111 675 102 c 2,0,0
 665 67 l 2,0,0
 657 43 657 43 659 32.5 c 0,1,2
 661 22 661 22 683 19 c 2,0,0
 707 15 l 2,0,0
 711 12 711 12 709.5 6 c 0,1,2
 708 0 708 0 704 -2 c 0,0,0
 636 0 636 0 614 0 c 0,0,0
 580 0 580 0 530 -2 c 0,0,0
 526 0 526 0 526.5 6 c 0,1,2
 527 12 527 12 531 15 c 2,0,0
 555 19 l 2,0,0
 579 23 579 23 589.5 31.5 c 0,1,2
 600 40 600 40 607 67 c 2,0,0
 616 100 l 2,0,0
 620 110 620 110 617.5 113 c 0,1,2
 615 116 615 116 602 116 c 2,0,0
 446 116 l 2,0,0
 437 116 437 116 440 126 c 0,0,0
 443 135 443 135 456 147 c 2,0,0
 752 420 l 2,0,0
 764 432 764 432 774 432 c 0,0,0
 794 432 794 432 794 427 c 0,0,0
 794 425 794 425 790 421 c 2,0,0
 504 158 l 2,0,0
 495 148 495 148 498 145.5 c 0,1,2
 501 143 501 143 517 143 c 2,0,0
190 332 m 2,0,0
 248 527 l 2,0,0
 257 559 257 559 256 565 c 0,0,0
 256 568 256 568 255 570.5 c 0,1,2
 254 573 254 573 251 574.5 c 0,3,4
 248 576 248 576 244.5 577 c 0,5,6
 241 578 241 578 235 579 c 2,0,0
 205 584 l 1,0,0
 197 594 197 594 207 601 c 1,0,0
 286 613 286 613 333 636 c 0,0,0
 342 638 342 638 344 630 c 1,0,0
 325 577 325 577 320 559 c 2,0,0
 253 331 l 2,0,0
 241 293 241 293 244 281 c 0,1,2
 247 269 247 269 273 266 c 2,0,0
 292 264 l 2,0,0
 296 261 296 261 295 254 c 0,1,2
 294 247 294 247 289 245 c 0,0,0
 237 247 237 247 194 247 c 0,0,0
 147 247 147 247 111 245 c 0,0,0
 108 247 108 247 108 254.5 c 0,1,2
 108 262 108 262 111 264 c 2,0,0
 129 266 l 2,0,0
 159 270 159 270 168.5 281 c 0,1,2
 178 292 178 292 190 332 c 2,0,0
158 -14 m 1,0,0
 432 311 432 311 715 654 c 1,0,0
 725 654 725 654 734.5 647 c 0,1,2
 744 640 744 640 744 629 c 1,0,0
 493 332 493 332 185 -40 c 1,0,0
 158 -40 158 -40 158 -14 c 1,0,0
EndSplineSet
EndChar

StartChar: divide
Encoding: 247 247 159
Width: 560
Flags: MW
HStem: 39 89<295.5 319.5> 181 49<118 503 118 503> 283 89<295.5 319.5>
VStem: 263 89<71.5 96 315.5 340>
CounterMasks: 1 e0
LayerCount: 2
Fore
SplineSet
308 128 m 0,0,0
 325 128 325 128 338.5 115 c 0,1,2
 352 102 352 102 352 84 c 0,0,0
 352 66 352 66 339 52.5 c 0,1,2
 326 39 326 39 308 39 c 0,0,0
 289 39 289 39 276 52 c 0,1,2
 263 65 263 65 263 84 c 0,0,0
 263 102 263 102 276 115 c 0,1,2
 289 128 289 128 308 128 c 0,0,0
308 283 m 0,0,0
 289 283 289 283 276 296 c 0,1,2
 263 309 263 309 263 328 c 0,0,0
 263 346 263 346 276 359 c 0,1,2
 289 372 289 372 308 372 c 0,0,0
 325 372 325 372 338.5 359 c 0,1,2
 352 346 352 346 352 328 c 0,0,0
 352 310 352 310 339 296.5 c 0,1,2
 326 283 326 283 308 283 c 0,0,0
503 230 m 1,0,0
 503 181 l 1,0,0
 118 181 l 1,0,0
 118 230 l 1,0,0
 503 230 l 1,0,0
EndSplineSet
EndChar

StartChar: brokenbar
Encoding: 166 166 160
Width: 260
Flags: MW
HStem: 655 20G<140 199 199 199>
VStem: 140 59<-175 175 -175 175 325 675>
LayerCount: 2
Fore
SplineSet
199 675 m 1,0,0
 199 325 l 1,0,0
 140 325 l 1,0,0
 140 675 l 1,0,0
 199 675 l 1,0,0
199 175 m 1,0,0
 199 -175 l 1,0,0
 140 -175 l 1,0,0
 140 175 l 1,0,0
 199 175 l 1,0,0
EndSplineSet
EndChar

StartChar: degree
Encoding: 176 176 161
Width: 400
Flags: MW
HStem: 382 35<279 323 279 337.5> 605 35<279 323>
VStem: 167 56<482.5 539.5 482.5 550> 379 56<482.5 539.5>
LayerCount: 2
Fore
SplineSet
301 640 m 0,0,0
 357 640 357 640 396 604 c 0,1,2
 435 568 435 568 435 511 c 0,0,0
 435 452 435 452 396.5 417 c 0,1,2
 358 382 358 382 301 382 c 0,0,0
 244 382 244 382 205.5 417 c 0,1,2
 167 452 167 452 167 511 c 0,0,0
 167 568 167 568 206 604 c 0,1,2
 245 640 245 640 301 640 c 0,0,0
301 605 m 0,0,0
 267 605 267 605 245 579 c 0,1,2
 223 553 223 553 223 511 c 0,0,0
 223 469 223 469 245 443 c 0,1,2
 267 417 267 417 301 417 c 0,0,0
 335 417 335 417 357 443 c 0,1,2
 379 469 379 469 379 511 c 0,0,0
 379 553 379 553 357 579 c 0,1,2
 335 605 335 605 301 605 c 0,0,0
EndSplineSet
EndChar

StartChar: thorn
Encoding: 254 254 162
Width: 448
Flags: MW
HStem: -269 24 -269 31 -14 34<155.5 193.5> -8 21G 364 30<289.5 300.5> 639 20G<360 360> 645 20G<355 355>
VStem: -106 160 358 77<267 314>
LayerCount: 2
Fore
SplineSet
-4 -169 m 2,0,0
 182 353 l 1,0,0
 139 341 139 341 81 312 c 0,0,0
 75 313 75 313 72 318.5 c 0,1,2
 69 324 69 324 71 331 c 1,0,0
 119 365 119 365 195 387 c 1,0,0
 244 524 l 2,0,0
 261 577 261 577 260.5 591 c 0,1,2
 260 605 260 605 247 611 c 2,0,0
 229 619 l 2,0,0
 225 622 225 622 225 627.5 c 0,1,2
 225 633 225 633 229 635 c 0,0,0
 292 660 292 660 355 665 c 1,0,0
 360 659 l 1,0,0
 355 644 355 644 347.5 625 c 0,1,2
 340 606 340 606 326 569 c 0,3,4
 312 532 312 532 296 487 c 2,0,0
 261 392 l 2,0,0
 264 392 264 392 276 393 c 0,1,2
 288 394 288 394 299 394 c 0,0,0
 328 394 328 394 355.5 386.5 c 0,1,2
 383 379 383 379 409 351.5 c 0,3,4
 435 324 435 324 435 280 c 0,0,0
 435 154 435 154 303 43 c 0,0,0
 275 19 275 19 238.5 5 c 0,1,2
 202 -9 202 -9 185 -11.5 c 0,3,4
 168 -14 168 -14 160 -14 c 0,0,0
 150 -14 150 -14 129 -8 c 1,0,0
 118 -11 118 -11 113 -26 c 2,0,0
 72 -144 l 2,0,0
 52 -202 52 -202 53.5 -216.5 c 0,1,2
 55 -231 55 -231 80 -235 c 2,0,0
 121 -241 l 1,0,0
 132 -256 132 -256 117 -263 c 1,0,0
 100 -263 100 -263 -101 -269 c 1,0,0
 -114 -258 -114 -258 -101 -247 c 1,0,0
 -79 -243 l 2,0,0
 -71 -242 -71 -242 -64 -239.5 c 0,1,2
 -57 -237 -57 -237 -51.5 -235.5 c 0,3,4
 -46 -234 -46 -234 -41 -230 c 0,5,6
 -36 -226 -36 -226 -33 -224.5 c 0,7,8
 -30 -223 -30 -223 -26 -217.5 c 0,9,10
 -22 -212 -22 -212 -20.5 -210.5 c 0,11,12
 -19 -209 -19 -209 -16 -201 c 0,13,14
 -13 -193 -13 -193 -12.5 -191.5 c 0,15,16
 -12 -190 -12 -190 -8.5 -180.5 c 0,17,18
 -5 -171 -5 -171 -4 -169 c 2,0,0
253 362 m 1,0,0
 149 70 l 2,0,0
 143 54 143 54 150 43 c 0,0,0
 164 20 164 20 187 20 c 0,0,0
 205 20 205 20 238 39 c 0,1,2
 271 58 271 58 299 101 c 0,0,0
 358 192 358 192 358 289 c 0,0,0
 358 325 358 325 335.5 344.5 c 0,1,2
 313 364 313 364 279 364 c 0,0,0
 267 364 267 364 253 362 c 1,0,0
EndSplineSet
EndChar

StartChar: threequarters
Encoding: 190 190 163
Width: 820
Flags: MW
HStem: -2 19 116 27<541 626 725 756> 208 26<166 201.5> 607 33<292.5 309>
VStem: 171 12 324 74<342 402> 345 65<549 580.5> 464 57 550 133
LayerCount: 2
Fore
SplineSet
192 -14 m 1,0,0
 466 311 466 311 749 654 c 1,0,0
 759 654 759 654 768.5 647 c 0,1,2
 778 640 778 640 778 629 c 1,0,0
 527 332 527 332 219 -40 c 1,0,0
 192 -40 192 -40 192 -14 c 1,0,0
322 640 m 0,0,0
 361 640 361 640 385.5 620.5 c 0,1,2
 410 601 410 601 410 571 c 0,0,0
 410 519 410 519 313 487 c 0,0,0
 303.511304348 483.44173913 303.511304348 483.44173913 314.536 478.52 c 2,1,-1
 319 477 l 2,0,0
 351 469 351 469 374.5 446.5 c 0,1,2
 398 424 398 424 398 389 c 0,0,0
 398 334 398 334 357 291 c 0,1,2
 316 248 316 248 260 228 c 0,3,4
 204 208 204 208 150 208 c 0,0,0
 78 208 78 208 78 249 c 0,0,0
 78 261 78 261 87 270 c 0,1,2
 96 279 96 279 109 279 c 0,0,0
 129 279 129 279 143 252 c 0,0,0
 152 234 152 234 173 234 c 0,0,0
 234 234 234 234 279 278 c 0,1,2
 324 322 324 322 324 381 c 0,0,0
 324 412 324 412 304.5 431 c 0,1,2
 285 450 285 450 254 450 c 0,0,0
 220 450 220 450 183 421 c 1,0,0
 163 430 163 430 175 452 c 0,0,0
 178 453 178 453 198 460 c 0,1,2
 218 467 218 467 233.5 473 c 0,3,4
 249 479 249 479 271 490 c 0,5,6
 293 501 293 501 308 511.5 c 0,7,8
 323 522 323 522 334 536.5 c 0,9,10
 345 551 345 551 345 566 c 0,0,0
 345 586 345 586 331 596.5 c 0,1,2
 317 607 317 607 297 607 c 0,0,0
 272 607 272 607 245.5 590 c 0,1,2
 219 573 219 573 200 548 c 1,0,0
 185 546 185 546 185 561 c 1,0,0
 206 595 206 595 243 617.5 c 0,1,2
 280 640 280 640 322 640 c 0,0,0
541 143 m 2,0,0
 634 143 l 2,0,0
 647 143 647 143 651 145.5 c 0,1,2
 655 148 655 148 658 159 c 2,0,0
 691 270 l 2,0,0
 693 279 693 279 700 282 c 0,0,0
 722 293 722 293 743 293 c 0,0,0
 752 293 752 293 752.5 288 c 0,1,2
 753 283 753 283 750 274 c 2,0,0
 715 157 l 2,0,0
 712 148 712 148 713.5 145.5 c 0,1,2
 715 143 715 143 725 143 c 2,0,0
 763 143 l 1,0,0
 768 139 768 139 765.5 129.5 c 0,1,2
 763 120 763 120 756 116 c 1,0,0
 722 116 l 2,0,0
 708 116 708 116 704.5 113.5 c 0,1,2
 701 111 701 111 699 102 c 2,0,0
 689 67 l 2,0,0
 681 43 681 43 683 32.5 c 0,1,2
 685 22 685 22 707 19 c 2,0,0
 731 15 l 2,0,0
 735 12 735 12 733.5 6 c 0,1,2
 732 0 732 0 728 -2 c 0,0,0
 660 0 660 0 638 0 c 0,0,0
 604 0 604 0 554 -2 c 0,0,0
 550 0 550 0 550.5 6 c 0,1,2
 551 12 551 12 555 15 c 2,0,0
 579 19 l 2,0,0
 603 23 603 23 613.5 31.5 c 0,1,2
 624 40 624 40 631 67 c 2,0,0
 640 100 l 2,0,0
 644 110 644 110 641.5 113 c 0,1,2
 639 116 639 116 626 116 c 2,0,0
 470 116 l 2,0,0
 461 116 461 116 464 126 c 0,0,0
 467 135 467 135 480 147 c 2,0,0
 776 420 l 2,0,0
 788 432 788 432 798 432 c 0,0,0
 818 432 818 432 818 427 c 0,0,0
 818 425 818 425 814 421 c 2,0,0
 528 158 l 2,0,0
 519 148 519 148 522 145.5 c 0,1,2
 525 143 525 143 541 143 c 2,0,0
EndSplineSet
EndChar

StartChar: twosuperior
Encoding: 178 178 164
Width: 360
Flags: MW
HStem: 247 48<187 217> 602 38<262.5 282.5>
VStem: 328 72<516.5 558>
LayerCount: 2
Fore
SplineSet
187 295 m 2,0,0
 249 295 l 2,0,0
 287 295 287 295 306 301.5 c 0,1,2
 325 308 325 308 340 330 c 0,0,0
 344 333 344 333 352 332 c 0,1,2
 360 331 360 331 362 327 c 0,0,0
 345 300 345 300 319 245 c 1,0,0
 287 247 287 247 217 247 c 2,0,0
 131 247 l 2,0,0
 80 247 80 247 56 245 c 1,0,0
 47 251 47 251 53 260 c 1,0,0
 104 291 104 291 178 350 c 0,0,0
 180 351 180 351 200 367.5 c 0,1,2
 220 384 220 384 225.5 388.5 c 0,3,4
 231 393 231 393 249.5 409 c 0,5,6
 268 425 268 425 275 433 c 0,7,8
 282 441 282 441 295 457 c 0,9,10
 308 473 308 473 313 484.5 c 0,11,12
 318 496 318 496 323 511 c 0,13,14
 328 526 328 526 328 540 c 0,0,0
 328 567 328 567 310 584.5 c 0,1,2
 292 602 292 602 263 602 c 0,0,0
 216 602 216 602 169 544 c 0,0,0
 164 542 164 542 159 545 c 0,1,2
 154 548 154 548 153 554 c 0,0,0
 174 593 174 593 211.5 616.5 c 0,1,2
 249 640 249 640 291 640 c 0,0,0
 340 640 340 640 370 614.5 c 0,1,2
 400 589 400 589 400 546 c 0,0,0
 400 506 400 506 371.5 473 c 0,1,2
 343 440 343 440 285 397 c 2,0,0
 235 360 l 2,0,0
 169 310 169 310 169 300 c 0,0,0
 169 295 169 295 187 295 c 2,0,0
EndSplineSet
EndChar

StartChar: registered
Encoding: 174 174 165
Width: 825
Flags: MW
HStem: -16 39<388 554 388 571.5> 132 15 136 20 305 27<438.5 449> 498 27<435 480> 637 39<388 554>
VStem: 121 57<244.5 417 244.5 425.5> 359 58<236 292 343 353 353 425 425 456> 536 63<398.5 437> 764 57<244.5 417>
LayerCount: 2
Fore
SplineSet
359 236 m 2,0,0
 359 425 l 2,0,0
 359 474 359 474 354 486 c 0,1,2
 349 498 349 498 324 501 c 2,0,0
 309 503 l 2,0,0
 305 507 305 507 305.5 512.5 c 0,1,2
 306 518 306 518 311 521 c 0,0,0
 383 525 383 525 462 525 c 0,0,0
 599 525 599 525 599 424 c 0,0,0
 599 390 599 390 576.5 365 c 0,1,2
 554 340 554 340 526 329 c 1,0,0
 524 321 524 321 530 314 c 0,0,0
 601 196 601 196 639 161 c 0,0,0
 654 147 654 147 674 147 c 1,0,0
 680 141 680 141 674 135 c 1,0,0
 659 132 659 132 644 132 c 0,0,0
 605 132 605 132 581.5 147.5 c 0,1,2
 558 163 558 163 528 205 c 0,0,0
 522 214 522 214 502.5 247 c 0,1,2
 483 280 483 280 473 294 c 0,0,0
 466 305 466 305 442 305 c 0,0,0
 425 305 425 305 421 302.5 c 0,1,2
 417 300 417 300 417 292 c 2,0,0
 417 236 l 2,0,0
 417 187 417 187 423 173 c 0,1,2
 429 159 429 159 451 157 c 2,0,0
 471 155 l 2,0,0
 476 152 476 152 475.5 145 c 0,1,2
 475 138 475 138 470 136 c 0,0,0
 418 138 418 138 391 138 c 0,0,0
 361 138 361 138 311 136 c 0,0,0
 307 138 307 138 306 145 c 0,1,2
 305 152 305 152 309 155 c 2,0,0
 324 157 l 2,0,0
 349 161 349 161 354 173.5 c 0,1,2
 359 186 359 186 359 236 c 2,0,0
417 475 m 2,0,0
 417 353 l 2,0,0
 417 338 417 338 423 335 c 0,1,2
 429 332 429 332 456 332 c 0,0,0
 536 332 536 332 536 417 c 0,0,0
 536 449 536 449 513.5 473.5 c 0,1,2
 491 498 491 498 453 498 c 0,0,0
 428 498 428 498 422.5 494 c 0,1,2
 417 490 417 490 417 475 c 2,0,0
471 -16 m 0,0,0
 322 -16 322 -16 221.5 84.5 c 0,1,2
 121 185 121 185 121 330 c 0,0,0
 121 475 121 475 221.5 575.5 c 0,1,2
 322 676 322 676 471 676 c 0,0,0
 620 676 620 676 720.5 575.5 c 0,1,2
 821 475 821 475 821 330 c 0,0,0
 821 185 821 185 720.5 84.5 c 0,1,2
 620 -16 620 -16 471 -16 c 0,0,0
178 331 m 0,0,0
 178 201 178 201 262.5 112 c 0,1,2
 347 23 347 23 471 23 c 0,0,0
 595 23 595 23 679.5 112 c 0,1,2
 764 201 764 201 764 331 c 0,0,0
 764 460 764 460 679.5 548.5 c 0,1,2
 595 637 595 637 471 637 c 0,0,0
 347 637 347 637 262.5 548.5 c 0,1,2
 178 460 178 460 178 331 c 0,0,0
EndSplineSet
EndChar

StartChar: minus
Encoding: 8722 8722 166
Width: 560
Flags: MW
HStem: 181 49<118 503 118 503>
VStem: 118 385<181 230 181 230>
LayerCount: 2
Fore
SplineSet
503 181 m 1,0,0
 118 181 l 1,0,0
 118 230 l 1,0,0
 503 230 l 1,0,0
 503 181 l 1,0,0
EndSplineSet
EndChar

StartChar: eth
Encoding: 240 240 167
Width: 404
Flags: MW
HStem: -14 30<140.5 160.5> 377 20G 378 30<279.5 297 273 308.5> 695 20G
VStem: 47 67 335 71
LayerCount: 2
Fore
SplineSet
493 616 m 1,0,0
 370 554 l 1,0,0
 409 460 409 460 406 362 c 0,0,0
 404 276 404 276 374 194 c 0,1,2
 344 112 344 112 289 55 c 0,0,0
 222 -14 222 -14 147 -14 c 0,0,0
 98 -14 98 -14 70.5 21 c 0,1,2
 43 56 43 56 47 119 c 0,0,0
 50 169 50 169 79.5 232.5 c 0,1,2
 109 296 109 296 156 343 c 0,0,0
 222 408 222 408 289 408 c 0,0,0
 313 408 313 408 335 397 c 1,0,0
 340 460 340 460 315 528 c 1,0,0
 190 465 l 1,0,0
 182 470 182 470 179 480 c 0,1,2
 176 490 176 490 180 497 c 1,0,0
 304 560 l 1,0,0
 289 606 289 606 259.5 645.5 c 0,1,2
 230 685 230 685 190 698 c 1,0,0
 187 710 187 710 199 715 c 1,0,0
 305 688 305 688 355 584 c 1,0,0
 482 648 l 1,0,0
 492 644 492 644 495 634.5 c 0,1,2
 498 625 498 625 493 616 c 1,0,0
293 378 m 0,0,0
 250 378 250 378 214 330 c 0,0,0
 173 275 173 275 145 199.5 c 0,1,2
 117 124 117 124 114 80 c 0,0,0
 112 53 112 53 123 34.5 c 0,1,2
 134 16 134 16 155 16 c 0,0,0
 195 16 195 16 234 68 c 0,0,0
 266 111 266 111 296.5 191 c 0,1,2
 327 271 327 271 329 312 c 0,0,0
 333 378 333 378 293 378 c 0,0,0
EndSplineSet
EndChar

StartChar: multiply
Encoding: 215 215 168
Width: 560
Flags: MW
HStem: 11 376<162 459 459 459>
VStem: 125 371<50 50 50 346>
LayerCount: 2
Fore
SplineSet
496 349 m 1,0,0
 348 199 l 1,0,0
 496 50 l 1,0,0
 459 11 l 1,0,0
 310 161 l 1,0,0
 162 11 l 1,0,0
 125 50 l 1,0,0
 272 199 l 1,0,0
 125 346 l 1,0,0
 162 385 l 1,0,0
 310 237 l 1,0,0
 459 387 l 1,0,0
 496 349 l 1,0,0
EndSplineSet
EndChar

StartChar: threesuperior
Encoding: 179 179 169
Width: 360
Flags: MW
HStem: 208 26<139 174.5> 607 33<265.5 282>
VStem: 144 12 297 74<342 402> 318 65<549 580.5>
LayerCount: 2
Fore
SplineSet
295 640 m 0,0,0
 334 640 334 640 358.5 620.5 c 0,1,2
 383 601 383 601 383 571 c 0,0,0
 383 519 383 519 286 487 c 0,0,0
 276.511304348 483.44173913 276.511304348 483.44173913 287.536 478.52 c 2,1,-1
 292 477 l 2,0,0
 324 469 324 469 347.5 446.5 c 0,1,2
 371 424 371 424 371 389 c 0,0,0
 371 334 371 334 330 291 c 0,1,2
 289 248 289 248 233 228 c 0,3,4
 177 208 177 208 123 208 c 0,0,0
 51 208 51 208 51 249 c 0,0,0
 51 261 51 261 60 270 c 0,1,2
 69 279 69 279 82 279 c 0,0,0
 102 279 102 279 116 252 c 0,0,0
 125 234 125 234 146 234 c 0,0,0
 207 234 207 234 252 278 c 0,1,2
 297 322 297 322 297 381 c 0,0,0
 297 412 297 412 277.5 431 c 0,1,2
 258 450 258 450 227 450 c 0,0,0
 193 450 193 450 156 421 c 1,0,0
 136 430 136 430 148 452 c 0,0,0
 151 453 151 453 171 460 c 0,1,2
 191 467 191 467 206.5 473 c 0,3,4
 222 479 222 479 244 490 c 0,5,6
 266 501 266 501 281 511.5 c 0,7,8
 296 522 296 522 307 536.5 c 0,9,10
 318 551 318 551 318 566 c 0,0,0
 318 586 318 586 304 596.5 c 0,1,2
 290 607 290 607 270 607 c 0,0,0
 245 607 245 607 218.5 590 c 0,1,2
 192 573 192 573 173 548 c 1,0,0
 158 546 158 546 158 561 c 1,0,0
 179 595 179 595 216 617.5 c 0,1,2
 253 640 253 640 295 640 c 0,0,0
EndSplineSet
EndChar

StartChar: copyright
Encoding: 169 169 170
Width: 825
Flags: MW
HStem: -16 39<388 554 388 571.5> 132 27<460.5 523> 502 27<451.5 529> 637 39<388 554>
VStem: 121 57<244.5 417 244.5 425.5> 281 75<281.5 380 281.5 388> 764 57<244.5 417>
LayerCount: 2
Fore
SplineSet
356 334 m 0,0,0
 356 255 356 255 397 207 c 0,1,2
 438 159 438 159 505 159 c 0,0,0
 586 159 586 159 628 254 c 1,0,0
 640 264 640 264 648 251 c 1,0,0
 646 231 646 231 638 200.5 c 0,1,2
 630 170 630 170 621 155 c 1,0,0
 548 132 548 132 499 132 c 0,0,0
 395 132 395 132 338 190 c 0,1,2
 281 248 281 248 281 328 c 0,0,0
 281 417 281 417 345 473 c 0,1,2
 409 529 409 529 505 529 c 0,0,0
 529 529 529 529 555.5 525.5 c 0,1,2
 582 522 582 522 602 517.5 c 0,3,4
 622 513 622 513 626 513 c 0,0,0
 629 496 629 496 632.5 464.5 c 0,1,2
 636 433 636 433 638 420 c 0,0,0
 635 415 635 415 628 414 c 0,1,2
 621 413 621 413 617 417 c 0,0,0
 590 502 590 502 499 502 c 0,0,0
 431 502 431 502 393.5 454.5 c 0,1,2
 356 407 356 407 356 334 c 0,0,0
471 -16 m 0,0,0
 322 -16 322 -16 221.5 84.5 c 0,1,2
 121 185 121 185 121 330 c 0,0,0
 121 475 121 475 221.5 575.5 c 0,1,2
 322 676 322 676 471 676 c 0,0,0
 620 676 620 676 720.5 575.5 c 0,1,2
 821 475 821 475 821 330 c 0,0,0
 821 185 821 185 720.5 84.5 c 0,1,2
 620 -16 620 -16 471 -16 c 0,0,0
178 331 m 0,0,0
 178 201 178 201 262.5 112 c 0,1,2
 347 23 347 23 471 23 c 0,0,0
 595 23 595 23 679.5 112 c 0,1,2
 764 201 764 201 764 331 c 0,0,0
 764 460 764 460 679.5 548.5 c 0,1,2
 595 637 595 637 471 637 c 0,0,0
 347 637 347 637 262.5 548.5 c 0,1,2
 178 460 178 460 178 331 c 0,0,0
EndSplineSet
EndChar

StartChar: Aacute
Encoding: 193 193 171
Width: 596
Flags: MW
HStem: -3 26.5 263 40<255 419 293 414> 656 20G<520 523.5>
VStem: 430.5 72.5 455 58
LayerCount: 2
Fore
SplineSet
552 25 m 2,0,0
 578 22 l 1,0,0
 582 17 582 17 580.5 8.5 c 0,1,2
 579 0 579 0 574 -3 c 0,0,0
 528 0 528 0 461 0 c 0,0,0
 391 0 391 0 346 -3 c 0,0,0
 339 -0 339 -0 338.5 9.5 c 0,1,2
 338 19 338 19 345 22 c 2,0,0
 376 25 l 2,0,0
 406 28 406 28 415 41 c 0,0,0
 423 54 423 54 426 103 c 2,0,0
 435 237 l 2,0,0
 436 255 436 255 432.5 259 c 0,1,2
 429 263 429 263 414 263 c 2,0,0
 270 263 l 2,0,0
 247 263 247 263 240 258.5 c 0,1,2
 233 254 233 254 219 232 c 2,0,0
 146 118 l 2,0,0
 101 47 101 47 101 43 c 0,0,0
 101 32 101 32 124 28 c 2,0,0
 161 22 l 2,0,0
 167 17 167 17 166 8.5 c 0,1,2
 165 0 165 0 159 -3 c 0,0,0
 112 0 112 0 57 0 c 0,0,0
 0 0 0 0 -54 -3 c 1,0,0
 -64 10 -64 10 -52 22 c 1,0,0
 -25 25 l 2,0,0
 17 31 17 31 47 67 c 0,0,0
 104 138 104 138 212 292 c 2,0,0
 388 540 l 2,0,0
 441 614 441 614 448 643 c 1,0,0
 463 645 463 645 480.5 653.5 c 0,1,2
 498 662 498 662 509.5 669 c 2,3,-1
 521 676 l 1,0,0
 533 676 533 676 533 668 c 0,0,0
 533 661 533 661 531.5 643.5 c 0,1,2
 530 626 530 626 527.5 592 c 0,3,4
 525 558 525 558 523 521 c 2,0,0
 503 143 l 2,0,0
 501 110 501 110 500.5 95.5 c 0,1,2
 500 81 500 81 501.5 65 c 0,3,4
 503 49 503 49 504.5 44.5 c 0,5,6
 506 40 506 40 514 34.5 c 0,7,8
 522 29 522 29 529 28 c 0,9,10
 536 27 536 27 552 25 c 2,0,0
293 303 m 2,0,0
 419 303 l 2,0,0
 432 303 432 303 435 306.5 c 0,1,2
 438 310 438 310 439 323 c 2,0,0
 455 542 l 2,0,0
 455 568 455 568 453 568 c 0,0,0
 448 568 448 568 415 519 c 2,0,0
 276 318 l 2,0,0
 270 309 270 309 273.5 306 c 0,1,2
 277 303 277 303 293 303 c 2,0,0
664 770 m 2,0,0
 483 691 l 1,0,0
 469 695 469 695 474 709 c 1,0,0
 630 828 l 2,0,0
 648 841 648 841 657 841 c 0,0,0
 670 841 670 841 682 818 c 0,0,0
 692 800 692 800 692 791 c 0,0,0
 692 782 692 782 664 770 c 2,0,0
EndSplineSet
EndChar

